<svg width="1340" height="1340" viewBox="0 0 1340 1340" fill="none" xmlns="http://www.w3.org/2000/svg">
<g clip-path="url(#clip0_5_2)">
<path d="M0 9.99999C0 4.47714 4.47715 0 10 0H1330C1335.52 0 1340 4.47715 1340 10V1330C1340 1335.52 1335.52 1340 1330 1340H9.99999C4.47714 1340 0 1335.52 0 1330V9.99999Z" fill="#242425"/>
<path d="M445.337 979.3C447.459 970.585 451.256 962.292 454.824 954.059C455.089 953.745 456.053 953.336 456.029 952.853C455.933 951.359 457.187 950.394 457.633 949.141L456.017 965.944C455.463 971.73 457.645 977.986 453.317 983.194C450.207 982.471 447.796 980.482 445.325 979.3H445.337Z" fill="#10100F"/>
<path d="M452.413 1015.52H451.208C451.352 1014.63 450.713 1013.87 451.208 1015.52C451.183 1016.61 450.34 1017.27 449.761 1018.07C448.303 1017.09 446 1016.21 444.807 1016.99C443.204 1018.05 442.878 1021.45 444.867 1021.33C446.085 1021.26 447.037 1018.93 447.603 1020.2C445.988 1022.96 441.769 1026.18 438.587 1024.85L435.983 1018.89C431.74 1009.16 441.395 988.606 443.975 980.554C446.362 981.699 444.951 985.134 444.915 988.232C446.76 989.582 449.074 988.968 451.28 989.872C455.077 997.49 448.941 1003.12 457.343 1005.28L452.413 1015.51V1015.52Z" fill="#10100F"/>
<path d="M448.796 1054.1C440.419 1059.26 435.187 1072.84 427.533 1076.92C426.58 1074.89 427.099 1072.17 428.328 1069.72L438.418 1049.77C439.599 1047.44 440.973 1045.38 442.938 1044.36C446 1045.92 446.603 1049.11 446.711 1052.6C448.579 1052.31 449.387 1051.59 450.58 1051.7C451.569 1051.78 450.906 1053.11 450.363 1053.77C450.05 1054.16 449.134 1053.88 448.784 1054.1H448.796Z" fill="#10100F"/>
<path d="M842.693 449.89C842.187 449.829 841.644 449.938 841.391 449.661C840.909 449.118 840.656 447.684 841.005 446.743L843.85 439.005C844.091 438.354 843.513 437.908 842.97 438.137L859.605 412.558C860.919 410.544 860.509 407.242 863.752 406.88L848.817 439.149C846.936 443.199 845.116 446.671 842.705 449.902L842.693 449.89Z" fill="#10100F"/>
<path d="M503.041 1010.7C499.69 1012 498.81 1016.39 494.47 1016.99C497.411 1010.85 501.498 1006.11 503.607 1000.5C506.187 1000.99 509.55 1000.5 511.816 1001.55C512.407 1002.93 511.443 1006.06 510.346 1006.8C509.249 1007.53 506.729 1006.19 505.271 1006.43C503.656 1006.7 503.812 1009.64 503.053 1010.7H503.041Z" fill="#10100F"/>
<path d="M881.159 292.256C881.014 292.883 880.797 294.197 880.93 294.824C879.748 294.366 879.604 295.185 879.35 295.728C879.061 296.354 879.363 298.838 878.579 299.139C874.963 300.537 875.083 297.234 876.036 294.558C876.735 292.594 878.808 291.653 881.135 292.256H881.159Z" fill="#10100F"/>
<path d="M886.258 328.443L881.81 340.594C883.521 349.273 880.797 356.011 877.012 363.545L864.861 387.738C855.869 405.638 851.312 416.572 839.668 433.544C842.332 440.728 820.02 462.39 831.11 457.423L835.196 464.319C836.45 460.473 838.619 461.968 837.547 464.608C837.763 465.657 838.631 465.283 837.51 467.658C841.537 462.04 842.212 460.292 842.814 456.592C843.658 451.469 853.422 438.378 854.025 436.738C859.449 436.063 852.168 448.094 862.475 451.312C863.005 454.579 858.015 463.017 861.064 462.257C857.472 471.394 854.097 480.99 848.733 489.874C846.503 493.574 844.514 496.672 842.718 500.795C839.415 508.365 834.702 515.079 830.567 522.408L811.509 556.16L803.927 566.864C802.939 568.262 779.24 609.657 777.89 611.718C776.685 611.332 774.864 609.247 773.02 609.934C764.932 612.923 766.414 621.578 759.314 624.544C758.76 629.992 755.385 634.657 752.48 639.238C749.575 643.818 748.008 648.062 742.764 650.28C740.004 651.449 740.016 653.462 739.521 655.861C739.099 657.922 736.255 659.453 737.858 662.394C729.022 670.555 737.062 672.905 735.543 676.907C734.989 678.39 733.205 679.149 732.47 680.765L726.021 694.82C725.719 695.483 724.839 695.929 724.839 696.652C724.839 697.074 725.502 697.472 726.057 697.303C720.922 707.381 712.11 723.34 705.348 733.201C706.746 731.152 693.366 754.103 693.076 754.621L688.689 762.348L655.262 820.401L644.606 839.025C643.111 841.641 641.966 844.076 640.267 846.679L632.166 859.071C618.4 880.13 617.797 888.086 596.92 914.171C590.037 922.778 588.867 926.43 583.069 935.29L563.529 965.088C560.48 969.741 557.948 974.708 554.464 978.903C552.09 981.771 549.92 983.977 548.076 987.232C545.701 991.427 541.94 994.85 539.011 998.587C531.971 1007.6 521.52 1017.97 511.407 1022.84C507.79 1024.58 500.654 1034.63 496.447 1033.62C492.638 1032.71 504.391 1014.17 503.029 1010.69C503.788 1009.63 503.632 1006.69 505.247 1006.42C506.705 1006.18 509.177 1007.56 510.322 1006.78C511.467 1006.01 512.395 1002.91 511.792 1001.54C509.526 1000.49 506.163 1000.97 503.583 1000.49C505.982 994.103 510.177 988.486 511.202 981.687C502.607 992.488 496.809 1003.77 489.757 1014.31C487.636 1014.09 486.141 1016.14 486.141 1017.92V1019.13C485.333 1018.97 484.236 1018.97 483.923 1019.83C483.718 1020.38 483.67 1021.04 483.73 1021.54C484.26 1025.95 479.945 1028.6 477.45 1032.1C471.82 1039.96 465.649 1046.56 459.067 1053.55C456.09 1056.71 453.884 1060.87 449.207 1062.84C447.266 1059.49 448.917 1056.81 448.773 1054.1C449.11 1053.88 450.038 1054.16 450.352 1053.77C450.894 1053.1 451.557 1051.78 450.569 1051.7C449.375 1051.59 448.568 1052.31 446.699 1052.6C446.591 1049.09 445.988 1045.92 442.926 1044.36C441.504 1042.69 457.006 1013.76 452.389 1015.52L457.319 1005.29C448.917 1003.13 455.065 997.514 451.256 989.884C449.05 988.98 446.736 989.595 444.891 988.245C444.927 985.135 446.338 981.711 443.951 980.566L445.313 979.288C447.772 980.47 450.183 982.459 453.305 983.182C457.633 977.986 455.439 971.73 456.005 965.932L457.621 949.129C460.851 940.04 466.336 932.156 470.47 922.248C457.669 930.288 454.872 944.15 442.143 955.951C439.865 953.468 442.914 950.599 443.601 947.61C448.013 928.54 455.945 911.676 462.936 893.703C467.288 882.505 470.543 871.728 476.232 860.964L493.313 828.634C499.654 816.628 499.991 807.889 511.322 788.783L518.916 775.981L548.401 723.425L562.975 699.364L584.395 664.287L612.783 617.733L631.009 585.174C642.702 564.284 655.515 544.72 666.81 523.577C668.968 519.539 670.933 515.477 673.054 511.631L681.179 496.853C689.954 480.893 699.634 466.271 707.795 450.046C714.376 436.943 721.982 425.323 729.95 412.75C731.373 413.51 731.12 415.029 732.771 416.584L741.968 399.804L755.445 377.058C758.422 372.031 760.544 366.064 765.016 362.593L774.527 355.215C780.675 350.454 784.182 342.932 789.378 337.435C790.089 339.376 788.353 341.245 788.064 343.523L786.967 352.154C786.497 355.878 785.424 360.254 784.604 363.581C784.496 364.039 782.434 364.389 782.073 364.184C781.579 363.907 780.144 365.546 781.325 366.088C785.111 367.824 789.776 367.089 793.356 369.982C795.224 371.501 791.282 373.466 793.476 376.298C793.874 372.73 798.913 372.091 799.817 369.849C807.037 352.118 806.76 365.245 806.82 350.117C815.764 337.387 816.247 334.952 827.421 322.512C831.387 318.1 833.798 312.085 838.909 308.698C841.38 307.071 841.814 304.202 844.188 303.117C847.069 303.587 847.093 299.826 848.926 298.247C851.204 296.294 851.517 302.321 852.94 302.948C873.167 304.708 859.763 313.146 877.289 316.919C878.832 319.74 877 323.609 878.965 326.129C880.689 328.335 884.401 326.996 886.258 328.443ZM453.775 1050.48C453.775 1050.06 453.438 1049.72 453.016 1049.72C452.594 1049.72 452.256 1050.06 452.256 1050.48C452.256 1050.9 452.594 1051.24 453.016 1051.24C453.438 1051.24 453.775 1050.9 453.775 1050.48Z" fill="#10100F"/>
<path d="M861.052 463.439C858.002 464.198 863.005 455.772 862.462 452.493C852.156 449.275 859.425 437.245 854.012 437.92C857.725 427.638 865.283 419.332 870.804 409.52C880.58 392.162 890.741 375.925 901.518 359.326C905.592 353.046 907.678 346.006 913.741 340.606C913.753 347.983 901.566 362.677 905.327 367.402C906.183 369.584 892.357 390.269 892.453 389.245C892.381 390.016 895.479 391.318 895.623 392.222C891.887 405.554 874.191 427.348 871.057 438.366C870.334 440.921 867.718 442.452 866.657 443.935C865.331 450.384 863.402 457.399 861.04 463.427L861.052 463.439Z" fill="#10100F"/>
<path d="M806.808 351.334C806.747 366.462 807.025 353.335 799.804 371.067C798.888 373.297 793.861 373.948 793.464 377.516C791.27 374.683 795.211 372.706 793.343 371.199C789.763 368.306 785.098 369.03 781.313 367.306C780.12 366.763 781.566 365.124 782.06 365.401C782.422 365.606 784.483 365.257 784.592 364.799C785.411 361.472 786.484 357.096 786.954 353.371L788.051 344.74C788.341 342.462 790.064 340.594 789.365 338.653C791.619 336.266 793.018 332.59 796.104 329.684C803.493 322.729 807.109 306.347 820.019 301.586L812.124 329.672C811.135 333.204 813.859 336.845 811.4 340.22C809.122 343.342 806.808 347.935 806.796 351.346L806.808 351.334ZM803.191 359.169C803.191 358.832 802.926 358.566 802.589 358.566C802.251 358.566 801.986 358.832 801.986 359.169C801.986 359.507 802.251 359.772 802.589 359.772C802.926 359.772 803.191 359.507 803.191 359.169Z" fill="#10100F"/>
<path d="M881.159 293.462C878.82 292.859 876.759 293.799 876.06 295.764C875.095 298.44 874.975 301.743 878.603 300.345C879.387 300.043 879.085 297.56 879.375 296.933C879.628 296.391 879.76 295.571 880.954 296.029C882.364 297.403 876.204 312.399 875.674 313.978C880.218 314.34 882.93 312.387 885.908 312.929C891.007 318.125 888.162 324.489 886.27 329.648C884.413 328.214 880.7 329.54 878.977 327.334C877.012 324.815 878.832 320.957 877.301 318.125C859.774 314.352 873.179 305.914 852.952 304.154C851.529 303.515 851.204 297.5 848.938 299.453C847.093 301.032 847.081 304.805 844.2 304.322C844.453 301.008 847.214 298.946 849.504 296.318C856.182 288.64 852.771 288.459 867.634 277.044C868.984 281.395 867.019 285.156 864.68 288.351C866.886 289.158 868.345 288.085 869.767 287.483C868.779 288.206 867.489 292.341 869.852 292.039C872.6 291.702 874.047 287.242 876.048 285.385C872.925 283.963 873.215 287.133 870.949 286.542C874.854 279.647 880.303 273.789 885.932 267.629C887.861 265.52 888.524 261.795 892.899 263.615C890.814 269.462 887.837 274.85 885.715 280.768L881.183 293.425L881.159 293.462Z" fill="#10100F"/>
<path d="M777.877 612.911L768.8 626.846C765.437 632.017 763.063 637.49 759.724 643.035L752.045 655.776C748.887 661.008 746.765 667.385 741.727 670.772L741.763 668.048C741.787 666.312 740.401 665.854 739.255 666.577C738.303 667.168 736.965 668.084 736.953 669.036C736.929 670.953 738.785 670.953 741.739 670.784C739.352 679.776 730.07 690.661 726.068 698.509C725.514 698.677 724.851 698.28 724.851 697.858C724.851 697.122 725.719 696.688 726.032 696.025L732.481 681.97C733.216 680.355 735 679.596 735.555 678.113C737.062 674.111 729.033 671.748 737.869 663.6C736.266 660.658 739.099 659.127 739.533 657.066C740.027 654.667 740.015 652.654 742.775 651.485C748.019 649.267 749.719 644.807 752.491 640.443C755.408 635.851 758.771 631.186 759.326 625.749C766.414 622.784 764.943 614.129 773.031 611.139C774.876 610.452 776.696 612.538 777.901 612.923L777.877 612.911Z" fill="#10100F"/>
<path d="M842.693 451.095C841.211 453.072 841.608 456.375 839.149 458.243C841.187 459.22 841.825 458.135 842.802 457.797C842.187 461.498 841.524 463.246 837.498 468.863C838.619 466.488 837.751 466.862 837.534 465.813C838.619 463.173 836.437 461.679 835.184 465.524L831.097 458.629C832.568 454.012 836.16 450.492 838.86 446.068L842.971 439.342C843.513 439.113 844.092 439.559 843.851 440.21L841.006 447.949C840.656 448.889 840.909 450.324 841.391 450.866C841.645 451.155 842.175 451.035 842.693 451.095ZM841.319 460.425C841.319 460.003 840.982 459.666 840.56 459.666C840.138 459.666 839.8 460.003 839.8 460.425C839.8 460.847 840.138 461.184 840.56 461.184C840.982 461.184 841.319 460.847 841.319 460.425ZM838.149 461.63C838.149 461.293 837.884 461.028 837.546 461.028C837.209 461.028 836.943 461.293 836.943 461.63C836.943 461.968 837.209 462.233 837.546 462.233C837.884 462.233 838.149 461.968 838.149 461.63Z" fill="#10100F"/>
<path d="M869.731 287.519C870.346 287.073 870.683 286.808 870.912 286.591C873.178 287.193 872.889 284.011 876.011 285.433C874.01 287.278 872.564 291.738 869.815 292.087C867.453 292.389 868.73 288.254 869.731 287.531V287.519Z" fill="#10100F"/>
<path d="M449.749 1018.07C449.412 1018.52 449.773 1019.61 448.978 1019.83C448.483 1019.96 448.062 1020.19 447.591 1020.2C447.025 1018.93 446.073 1021.26 444.855 1021.33C442.866 1021.45 443.204 1018.04 444.795 1016.99C445.976 1016.21 448.279 1017.09 449.749 1018.07Z" fill="#10100F"/>
<path d="M489.781 1014.32C488.805 1015.76 487.961 1017.33 486.165 1017.93C486.165 1016.15 487.66 1014.1 489.781 1014.32Z" fill="#10100F"/>
<path d="M486.146 1018.93C486.146 1020.08 484.868 1020.94 483.735 1021.34C483.675 1020.84 483.711 1020.18 483.928 1019.63C484.253 1018.77 485.338 1018.79 486.146 1018.93Z" fill="#10100F"/>
<path d="M454.824 954.047C455.041 953.54 455.68 953.239 456.029 952.841C456.053 953.323 455.089 953.733 454.824 954.047Z" fill="#10100F"/>
<path d="M453.015 1051.24C453.435 1051.24 453.775 1050.9 453.775 1050.48C453.775 1050.06 453.435 1049.72 453.015 1049.72C452.596 1049.72 452.256 1050.06 452.256 1050.48C452.256 1050.9 452.596 1051.24 453.015 1051.24Z" fill="#10100F"/>
<path d="M802.589 358.566C802.922 358.566 803.192 358.297 803.192 357.964C803.192 357.631 802.922 357.361 802.589 357.361C802.256 357.361 801.986 357.631 801.986 357.964C801.986 358.297 802.256 358.566 802.589 358.566Z" fill="#10100F"/>
<path d="M826.758 710.051C823.817 710.22 821.961 710.22 821.973 708.303C821.973 707.351 823.323 706.435 824.275 705.844C825.432 705.133 826.806 705.579 826.782 707.315L826.746 710.039L826.758 710.051Z" fill="#10100F"/>
<path d="M451.208 1015.52C450.967 1014.7 451.003 1014.47 451.075 1014.57C451.147 1014.67 451.28 1015.08 451.208 1015.52Z" fill="#10100F"/>
<path d="M840.56 459.979C840.979 459.979 841.319 459.639 841.319 459.219C841.319 458.8 840.979 458.46 840.56 458.46C840.14 458.46 839.8 458.8 839.8 459.219C839.8 459.639 840.14 459.979 840.56 459.979Z" fill="#10100F"/>
<path d="M837.547 461.028C837.879 461.028 838.149 460.758 838.149 460.425C838.149 460.092 837.879 459.822 837.547 459.822C837.214 459.822 836.944 460.092 836.944 460.425C836.944 460.758 837.214 461.028 837.547 461.028Z" fill="#10100F"/>
<path d="M1108.16 276.597C1106.53 281.045 1103.92 285.457 1102.94 290.725C1101.52 298.416 1099.21 305.347 1095.47 312.459C1099.97 312.362 1104.83 310.072 1107.55 313.339C1114.25 321.379 1102.97 333.867 1103.52 341.461C1104.03 348.429 1101.87 352.78 1099.41 358.494C1088.55 383.736 1075.91 407.603 1061.82 431.483C1059.96 434.617 1060.14 438.281 1057.34 441.536C1055.25 443.983 1046.22 456.688 1047.23 457.399C1047.82 457.809 1048.38 458.81 1049.05 458.279C1049.34 458.05 1049.85 457.484 1050.3 457.496C1052.7 457.58 1057.78 456.543 1058.4 460.099C1057.45 462.209 1052.68 465.439 1053.27 467.959C1056.25 469.429 1057.62 467.284 1058.46 465.693L1063.46 456.23C1066.35 450.757 1070.52 446.201 1072 440.523C1072.58 438.293 1073.29 436.003 1074.81 433.628L1094.59 402.745C1101.5 391.957 1107.37 381.12 1114.31 370.826C1116.51 370.548 1117.63 367.221 1120.23 367.282C1122.16 367.474 1122.76 370.488 1123.97 371.368C1123 375.563 1117.63 379.529 1117.18 384.037C1116.58 390.052 1114.9 394.042 1112.58 399.141C1102.03 422.189 1096.92 417.439 1085.33 453.795C1082.05 464.089 1077.63 473.299 1073.53 483.219C1071.44 488.294 1066.73 492.405 1065.71 497.889C1065.01 501.65 1061.57 502.964 1060.27 505.689C1056.56 513.415 1053.31 520.793 1048.62 527.965C1045.34 532.991 1042.83 538.259 1039.71 543.442L1014.42 585.536C1011.36 590.623 1008.8 595.866 1005.5 600.772C998.965 610.488 994.203 620.529 988.14 630.402L962.055 672.881L950.386 693.928L914.826 754.621L894.985 787.915C885.98 803.007 878.266 818.231 869.237 833.335L857.062 853.707L829.964 897.633L789.221 957.916C780.409 970.947 773.635 984.435 762.569 995.622L740.57 1017.85C737.424 1021.03 735.543 1021.62 731.987 1022.95C728.431 1024.27 718.776 1038.34 716.486 1033C715.123 1029.84 722.886 1017.13 722.44 1013.12C720.958 999.551 736.363 985.315 729.191 986.581C728.709 986.665 728.431 987.172 728.467 987.81C724.369 991.162 721.572 996.176 719.174 1001.31C717.474 1004.96 714.581 1007.39 712.628 1010.65C702.997 1026.72 692.353 1041.56 679.045 1054.12C675.477 1055.02 672.174 1052.54 668.57 1052.23C665.484 1051.96 662.579 1060.73 659.674 1058.47C656.166 1055.76 663.097 1044.94 663.374 1044.62C665.544 1042.21 672.777 1025.56 673.416 1022.86C674.922 1016.49 679.527 1011.91 680.383 1005.11C676.96 1006.36 672.283 1005.43 670.318 1002.2C668.124 998.611 669.281 992.729 667.268 988.835C665.255 984.942 665.785 983.278 667.196 979.698C669.329 974.322 670.728 967.873 675.899 964.039C677.767 962.665 681.649 961.508 679.804 958.278C678.888 956.674 676.212 954.071 678.503 952.335C680.455 950.864 683.168 951.129 685.325 949.165C682.348 945.307 684.277 942.426 685.325 939.063C687.314 932.759 688.881 926.575 693.558 922.139C692.136 920.789 691.594 919.764 690.557 920.283C687.893 921.621 685.747 924.2 685.048 926.334C683.734 930.372 680.335 933.169 677.43 936.206L673.524 940.293C672.439 941.426 670.306 940.992 669.414 940.293C667.16 938.509 672.813 928.226 674.609 918.462C675.827 911.857 680.335 913.098 683.505 902.177L688.761 884.12C689.556 881.408 691.69 881.709 692.136 878.081C694.209 861.144 704.901 863.206 706.155 849.452C705.986 851.248 715.123 828.67 714.955 831.563C715.184 827.441 718.957 826.91 719.873 824.258L725.165 808.805C728.082 800.27 732.807 792.218 740.1 785.938C744.114 782.478 743.692 774.739 745.609 769.882C748.007 763.818 752.889 759.696 756.662 754.681C757.808 753.15 757.422 750.571 758.591 749.197C767.897 738.179 766.342 729.982 776.455 718.952C780.699 714.324 785.605 711.033 783.628 703.366C790.475 699.352 791.62 692.276 794.175 685.719C797.791 676.437 807.242 669.65 810.28 660.489C812.003 655.306 813.052 653.208 817.56 649.628C820.791 647.061 825.118 639.78 826.312 635.766C827.891 630.438 828.482 628.184 832.628 624.037C840.09 616.564 841.886 606.715 846.937 602.496C852.602 597.771 851.578 588.441 855.23 583.101L864.62 569.371C866.513 566.611 868.068 564.079 869.478 560.62C863.077 576.351 890.248 522.36 879.941 538.922L890.248 522.347C892.707 518.394 892.381 516.694 895.708 513.789C902.254 508.075 901 496.19 909.547 489.922C915.079 485.859 918.418 477.916 919.371 470.936C924.458 465.307 928.375 458.918 928.785 450.818C934.39 446.9 934.909 439.921 938.706 435.075C941.105 432.013 943.467 430.699 944.19 425.829C944.865 422.912 951.098 421.839 952.11 418.657C952.086 418.741 968.106 391.728 969.143 390.799C971.578 388.618 973.121 385.484 973.121 382.711C973.121 379.673 982.619 365.739 986.585 362.376C1000.16 350.815 1012.06 331.468 1023.75 320.149C1024.94 318.992 1031.97 312.965 1033.5 316.774C1034.16 318.414 1032.49 322.054 1034.6 322.452C1032.92 326.803 1031.56 330.215 1032.87 335.458C1033.33 338.689 1028.37 341.389 1030.28 345.548C1031.52 341.919 1043.02 327.997 1044.22 326.152C1049.54 317.968 1056.37 311.88 1062.39 304.515C1070.33 294.811 1075.82 283.432 1087.24 277.369C1088.49 280.298 1086.94 283.372 1087.01 286.856C1092.94 282.95 1096.11 278.61 1099.59 274.379C1101.29 273.813 1105.01 270.233 1105.91 272.089L1108.13 276.658L1108.16 276.597Z" fill="#006B3F"/>
<path d="M677.442 936.194C674.561 943.728 669.317 951.154 661.747 956.216C665.87 934.434 674.573 916.148 681.95 896.753C686.085 885.868 689.231 875.38 694.715 864.893L705.468 844.293C709.217 837.12 713.544 830.382 716.498 822.8C720.017 813.771 722.006 804.405 727.31 795.967C742.957 771.087 756.53 745.918 770.621 720.182C778.685 705.44 787.34 692.288 796.068 677.992L839.391 606.968C844.972 597.807 848.938 588.706 854.35 579.593L872.226 549.433L883.847 528.375C890.175 516.911 895.66 505.52 902.905 494.442C908.329 486.149 912.873 478.012 917.538 469.176C928.05 449.275 938.645 430.024 951.049 411.906C951.616 413.052 952.508 413.98 953.279 414.004C953.074 414.004 970.143 385.122 973.157 382.651C973.157 385.411 971.614 388.557 969.179 390.739C968.142 391.667 952.122 418.681 952.146 418.597C951.134 421.779 944.914 422.852 944.226 425.769C943.503 430.639 941.141 431.953 938.742 435.014C934.945 439.848 934.438 446.828 928.821 450.757C928.411 458.858 924.494 465.259 919.407 470.876C918.455 477.855 915.115 485.811 909.583 489.861C901.024 496.13 902.278 508.015 895.744 513.729C892.417 516.634 892.743 518.333 890.284 522.287L879.977 538.862C890.284 522.287 863.113 576.29 869.514 560.56C868.104 564.019 866.549 566.55 864.656 569.311L855.266 583.041C851.614 588.369 852.638 597.711 846.973 602.436C841.91 606.655 840.114 616.503 832.664 623.977C828.518 628.124 827.927 630.378 826.348 635.706C825.155 639.72 820.827 647.001 817.597 649.568C813.088 653.148 812.04 655.246 810.316 660.429C807.266 669.59 797.828 676.377 794.211 685.659C791.656 692.216 790.511 699.292 783.664 703.306C785.641 710.985 780.735 714.263 776.492 718.892C766.378 729.922 767.921 738.119 758.627 749.136C757.458 750.523 757.856 753.09 756.698 754.621C752.925 759.636 748.043 763.758 745.645 769.821C743.716 774.679 744.15 782.418 740.136 785.878C732.843 792.17 728.118 800.222 725.201 808.745L719.909 824.198C719.005 826.85 715.232 827.38 714.991 831.503C715.147 828.598 706.022 851.176 706.191 849.392C704.937 863.145 694.257 861.084 692.172 878.02C691.726 881.649 689.58 881.347 688.797 884.06L683.541 902.117C680.359 913.026 675.863 911.796 674.645 918.402C672.849 928.166 667.208 938.46 669.45 940.232C670.342 940.944 672.475 941.378 673.56 940.232L677.466 936.146L677.442 936.194Z" fill="#006B3F"/>
<path d="M679.032 1054.1C675.85 1057.1 674.223 1062.39 668.183 1062.51C667.979 1060.69 668.617 1059 667.846 1056.56C659.01 1062.47 657.045 1071.44 647.752 1077C647.269 1071.88 649.391 1067.43 651.826 1062.97C659.866 1048.26 667.255 1034.06 672.861 1017.15C665.628 1020.62 665.64 1027.16 659.529 1026.32C657.226 1026.01 657.925 1023.36 657.118 1021.91C651.537 1011.96 660.083 992.102 663.856 982.398C669.148 968.789 673.909 955.638 681.009 942.788C683.962 937.448 684.927 931.469 689.327 925.996C687.314 924.526 686.506 926.587 685.047 926.31C685.747 924.164 687.892 921.597 690.556 920.258C691.593 919.74 692.135 920.765 693.558 922.115C688.869 926.551 687.314 932.747 685.325 939.039C684.264 942.402 682.347 945.271 685.325 949.141C683.167 951.105 680.455 950.84 678.502 952.311C676.212 954.035 678.888 956.65 679.804 958.254C681.648 961.484 677.755 962.629 675.898 964.015C670.727 967.849 669.317 974.298 667.195 979.674C665.773 983.254 665.351 985.122 667.267 988.811C669.292 992.705 668.123 998.587 670.317 1002.18C672.282 1005.4 676.959 1006.33 680.382 1005.08C679.527 1011.88 674.922 1016.46 673.415 1022.84C672.776 1025.54 665.532 1042.2 663.374 1044.6C663.097 1044.91 656.165 1055.74 659.673 1058.45C662.578 1060.7 665.483 1051.94 668.569 1052.2C672.173 1052.52 675.476 1055 679.044 1054.1H679.032Z" fill="#006B3F"/>
<path d="M1072 440.535C1070.52 446.213 1066.35 450.769 1063.45 456.242L1058.46 465.705C1057.62 467.308 1056.25 469.453 1053.27 467.971C1052.69 465.463 1057.45 462.221 1058.4 460.111C1057.78 456.555 1052.7 457.592 1050.3 457.508L1067.76 430.108L1088.71 396.549C1086.86 407.229 1080.68 415.149 1076.11 424.226C1075.56 425.323 1069.67 441.68 1069.49 440.825C1069.95 442.97 1070.31 440.933 1072 440.535Z" fill="#006B3F"/>
<path d="M1123.97 371.38C1122.75 370.5 1122.16 367.474 1120.23 367.294C1117.63 367.233 1116.52 370.56 1114.31 370.838C1121.12 360.748 1126.34 349.731 1134.24 339.4C1134.61 346.741 1128.48 351.671 1126.98 358.217L1123.98 371.38H1123.97Z" fill="#006B3F"/>
<path d="M1034.63 322.404C1032.51 322.018 1034.2 318.365 1033.54 316.726C1032 312.917 1024.98 318.944 1023.78 320.101C1027.34 312.507 1032.17 304.358 1041.13 299.959C1039.57 308.312 1037.27 315.533 1034.63 322.404Z" fill="#006B3F"/>
<path d="M1108.16 276.597L1105.95 272.029C1105.04 270.185 1101.34 273.753 1099.63 274.319L1108.44 263.639C1109.31 262.578 1109.89 261.722 1111.18 262.084C1111.95 262.301 1113.23 262.783 1112.72 264.169L1108.16 276.597Z" fill="#006B3F"/>
<path d="M722.428 1013.11C720.162 1012.67 719.065 1015.13 718.016 1016.89C716.268 1017.01 714.339 1016.49 716.003 1015.52L724.851 997.478C726.49 994.139 727.961 991.077 728.455 987.811C728.407 987.16 728.684 986.665 729.178 986.581C736.35 985.315 720.945 999.563 722.428 1013.12V1013.11Z" fill="#006B3F"/>
<path d="M237.847 933.422C241.91 931.927 219.657 964.124 219.175 956.06L230.856 921.705C235.4 908.349 241.331 900.188 244.333 886.748C245.574 881.179 252.71 866.677 255.748 860.807L273.299 826.922C278.157 817.544 279.326 807.575 288.331 792.447L299.577 773.558C304.58 765.156 315.537 745.918 320.118 737.432L327.784 723.208L368.672 655.812C372.096 650.183 375.929 645.735 378.858 640.636C379.352 642.287 378.713 641.528 378.858 640.636L384.222 631.318C385.452 629.184 385.488 625.713 388.321 625.363C383.439 635.139 390.213 631.113 384.246 638.647C382.342 641.058 380.943 643.24 377.52 644.084C370.444 656.909 379.569 650.183 370.396 659.139C364.465 664.925 365.225 666.432 361.078 674.918C360.584 675.919 361.669 683.863 352.507 692.795L345.697 699.437C350.097 703.547 335.306 718.868 332.244 723.605C334.125 720.712 324.204 744.351 321.323 738.42C321.022 739.433 322.203 740.216 322.336 741.868C314.778 748.859 319.298 754.163 311.607 756.429C312.885 760.528 311.86 762.312 309.413 765.542C300.108 777.85 304.797 782.515 293.321 794.726C290.44 797.799 289.476 802.332 287.27 805.671C286.655 806.599 284.232 806.84 283.364 807.25C281.761 808.009 283.364 810.468 282.641 811.722C281.448 813.844 278.639 815.182 280.387 818.292C281.568 820.401 278.88 822.523 278.989 823.993C279.591 832.058 274.854 836.71 270.876 842.412C266.898 848.114 258.026 870.161 252.554 877.249C250.565 879.829 248.31 880.793 247.696 884.686C247.43 886.362 244.007 887.748 246.249 890.195C246.647 890.629 246.526 891.521 246.804 891.955C247.503 893.052 245.273 893.016 244.923 893.848C239.74 906.348 234.978 912.218 232.001 926.37C231.362 929.42 235.545 932.891 237.799 933.446L237.847 933.422Z" fill="#AD1624"/>
<path d="M229.409 1017.93C226.42 1020.94 224.431 1024.67 219.079 1026.88C213.787 1017.57 213.425 1006.45 217.379 996.128L228.758 966.426L235.678 951.732C239.788 943.005 244.646 935.049 247.623 925.466C245.321 924.224 244.791 926.491 243.79 927.455C244.634 924.104 247.913 919.27 251.167 918.366C255.905 921.813 249.926 926.49 249.419 929.142C248.25 935.29 248.021 941.438 243.802 946.681C240.957 950.213 242.79 958.049 238.221 959.676C237.257 960.013 236.341 958.663 235.111 958.169C233.231 960.11 236.087 962.364 234.966 964.654C232.929 968.801 231.772 974.153 228.77 977.552C221.538 985.737 222.719 987.557 223.117 996.249C223.298 1000.31 220.815 1004.11 223.286 1008.46C224.817 1011.15 224.383 1014.51 223.322 1017.57C225.877 1018.34 227.613 1017.89 229.421 1017.96L229.409 1017.93Z" fill="#AD1624"/>
<path d="M662.157 287.446C663.013 276.091 669.281 272.909 666.352 270.775C663.423 268.642 651.357 288.073 647.391 288.35L637.35 289.05C636.783 290.159 638.495 292.497 637.783 293.666C636.988 294.992 634.927 295.185 633.661 296.27L624.849 303.804C626.452 305.021 628.044 304.202 630.406 305.142C628.345 306.661 629.032 310.349 627.248 311.495C624.198 313.447 621.86 316.991 618.967 318.546C613.699 321.403 612.228 325.2 610.276 330.01C609.275 332.481 605.695 336.194 605.032 339.002C600.765 341.293 593.93 340.413 590.904 345.56C590.7 346.874 591.061 348.043 591.109 349.007C584.311 348.646 587.975 364.244 576.536 371.923C575.571 369.572 589.096 353.178 579.091 355.722C583.214 354.106 582.732 349.333 584.588 346.187C587.782 340.738 587.891 336.025 588.614 330.251C589.169 325.851 593.496 322.452 592.616 316.955C592.387 315.521 596.413 313.279 593.219 311.338C591.929 312.712 592.725 314.339 591.893 316.244C585.42 316.075 580.249 322.09 581.466 328.214C582.479 333.313 577.633 331.89 575.728 333.711C572.449 336.857 568.387 340.099 565.265 343.511L548.437 361.809C544.713 365.859 542.145 371.272 538.685 375.659C537.42 377.275 540.445 381.506 536.938 382.868C532.562 384.555 530.79 388.762 531.923 393.512L523.871 399.949L518.856 408.953C514.806 416.222 512.757 422.804 505.102 426.323C499.22 429.036 497.725 438.534 493.832 443.199C490.902 446.707 473.159 480.375 479.113 471.888L470.941 483.509L462.298 497.769C460.61 500.566 451.461 516.417 451.883 516.549C452.618 516.791 454.149 516.212 454.872 516.766C457.223 518.575 455.318 523.746 452.739 524.361C451.859 524.566 450.906 522.914 450.292 522.878C445.144 522.565 447.857 529.267 440.853 534.305C435.694 540.031 453.39 508.799 450.075 513.994C460.152 498.215 469.53 482.749 478.487 466.283L495.338 435.292C496.93 432.375 508.646 414.848 508.899 414.739C509.647 414.402 511.093 414.98 512.733 414.98C515.927 408.664 519.399 402.082 523.606 396.007C531.694 384.314 536.733 370.476 546.955 360.507C552.982 354.637 559.322 349.55 563.951 342.245C568.122 335.663 573.607 330.335 578.284 324.272C581.092 320.632 592.99 298.838 598.282 302.418C600.307 303.78 594.4 320.222 593.026 324.549C591.748 328.551 591.905 332.445 591.29 336.29C590.808 339.292 587.204 341.739 588.891 345.512C591.748 345.476 590.977 341.932 592.255 340.304L616.893 308.806C618.858 306.287 621.558 304.286 623.318 301.55C629.285 292.292 636.084 284.107 645.257 276.863C648.054 280.226 645.98 282.878 645.305 287.326C646.848 285.867 649.187 285.072 650.706 283.348L668.895 262.603C671.005 262.506 671.789 264.435 671.873 265.435C672.005 266.894 670.535 268.642 669.98 269.883L662.181 287.47L662.157 287.446Z" fill="#AD1624"/>
<path d="M632.021 435.714L629.02 439.824C621.715 449.841 629.02 448.744 622.487 458.629C616.797 467.248 618.521 463.824 613.181 468.453C611.505 464.981 613.904 464.126 616.483 462.908C614.374 461.667 612.023 460.895 610.673 458.677C612.94 453.216 616.267 448.913 618.762 444.14C621.257 439.366 624.777 435.461 627.501 430.988L628.815 433.182C633.769 428.782 634.119 423.672 635.698 418.838C637.494 413.365 640.713 407.555 645.836 402.878C643.642 412.545 634.939 423.623 632.009 435.714H632.021Z" fill="#AD1624"/>
<path d="M300.53 1015.52C301.169 1020.84 294.503 1019.8 291.634 1022.1C286.511 1026.22 283.437 1032.82 275.951 1035.32C271.997 1030.24 281.701 1018.5 280.978 1013.14C278.338 1014.91 278.133 1018.24 274.444 1016.74C279.278 1007.87 282.364 999.117 287.258 991.427C287.752 998.286 284.835 994.573 283.75 1004.18C283.569 1005.83 285.836 1006.81 287.752 1008.39C283.871 1014.14 280.713 1019.97 283.196 1026.85C296.672 1015.29 292.96 1023.06 300.518 1015.55L300.53 1015.52ZM280.17 1028.78C280.17 1028.05 279.567 1027.44 278.832 1027.44C278.097 1027.44 277.494 1028.05 277.494 1028.78C277.494 1029.52 278.097 1030.12 278.832 1030.12C279.567 1030.12 280.17 1029.52 280.17 1028.78Z" fill="#AD1624"/>
<path d="M676.622 380.264C676.67 378.83 678.02 377.383 678.503 374.912C672.415 369.198 660.879 393.861 659.999 395.308L647.029 416.632C644.642 420.549 642.894 421.96 640.64 424.817C643.871 415.475 653.381 404.204 657.926 395.368C661.59 388.244 666.135 382.157 670.33 375.382L680.479 358.964C683.674 353.805 685.578 348.429 690.388 343.414C691.232 349.212 688.375 353.769 685.59 357.759C683.372 360.941 684.674 363.738 684.481 367.004C684.373 368.837 678.611 382.301 676.622 380.276V380.264Z" fill="#AD1624"/>
<path d="M217.584 1064.19C218.778 1066.22 206.386 1081.85 206 1074.81C206.892 1066.43 212.823 1060.1 216.849 1053.43C217.656 1057.94 211.834 1063.6 217.584 1064.19Z" fill="#AD1624"/>
<path d="M610.3 521.347C610.613 523.878 609.167 525.964 607.732 528.375L587.903 561.669L562.312 603.533L543.266 636.381L527.294 662.575C521.532 672.025 517.506 682.32 510.141 689.841C505.56 690.348 513.094 678.535 505.283 679.149C503.583 679.282 504.837 683.549 501.727 682.392C505.609 676.594 508.586 670.916 510.852 664.419C512.226 660.477 514.999 657.946 517.048 654.812L530.476 634.283L534.912 625.677C537.251 621.144 539.228 617.564 543.821 615.804C533.032 647.169 556.429 605.57 556.562 605.245C559.105 599.157 562.384 595.3 567.423 591.539C569.436 590.044 567.833 583.921 571.545 582.257C575.017 580.702 574.583 576.411 576.21 573.602C591.242 547.674 583.527 564.839 591.302 552.351C595.015 546.384 599.029 541.393 600.283 533.751C600.09 534.908 607.901 517.586 610.336 521.335L610.3 521.347ZM540.228 631.475C540.65 629.221 538.456 628.654 537.444 629.196C538.143 628.823 530.935 634.042 534.9 638.418C536.925 636.959 539.529 635.2 540.228 631.463V631.475ZM534.563 642.191C536.516 640.877 534.864 638.707 533.442 640.443C529.609 643.493 525.86 646.916 526.474 651.943C531.742 650.074 530.959 645.313 534.563 642.179V642.191ZM511.551 676.015C519.411 672.736 519.881 665.962 522.689 660.272C523.16 659.32 525.474 658.271 524.582 656.994C521.46 652.521 520.652 665.54 512.901 666.697C512.045 669.397 509.165 673.182 511.551 676.015Z" fill="#AD1624"/>
<path d="M223.346 1056.51C224.045 1054.6 225.142 1052.6 226.624 1051.95C229.313 1050.77 230.892 1053.27 232.603 1055.16C238.751 1055.83 257.182 1029.61 260.774 1024.07L277.783 997.84C280.145 994.199 281.459 989.92 285.003 987.642C284.859 990.414 282.436 992.174 281.013 994.802L275.504 1004.96C271.346 1012.64 265.596 1019.15 261.292 1026.83C258.074 1032.56 253.939 1037.06 249.986 1042.08C246.526 1046.45 244.212 1051.38 238.522 1053.66C236.376 1057.03 233.773 1061.76 229.168 1062.26C226.673 1062.52 226.468 1057.06 228.312 1055.74C226.022 1054.68 224.636 1055.74 223.358 1056.52L223.346 1056.51Z" fill="#AD1624"/>
<path d="M627.501 431C630.032 426.854 631.165 421.116 635.698 418.838C634.107 423.672 633.769 428.795 628.815 433.182L627.501 430.988V431Z" fill="#C21127"/>
<path d="M616.688 510.39C615.639 513.235 615.253 517.297 611.938 519.045C610.612 517.345 610.239 515.175 611.709 513.56C613.06 512.077 614.807 510.944 616.688 510.39Z" fill="#AD1624"/>
<path d="M590.615 513.5C581.683 522.673 588.614 521.443 579.224 525.904C584.058 514.982 591.049 505.64 597.655 494.659C597.269 498.806 594.352 501.687 591.917 505.701C593.111 506.508 594.521 505.785 594.666 506.593C594.919 507.955 594.099 510.257 592.532 510.739C591.761 510.98 591.013 510.824 590.362 510.8C589.301 510.763 591.134 512.957 590.615 513.488V513.5Z" fill="#AD1624"/>
<path d="M601.536 495.937C600.078 493.466 598.836 493.478 598.498 492.815C598.016 491.887 598.583 490.994 598.944 489.717C602.018 487.318 603.609 484.654 605.225 481.484C604.622 484.787 605.924 487.643 604.743 489.886L601.548 495.937H601.536Z" fill="#AD1624"/>
<path d="M600.909 347.368C599.884 350.092 597.052 353.13 595.207 350.574C594.062 348.983 599.342 341.968 601.644 344.825C602.042 345.319 601.403 346.054 600.909 347.368Z" fill="#AD1624"/>
<path d="M608.069 476.288C609.359 474.818 609.13 472.805 611.372 471.876C610.54 473.516 610.528 475.541 608.069 476.288Z" fill="#AD1624"/>
<path d="M545.834 612.911C546.167 612.911 546.436 612.641 546.436 612.309C546.436 611.976 546.167 611.706 545.834 611.706C545.501 611.706 545.231 611.976 545.231 612.309C545.231 612.641 545.501 612.911 545.834 612.911Z" fill="#AD1624"/>
<path d="M608.516 459.822C608.849 459.822 609.119 459.552 609.119 459.22C609.119 458.887 608.849 458.617 608.516 458.617C608.183 458.617 607.913 458.887 607.913 459.22C607.913 459.552 608.183 459.822 608.516 459.822Z" fill="#AD1624"/>
<path d="M612.132 470.671C612.465 470.671 612.735 470.401 612.735 470.068C612.735 469.735 612.465 469.466 612.132 469.466C611.799 469.466 611.529 469.735 611.529 470.068C611.529 470.401 611.799 470.671 612.132 470.671Z" fill="#AD1624"/>
<path d="M662.157 287.446C661.699 293.546 660.349 300.212 657.842 306.263C656.733 308.963 652.851 310.976 655.515 313.809C658.408 312.784 662.543 310.868 665.159 312.182C669.305 314.255 668.666 319.872 667.581 323.404L662.35 340.509C660.035 348.067 667.172 343.896 649.621 378.818C641.412 395.163 633.227 410.942 624.186 426.83C621.799 431.025 618.726 434.364 619.461 439.993C619.533 440.572 617.737 441.801 617.713 442.657C617.701 443.211 617.339 444.236 618.762 444.128C616.279 448.901 612.94 453.204 610.673 458.665C612.035 460.883 614.374 461.642 616.483 462.896C613.916 464.126 611.505 464.969 613.181 468.441C618.509 463.812 616.785 467.236 622.487 458.617C629.02 448.72 621.715 449.829 629.02 439.812L632.021 435.702L640.64 424.793C642.894 421.936 644.642 420.537 647.029 416.608L659.999 395.284C660.879 393.837 672.415 369.174 678.503 374.888C678.02 377.359 676.67 378.806 676.622 380.24C676.285 391.161 672.21 401.058 665.822 410.364C641.146 446.297 646.595 462.016 622.366 502.036C620.473 505.158 619.256 508.268 616.688 510.354C614.796 510.908 613.06 512.029 611.71 513.524C610.239 515.139 610.613 517.309 611.939 519.009C611.24 519.382 611.204 520.998 610.3 521.311C607.865 517.562 600.054 534.884 600.246 533.727C599.005 541.369 594.991 546.348 591.266 552.327C583.491 564.815 591.206 547.65 576.174 573.578C574.547 576.387 574.969 580.678 571.509 582.233C567.796 583.897 569.4 590.02 567.386 591.515C562.348 595.264 559.069 599.133 556.526 605.221C556.393 605.534 532.996 647.145 543.784 615.78C539.204 617.54 537.215 621.12 534.876 625.653L530.44 634.259L517.012 654.788C514.963 657.922 512.19 660.453 510.816 664.395C508.55 670.892 505.572 676.582 501.691 682.368C504.801 683.525 503.547 679.258 505.247 679.125C513.058 678.511 505.524 690.324 510.105 689.817C509.598 693.735 506.971 697.496 504.741 701.221L482.042 739.083L465.166 768.05L439.479 813.542L429.896 829.261L411.923 859.481C409.982 862.748 408.005 865.882 405.968 869.39L397.205 884.409C395.107 888.001 392.696 891.196 390.406 894.258L384.608 901.984L360.62 938.34C346.046 960.423 332.546 982.543 315.887 1002.91C315.826 1002.99 300.819 1017.43 300.493 1015.51C292.923 1023.02 296.636 1015.26 283.171 1026.82C280.688 1019.94 283.858 1014.11 287.728 1008.35C285.811 1006.78 283.533 1005.81 283.726 1004.14C284.811 994.537 287.728 998.25 287.234 991.391C288.632 989.197 289.464 986.039 289.548 982.784C287.137 984.52 286.848 986.412 284.955 987.618C281.411 989.896 280.097 994.175 277.735 997.816L260.726 1024.05C257.134 1029.58 238.703 1055.8 232.555 1055.13C230.844 1053.24 229.265 1050.75 226.577 1051.93C225.094 1052.58 223.997 1054.59 223.298 1056.48C222.201 1059.47 219.694 1062.15 217.536 1064.15C211.786 1063.57 217.608 1057.91 216.801 1053.4C220.224 1047.74 231.278 1022.23 232.905 1014.31C230.265 1014.33 230.47 1016.79 229.361 1017.91C227.565 1017.83 225.817 1018.3 223.262 1017.52C224.322 1014.47 224.744 1011.11 223.225 1008.41C220.754 1004.06 223.238 1000.27 223.057 996.2C222.659 987.509 221.478 985.689 228.71 977.504C231.712 974.117 232.857 968.753 234.906 964.606C236.027 962.316 233.17 960.062 235.051 958.121C236.268 958.615 237.196 959.977 238.161 959.628C242.729 958 240.909 950.165 243.742 946.633C247.961 941.378 248.19 935.242 249.359 929.094C249.865 926.43 255.832 921.765 251.107 918.318C247.852 919.222 244.574 924.056 243.73 927.407C243.091 929.962 239.523 931.77 237.799 933.398C235.545 932.843 231.35 929.372 232.001 926.322C234.978 912.182 239.74 906.3 244.923 893.799C245.273 892.968 247.503 893.004 246.804 891.907C246.526 891.485 246.647 890.581 246.249 890.147C244.007 887.688 247.43 886.302 247.696 884.638C248.31 880.745 250.565 879.78 252.553 877.201C258.026 870.113 266.838 848.15 270.876 842.364C274.914 836.578 279.591 832.009 278.988 823.945C278.88 822.462 281.568 820.353 280.387 818.243C278.639 815.133 281.448 813.795 282.641 811.674C283.352 810.42 281.761 807.961 283.364 807.202C284.22 806.792 286.643 806.563 287.27 805.623C289.476 802.284 290.44 797.751 293.321 794.677C304.785 782.466 300.095 777.801 309.413 765.494C311.86 762.251 312.897 760.479 311.607 756.381C319.298 754.115 314.778 748.799 322.336 741.819C322.203 740.168 321.022 739.397 321.323 738.372C324.192 744.303 334.113 720.652 332.244 723.557C335.306 718.832 350.097 703.499 345.697 699.389L352.507 692.747C361.657 683.814 360.584 675.871 361.078 674.87C365.225 666.384 364.465 664.889 370.396 659.091C379.569 650.147 370.444 656.873 377.52 644.035C380.943 643.204 382.33 641.01 384.246 638.599C390.213 631.077 383.439 635.091 388.321 625.315C395.77 610.428 411.947 582.113 420.18 567.66C426.882 555.895 432.234 549.241 437.056 538.38C437.948 536.379 439.31 535.306 440.817 534.233C447.832 529.194 445.108 522.504 450.255 522.806C450.87 522.842 451.822 524.493 452.702 524.288C455.282 523.674 457.186 518.502 454.836 516.694C454.113 516.14 452.57 516.718 451.846 516.477C451.425 516.345 460.574 500.493 462.261 497.697L470.904 483.437L479.077 471.816C473.11 480.29 490.866 446.635 493.795 443.127C497.677 438.474 499.184 428.963 505.066 426.251C512.733 422.719 514.782 416.138 518.82 408.881L523.834 399.876L531.887 393.439C530.766 388.69 532.526 384.495 536.901 382.796C540.409 381.445 537.383 377.202 538.649 375.587C542.109 371.199 544.688 365.787 548.401 361.737L565.229 343.438C568.363 340.039 572.413 336.784 575.692 333.638C577.596 331.806 582.442 333.24 581.43 328.142C580.224 322.018 585.396 316.003 591.857 316.172C592.676 314.267 591.881 312.64 593.183 311.266C596.377 313.194 592.351 315.448 592.58 316.883C593.46 322.38 589.132 325.791 588.578 330.179C587.855 335.953 587.746 340.666 584.552 346.114C582.707 349.261 583.178 354.034 579.055 355.649C589.06 353.106 575.535 369.5 576.5 371.85C587.939 364.172 584.275 348.574 591.073 348.935C591.025 347.971 590.663 346.802 590.868 345.488C593.894 340.34 600.729 341.22 604.996 338.93C605.671 336.121 609.239 332.409 610.239 329.938C612.192 325.128 613.663 321.331 618.93 318.474C621.824 316.907 624.162 313.375 627.212 311.422C628.996 310.277 628.309 306.589 630.37 305.07C628.007 304.142 626.428 304.961 624.813 303.732L633.625 296.198C634.902 295.113 636.952 294.92 637.747 293.594C638.446 292.425 636.747 290.074 637.313 288.977L647.354 288.278C651.32 288.001 663.399 268.594 666.316 270.703C669.233 272.813 662.989 276.019 662.121 287.374L662.157 287.446ZM600.909 347.368C601.404 346.042 602.042 345.319 601.645 344.825C599.342 341.968 594.063 348.983 595.208 350.575C597.052 353.142 599.873 350.104 600.909 347.368ZM609.118 459.22C609.118 458.882 608.853 458.617 608.516 458.617C608.178 458.617 607.913 458.882 607.913 459.22C607.913 459.557 608.178 459.822 608.516 459.822C608.853 459.822 609.118 459.557 609.118 459.22ZM612.735 470.068C612.735 469.731 612.469 469.466 612.132 469.466C611.794 469.466 611.529 469.731 611.529 470.068C611.529 470.406 611.794 470.671 612.132 470.671C612.469 470.671 612.735 470.406 612.735 470.068ZM608.07 476.288C610.517 475.553 610.541 473.516 611.372 471.876C609.13 472.793 609.371 474.818 608.07 476.288ZM601.536 495.937L604.731 489.886C605.912 487.643 604.61 484.787 605.213 481.484C603.61 484.654 602.006 487.318 598.932 489.717C598.571 490.995 598.004 491.899 598.486 492.815C598.836 493.478 600.066 493.466 601.524 495.937H601.536ZM590.615 513.5C591.133 512.969 589.301 510.776 590.362 510.812C591.013 510.836 591.76 510.98 592.532 510.751C594.099 510.269 594.918 507.967 594.665 506.605C594.521 505.797 593.098 506.52 591.917 505.713C594.34 501.699 597.257 498.818 597.655 494.671C591.061 505.653 584.058 514.995 579.224 525.916C588.614 521.456 581.683 522.685 590.615 513.512V513.5ZM546.436 612.309C546.436 611.971 546.171 611.706 545.834 611.706C545.496 611.706 545.231 611.971 545.231 612.309C545.231 612.646 545.496 612.911 545.834 612.911C546.171 612.911 546.436 612.646 546.436 612.309Z" fill="#C8102E"/>
<path d="M511.551 676.015C509.164 673.17 512.045 669.385 512.901 666.697C520.664 665.54 521.46 652.522 524.582 656.994C525.474 658.271 523.159 659.32 522.689 660.272C519.881 665.962 519.41 672.737 511.551 676.015Z" fill="#C21127"/>
<path d="M534.563 642.191C530.959 645.313 531.742 650.087 526.475 651.955C525.86 646.928 529.609 643.505 533.442 640.455C534.865 638.719 536.516 640.877 534.563 642.203V642.191Z" fill="#C21127"/>
<path d="M540.228 631.475C539.517 635.2 536.925 636.959 534.9 638.43C530.935 634.054 538.143 628.835 537.444 629.209C538.456 628.666 540.662 629.221 540.228 631.487V631.475Z" fill="#C21127"/>
<path d="M278.832 1030.12C279.571 1030.12 280.17 1029.52 280.17 1028.78C280.17 1028.04 279.571 1027.45 278.832 1027.45C278.093 1027.45 277.494 1028.04 277.494 1028.78C277.494 1029.52 278.093 1030.12 278.832 1030.12Z" fill="#C21127"/>
<path d="M378.882 640.636C379.123 641.456 379.087 641.685 379.015 641.588C378.943 641.492 378.81 641.082 378.882 640.636Z" fill="#C21127"/>
</g>
<defs>
<clipPath id="clip0_5_2">
<rect width="1340" height="1340" fill="white"/>
</clipPath>
</defs>
</svg>
