<svg width="2681" height="783" viewBox="0 0 2681 783" fill="none" xmlns="http://www.w3.org/2000/svg">
<g clip-path="url(#clip0_2_4)">
<g filter="url(#filter0_d_2_4)">
<path d="M888.949 246L957.858 46.2451H1005.05L1073.96 246H1034.27L1020.06 203.1H942.843L928.364 246H888.949ZM953.3 170.924H1009.61L976.359 71.4491H986.548L953.3 170.924ZM1104.89 246V131.51H1079.15V100.139H1104.89V95.3124C1104.89 84.2298 1107.13 74.8454 1111.6 67.159C1116.25 59.294 1122.68 53.3058 1130.9 49.1945C1139.13 45.0832 1148.87 43.0276 1160.13 43.0276C1162.27 43.0276 1164.6 43.2063 1167.1 43.5638C1169.78 43.7426 1172.02 44.0107 1173.8 44.3682V74.6666C1172.02 74.3091 1170.32 74.1304 1168.71 74.1304C1167.28 73.9516 1165.94 73.8622 1164.69 73.8622C1156.82 73.8622 1150.74 75.6498 1146.45 79.2248C1142.16 82.6211 1140.02 87.9836 1140.02 95.3124V100.139H1172.46V131.51H1140.02V246H1104.89ZM1196.41 246V100.139H1229.39V132.582L1226.7 127.756C1230.1 116.852 1235.37 109.255 1242.52 104.965C1249.85 100.675 1258.61 98.53 1268.8 98.53H1277.38V129.633H1264.78C1254.77 129.633 1246.72 132.761 1240.65 139.017C1234.57 145.095 1231.53 153.675 1231.53 164.757V246H1196.41ZM1296.69 246V100.139H1331.82V246H1296.69ZM1296.69 83.7829V46.2451H1331.82V83.7829H1296.69ZM1434.5 249.218C1420.02 249.218 1406.97 245.911 1395.35 239.297C1383.91 232.504 1374.88 223.388 1368.27 211.948C1361.66 200.329 1358.35 187.28 1358.35 172.801C1358.35 158.322 1361.66 145.363 1368.27 133.923C1374.88 122.483 1383.91 113.456 1395.35 106.842C1406.97 100.228 1420.02 96.9212 1434.5 96.9212C1444.86 96.9212 1454.52 98.7981 1463.45 102.552C1472.39 106.127 1480.08 111.132 1486.51 117.567C1493.13 123.823 1497.86 131.331 1500.72 140.09L1469.89 153.496C1467.21 146.167 1462.65 140.268 1456.21 135.8C1449.96 131.331 1442.72 129.096 1434.5 129.096C1426.81 129.096 1419.93 130.973 1413.85 134.727C1407.95 138.481 1403.3 143.665 1399.91 150.279C1396.51 156.892 1394.81 164.489 1394.81 173.069C1394.81 181.649 1396.51 189.246 1399.91 195.86C1403.3 202.474 1407.95 207.658 1413.85 211.412C1419.93 215.165 1426.81 217.042 1434.5 217.042C1442.9 217.042 1450.23 214.808 1456.48 210.339C1462.74 205.87 1467.21 199.882 1469.89 192.375L1500.72 206.317C1497.86 214.54 1493.22 221.958 1486.78 228.572C1480.35 235.007 1472.66 240.101 1463.72 243.855C1454.78 247.43 1445.04 249.218 1434.5 249.218ZM1571.09 249.218C1560.9 249.218 1552.06 247.519 1544.55 244.123C1537.04 240.727 1531.23 235.901 1527.12 229.644C1523.01 223.209 1520.95 215.791 1520.95 207.39C1520.95 199.346 1522.74 192.196 1526.32 185.939C1529.89 179.504 1535.43 174.142 1542.94 169.852C1550.45 165.562 1559.92 162.523 1571.36 160.735L1619.09 152.96V179.773L1578.06 186.744C1571.09 187.995 1565.91 190.23 1562.51 193.447C1559.12 196.665 1557.42 200.865 1557.42 206.049C1557.42 211.054 1559.3 215.076 1563.05 218.115C1566.98 220.975 1571.81 222.405 1577.53 222.405C1584.86 222.405 1591.29 220.885 1596.83 217.847C1602.55 214.629 1606.93 210.25 1609.97 204.708C1613.19 199.167 1614.8 193.09 1614.8 186.476V148.938C1614.8 142.682 1612.29 137.498 1607.29 133.387C1602.46 129.096 1596.03 126.951 1587.98 126.951C1580.48 126.951 1573.77 129.007 1567.88 133.118C1562.16 137.051 1557.95 142.324 1555.27 148.938L1526.58 134.995C1529.44 127.309 1533.91 120.695 1539.99 115.154C1546.25 109.434 1553.57 104.965 1561.98 101.747C1570.38 98.5299 1579.49 96.9212 1589.33 96.9212C1601.3 96.9212 1611.85 99.1556 1620.96 103.624C1630.08 107.914 1637.14 113.992 1642.15 121.857C1647.33 129.543 1649.92 138.57 1649.92 148.938V246H1616.67V221.064L1624.18 220.528C1620.43 226.784 1615.96 232.057 1610.78 236.347C1605.59 240.459 1599.69 243.676 1593.08 246C1586.47 248.145 1579.14 249.218 1571.09 249.218ZM1682.39 246V100.139H1715.37V128.828L1712.68 123.734C1716.08 114.975 1721.62 108.361 1729.31 103.892C1737.17 99.245 1746.29 96.9212 1756.66 96.9212C1767.38 96.9212 1776.86 99.245 1785.08 103.892C1793.48 108.54 1800 115.064 1804.65 123.466C1809.3 131.688 1811.62 141.252 1811.62 152.155V246H1776.5V160.467C1776.5 154.032 1775.25 148.491 1772.75 143.843C1770.24 139.196 1766.76 135.621 1762.29 133.118C1758 130.437 1752.9 129.096 1747.01 129.096C1741.29 129.096 1736.19 130.437 1731.72 133.118C1727.25 135.621 1723.77 139.196 1721.26 143.843C1718.76 148.491 1717.51 154.032 1717.51 160.467V246H1682.39Z" fill="white"/>
<path d="M890.305 493.015V293.26H955.46C976.553 293.26 994.875 297.55 1010.43 306.13C1026.16 314.532 1038.31 326.24 1046.89 341.255C1055.47 356.092 1059.76 373.341 1059.76 393.004C1059.76 412.488 1055.47 429.827 1046.89 445.02C1038.31 460.036 1026.16 471.833 1010.43 480.413C994.875 488.815 976.553 493.015 955.46 493.015H890.305ZM926.77 460.84H956.265C969.85 460.84 981.558 458.069 991.389 452.528C1001.4 446.808 1009.17 438.943 1014.72 428.933C1020.26 418.744 1023.03 406.768 1023.03 393.004C1023.03 379.061 1020.26 367.085 1014.72 357.075C1009.17 347.065 1001.4 339.289 991.389 333.748C981.558 328.206 969.85 325.436 956.265 325.436H926.77V460.84ZM1155.01 496.233C1139.99 496.233 1126.86 492.837 1115.59 486.044C1104.33 479.251 1095.57 470.046 1089.32 458.427C1083.06 446.808 1079.93 433.938 1079.93 419.816C1079.93 405.159 1083.06 392.199 1089.32 380.938C1095.75 369.498 1104.42 360.471 1115.33 353.857C1126.41 347.243 1138.74 343.936 1152.33 343.936C1163.77 343.936 1173.78 345.813 1182.36 349.567C1191.12 353.321 1198.54 358.505 1204.61 365.119C1210.69 371.732 1215.34 379.329 1218.56 387.909C1221.77 396.311 1223.38 405.427 1223.38 415.258C1223.38 417.761 1223.2 420.353 1222.85 423.034C1222.67 425.715 1222.22 428.039 1221.51 430.005H1108.89V403.193H1201.66L1185.04 415.795C1186.65 407.572 1186.2 400.243 1183.7 393.808C1181.38 387.373 1177.44 382.279 1171.9 378.525C1166.54 374.771 1160.01 372.894 1152.33 372.894C1145 372.894 1138.48 374.771 1132.76 378.525C1127.04 382.1 1122.66 387.462 1119.62 394.613C1116.76 401.584 1115.68 410.075 1116.4 420.085C1115.68 429.022 1116.85 436.977 1119.89 443.948C1123.1 450.741 1127.75 456.014 1133.83 459.767C1140.08 463.521 1147.23 465.398 1155.28 465.398C1163.32 465.398 1170.11 463.7 1175.66 460.304C1181.38 456.907 1185.84 452.349 1189.06 446.629L1217.48 460.572C1214.62 467.543 1210.15 473.71 1204.08 479.073C1198 484.435 1190.76 488.636 1182.36 491.675C1174.14 494.713 1165.02 496.233 1155.01 496.233ZM1291.36 493.015L1233.98 347.154H1272.33L1313.89 461.912H1299.67L1341.5 347.154H1379.84L1322.47 493.015H1291.36ZM1465.82 496.233C1450.8 496.233 1437.66 492.837 1426.4 486.044C1415.14 479.251 1406.38 470.046 1400.13 458.427C1393.87 446.808 1390.74 433.938 1390.74 419.816C1390.74 405.159 1393.87 392.199 1400.13 380.938C1406.56 369.498 1415.23 360.471 1426.13 353.857C1437.22 347.243 1449.55 343.936 1463.14 343.936C1474.58 343.936 1484.59 345.813 1493.17 349.567C1501.93 353.321 1509.34 358.505 1515.42 365.119C1521.5 371.732 1526.15 379.329 1529.36 387.909C1532.58 396.311 1534.19 405.427 1534.19 415.258C1534.19 417.761 1534.01 420.353 1533.65 423.034C1533.47 425.715 1533.03 428.039 1532.31 430.005H1419.7V403.193H1512.47L1495.85 415.795C1497.46 407.572 1497.01 400.243 1494.51 393.808C1492.18 387.373 1488.25 382.279 1482.71 378.525C1477.35 374.771 1470.82 372.894 1463.14 372.894C1455.81 372.894 1449.28 374.771 1443.56 378.525C1437.84 382.1 1433.46 387.462 1430.42 394.613C1427.56 401.584 1426.49 410.075 1427.21 420.085C1426.49 429.022 1427.65 436.977 1430.69 443.948C1433.91 450.741 1438.56 456.014 1444.64 459.767C1450.89 463.521 1458.04 465.398 1466.09 465.398C1474.13 465.398 1480.92 463.7 1486.46 460.304C1492.18 456.907 1496.65 452.349 1499.87 446.629L1528.29 460.572C1525.43 467.543 1520.96 473.71 1514.88 479.073C1508.81 484.435 1501.57 488.636 1493.17 491.675C1484.94 494.713 1475.83 496.233 1465.82 496.233ZM1560.82 493.015V290.043H1595.94V493.015H1560.82ZM1699.69 496.233C1685.39 496.233 1672.34 492.926 1660.55 486.312C1648.93 479.698 1639.63 470.671 1632.66 459.231C1625.87 447.791 1622.47 434.742 1622.47 420.085C1622.47 405.427 1625.87 392.378 1632.66 380.938C1639.63 369.498 1648.93 360.471 1660.55 353.857C1672.17 347.243 1685.21 343.936 1699.69 343.936C1713.99 343.936 1726.95 347.243 1738.57 353.857C1750.19 360.471 1759.4 369.498 1766.19 380.938C1773.16 392.199 1776.65 405.248 1776.65 420.085C1776.65 434.742 1773.16 447.791 1766.19 459.231C1759.22 470.671 1749.92 479.698 1738.3 486.312C1726.69 492.926 1713.82 496.233 1699.69 496.233ZM1699.69 464.058C1707.56 464.058 1714.44 462.181 1720.34 458.427C1726.42 454.673 1731.15 449.489 1734.55 442.875C1738.13 436.083 1739.91 428.486 1739.91 420.085C1739.91 411.505 1738.13 403.997 1734.55 397.562C1731.15 390.948 1726.42 385.764 1720.34 382.011C1714.44 378.078 1707.56 376.112 1699.69 376.112C1691.65 376.112 1684.59 378.078 1678.51 382.011C1672.43 385.764 1667.61 390.948 1664.03 397.562C1660.64 403.997 1658.94 411.505 1658.94 420.085C1658.94 428.486 1660.64 436.083 1664.03 442.875C1667.61 449.489 1672.43 454.673 1678.51 458.427C1684.59 462.181 1691.65 464.058 1699.69 464.058ZM1803.28 546.641V347.154H1836.26V376.112L1833.05 368.872C1838.05 361.007 1844.84 354.93 1853.42 350.64C1862 346.171 1871.92 343.936 1883.18 343.936C1896.95 343.936 1909.37 347.333 1920.45 354.125C1931.54 360.918 1940.3 370.034 1946.73 381.474C1953.34 392.914 1956.65 405.784 1956.65 420.085C1956.65 434.206 1953.43 447.076 1947 458.695C1940.56 470.314 1931.81 479.52 1920.72 486.312C1909.64 492.926 1897.04 496.233 1882.92 496.233C1872.37 496.233 1862.63 494.177 1853.69 490.066C1844.93 485.776 1837.96 479.698 1832.78 471.833L1838.41 464.862V546.641H1803.28ZM1878.89 464.058C1886.94 464.058 1894.09 462.181 1900.35 458.427C1906.6 454.673 1911.43 449.489 1914.82 442.875C1918.4 436.262 1920.19 428.665 1920.19 420.085C1920.19 411.505 1918.4 403.997 1914.82 397.562C1911.43 390.948 1906.6 385.764 1900.35 382.011C1894.09 378.078 1886.94 376.112 1878.89 376.112C1871.21 376.112 1864.24 377.989 1857.98 381.742C1851.9 385.496 1847.08 390.769 1843.5 397.562C1840.11 404.176 1838.41 411.683 1838.41 420.085C1838.41 428.665 1840.11 436.262 1843.5 442.875C1847.08 449.489 1851.9 454.673 1857.98 458.427C1864.24 462.181 1871.21 464.058 1878.89 464.058ZM1983.43 493.015V347.154H2016.41V380.938L2012.66 375.307C2015.34 364.761 2020.7 356.896 2028.74 351.712C2036.79 346.528 2046.26 343.936 2057.17 343.936C2069.14 343.936 2079.69 347.065 2088.81 353.321C2097.92 359.577 2103.82 367.8 2106.5 377.989L2096.58 378.793C2101.05 367.174 2107.75 358.505 2116.69 352.785C2125.63 346.886 2135.91 343.936 2147.53 343.936C2157.89 343.936 2167.1 346.26 2175.14 350.908C2183.36 355.555 2189.8 362.08 2194.45 370.481C2199.09 378.704 2201.42 388.267 2201.42 399.171V493.015H2166.29V407.483C2166.29 401.048 2165.13 395.506 2162.81 390.859C2160.48 386.211 2157.27 382.636 2153.16 380.134C2149.04 377.452 2144.04 376.112 2138.14 376.112C2132.6 376.112 2127.68 377.452 2123.39 380.134C2119.1 382.636 2115.8 386.211 2113.47 390.859C2111.15 395.506 2109.99 401.048 2109.99 407.483V493.015H2074.86V407.483C2074.86 401.048 2073.7 395.506 2071.38 390.859C2069.05 386.211 2065.75 382.636 2061.46 380.134C2057.34 377.452 2052.43 376.112 2046.71 376.112C2041.17 376.112 2036.25 377.452 2031.96 380.134C2027.67 382.636 2024.37 386.211 2022.04 390.859C2019.72 395.506 2018.56 401.048 2018.56 407.483V493.015H1983.43ZM2300.31 496.233C2285.3 496.233 2272.16 492.837 2260.9 486.044C2249.64 479.251 2240.88 470.046 2234.62 458.427C2228.36 446.808 2225.24 433.938 2225.24 419.816C2225.24 405.159 2228.36 392.199 2234.62 380.938C2241.06 369.498 2249.72 360.471 2260.63 353.857C2271.71 347.243 2284.05 343.936 2297.63 343.936C2309.07 343.936 2319.08 345.813 2327.66 349.567C2336.42 353.321 2343.84 358.505 2349.91 365.119C2355.99 371.732 2360.64 379.329 2363.86 387.909C2367.08 396.311 2368.68 405.427 2368.68 415.258C2368.68 417.761 2368.51 420.353 2368.15 423.034C2367.97 425.715 2367.52 428.039 2366.81 430.005H2254.19V403.193H2346.97L2330.34 415.795C2331.95 407.572 2331.5 400.243 2329 393.808C2326.68 387.373 2322.74 382.279 2317.2 378.525C2311.84 374.771 2305.32 372.894 2297.63 372.894C2290.3 372.894 2283.78 374.771 2278.06 378.525C2272.34 382.1 2267.96 387.462 2264.92 394.613C2262.06 401.584 2260.99 410.075 2261.7 420.085C2260.99 429.022 2262.15 436.977 2265.19 443.948C2268.4 450.741 2273.05 456.014 2279.13 459.767C2285.39 463.521 2292.54 465.398 2300.58 465.398C2308.62 465.398 2315.42 463.7 2320.96 460.304C2326.68 456.907 2331.15 452.349 2334.36 446.629L2362.79 460.572C2359.93 467.543 2355.46 473.71 2349.38 479.073C2343.3 484.435 2336.06 488.636 2327.66 491.675C2319.44 494.713 2310.32 496.233 2300.31 496.233ZM2395.31 493.015V347.154H2428.29V375.844L2425.61 370.749C2429 361.99 2434.55 355.377 2442.23 350.908C2450.1 346.26 2459.21 343.936 2469.58 343.936C2480.31 343.936 2489.78 346.26 2498 350.908C2506.4 355.555 2512.93 362.08 2517.58 370.481C2522.22 378.704 2524.55 388.267 2524.55 399.171V493.015H2489.42V407.483C2489.42 401.048 2488.17 395.506 2485.67 390.859C2483.17 386.211 2479.68 382.636 2475.21 380.134C2470.92 377.452 2465.83 376.112 2459.93 376.112C2454.21 376.112 2449.11 377.452 2444.65 380.134C2440.18 382.636 2436.69 386.211 2434.19 390.859C2431.69 395.506 2430.43 401.048 2430.43 407.483V493.015H2395.31ZM2620.74 494.624C2604.3 494.624 2591.52 490.155 2582.4 481.218C2573.46 472.101 2569 459.321 2569 442.875V378.525H2543.79V347.154H2546.47C2553.62 347.154 2559.16 345.277 2563.1 341.523C2567.03 337.77 2569 332.318 2569 325.168V313.906H2604.12V347.154H2637.64V378.525H2604.12V440.999C2604.12 445.825 2604.93 449.936 2606.53 453.332C2608.32 456.729 2611 459.321 2614.58 461.108C2618.33 462.896 2623.07 463.789 2628.79 463.789C2630.04 463.789 2631.47 463.7 2633.08 463.521C2634.87 463.342 2636.56 463.164 2638.17 462.985V493.015C2635.67 493.373 2632.81 493.73 2629.59 494.088C2626.38 494.445 2623.43 494.624 2620.74 494.624Z" fill="white"/>
<path d="M890.305 753.674V553.919H926.77V753.674H890.305ZM962.243 753.674V607.813H995.223V636.503L992.541 631.408C995.938 622.649 1001.48 616.036 1009.17 611.567C1017.03 606.919 1026.15 604.595 1036.51 604.595C1047.24 604.595 1056.71 606.919 1064.94 611.567C1073.34 616.214 1079.86 622.739 1084.51 631.14C1089.16 639.363 1091.48 648.926 1091.48 659.83V753.674H1056.36V668.142C1056.36 661.707 1055.1 656.165 1052.6 651.518C1050.1 646.87 1046.61 643.295 1042.14 640.793C1037.85 638.111 1032.76 636.771 1026.86 636.771C1021.14 636.771 1016.05 638.111 1011.58 640.793C1007.11 643.295 1003.62 646.87 1001.12 651.518C998.619 656.165 997.368 661.707 997.368 668.142V753.674H962.243ZM1176.68 756.892C1161.13 756.892 1147.55 753.227 1135.93 745.899C1124.49 738.391 1116.62 728.292 1112.33 715.6L1138.61 702.998C1142.36 711.221 1147.55 717.656 1154.16 722.303C1160.95 726.951 1168.46 729.275 1176.68 729.275C1183.12 729.275 1188.21 727.845 1191.97 724.985C1195.72 722.125 1197.6 718.371 1197.6 713.723C1197.6 710.863 1196.79 708.54 1195.18 706.752C1193.75 704.786 1191.7 703.177 1189.02 701.926C1186.52 700.496 1183.74 699.334 1180.71 698.44L1156.84 691.737C1144.51 688.162 1135.12 682.71 1128.69 675.381C1122.43 668.052 1119.3 659.383 1119.3 649.373C1119.3 640.435 1121.54 632.66 1126.01 626.046C1130.66 619.253 1137 613.98 1145.05 610.226C1153.27 606.472 1162.65 604.595 1173.2 604.595C1186.96 604.595 1199.12 607.902 1209.66 614.516C1220.21 621.13 1227.72 630.425 1232.19 642.401L1205.37 655.003C1202.87 648.39 1198.67 643.116 1192.77 639.184C1186.87 635.251 1180.26 633.285 1172.93 633.285C1167.03 633.285 1162.38 634.626 1158.99 637.307C1155.59 639.988 1153.89 643.474 1153.89 647.764C1153.89 650.445 1154.61 652.769 1156.04 654.735C1157.47 656.702 1159.43 658.31 1161.94 659.562C1164.62 660.813 1167.66 661.975 1171.05 663.047L1194.38 670.019C1206.36 673.594 1215.56 678.956 1222 686.106C1228.61 693.256 1231.92 702.015 1231.92 712.383C1231.92 721.142 1229.59 728.917 1224.95 735.71C1220.3 742.324 1213.86 747.507 1205.64 751.261C1197.42 755.015 1187.77 756.892 1176.68 756.892ZM1325.41 755.283C1308.96 755.283 1296.18 750.814 1287.06 741.877C1278.13 732.76 1273.66 719.98 1273.66 703.535V639.184H1248.45V607.813H1251.14C1258.29 607.813 1263.83 605.936 1267.76 602.182C1271.69 598.429 1273.66 592.977 1273.66 585.827V574.565H1308.78V607.813H1342.3V639.184H1308.78V701.658C1308.78 706.484 1309.59 710.595 1311.2 713.991C1312.98 717.388 1315.66 719.98 1319.24 721.767C1322.99 723.555 1327.73 724.448 1333.45 724.448C1334.7 724.448 1336.13 724.359 1337.74 724.18C1339.53 724.002 1341.23 723.823 1342.83 723.644V753.674C1340.33 754.032 1337.47 754.389 1334.25 754.747C1331.04 755.104 1328.09 755.283 1325.41 755.283ZM1369.67 753.674V607.813H1404.8V753.674H1369.67ZM1369.67 591.457V553.919H1404.8V591.457H1369.67ZM1503.72 755.283C1487.28 755.283 1474.5 750.814 1465.38 741.877C1456.44 732.76 1451.97 719.98 1451.97 703.535V639.184H1426.77V607.813H1429.45C1436.6 607.813 1442.14 605.936 1446.07 602.182C1450.01 598.429 1451.97 592.977 1451.97 585.827V574.565H1487.1V607.813H1520.61V639.184H1487.1V701.658C1487.1 706.484 1487.9 710.595 1489.51 713.991C1491.3 717.388 1493.98 719.98 1497.55 721.767C1501.31 723.555 1506.05 724.448 1511.77 724.448C1513.02 724.448 1514.45 724.359 1516.06 724.18C1517.84 724.002 1519.54 723.823 1521.15 723.644V753.674C1518.65 754.032 1515.79 754.389 1512.57 754.747C1509.35 755.104 1506.4 755.283 1503.72 755.283ZM1600 756.892C1588.74 756.892 1578.91 754.389 1570.51 749.384C1562.29 744.379 1555.94 737.408 1551.47 728.47C1547.18 719.533 1545.04 709.076 1545.04 697.099V607.813H1580.16V694.15C1580.16 700.228 1581.32 705.59 1583.65 710.238C1586.15 714.706 1589.64 718.282 1594.1 720.963C1598.75 723.465 1603.94 724.717 1609.66 724.717C1615.38 724.717 1620.47 723.465 1624.94 720.963C1629.41 718.282 1632.89 714.617 1635.4 709.97C1637.9 705.322 1639.15 699.781 1639.15 693.346V607.813H1674.27V753.674H1641.03V724.985L1643.98 730.079C1640.58 739.017 1634.95 745.72 1627.08 750.189C1619.4 754.657 1610.37 756.892 1600 756.892ZM1773.42 755.283C1756.98 755.283 1744.19 750.814 1735.08 741.877C1726.14 732.76 1721.67 719.98 1721.67 703.535V639.184H1696.47V607.813H1699.15C1706.3 607.813 1711.84 605.936 1715.77 602.182C1719.71 598.429 1721.67 592.977 1721.67 585.827V574.565H1756.8V607.813H1790.31V639.184H1756.8V701.658C1756.8 706.484 1757.6 710.595 1759.21 713.991C1761 717.388 1763.68 719.98 1767.25 721.767C1771.01 723.555 1775.74 724.448 1781.46 724.448C1782.72 724.448 1784.15 724.359 1785.75 724.18C1787.54 724.002 1789.24 723.823 1790.85 723.644V753.674C1788.35 754.032 1785.49 754.389 1782.27 754.747C1779.05 755.104 1776.1 755.283 1773.42 755.283ZM1885.55 756.892C1870.54 756.892 1857.4 753.496 1846.14 746.703C1834.88 739.91 1826.12 730.705 1819.86 719.086C1813.6 707.467 1810.48 694.597 1810.48 680.476C1810.48 665.818 1813.6 652.858 1819.86 641.597C1826.3 630.157 1834.97 621.13 1845.87 614.516C1856.95 607.902 1869.29 604.595 1882.87 604.595C1894.31 604.595 1904.32 606.472 1912.9 610.226C1921.66 613.98 1929.08 619.164 1935.16 625.778C1941.23 632.391 1945.88 639.988 1949.1 648.568C1952.32 656.97 1953.92 666.086 1953.92 675.917C1953.92 678.42 1953.75 681.012 1953.39 683.693C1953.21 686.374 1952.76 688.698 1952.05 690.664H1839.43V663.852H1932.21L1915.58 676.454C1917.19 668.231 1916.74 660.902 1914.24 654.467C1911.92 648.032 1907.99 642.938 1902.44 639.184C1897.08 635.43 1890.56 633.553 1882.87 633.553C1875.54 633.553 1869.02 635.43 1863.3 639.184C1857.58 642.759 1853.2 648.122 1850.16 655.272C1847.3 662.243 1846.23 670.734 1846.94 680.744C1846.23 689.681 1847.39 697.636 1850.43 704.607C1853.64 711.4 1858.29 716.673 1864.37 720.427C1870.63 724.18 1877.78 726.057 1885.82 726.057C1893.86 726.057 1900.66 724.359 1906.2 720.963C1911.92 717.566 1916.39 713.008 1919.6 707.288L1948.03 721.231C1945.17 728.202 1940.7 734.369 1934.62 739.732C1928.54 745.094 1921.3 749.295 1912.9 752.334C1904.68 755.372 1895.56 756.892 1885.55 756.892Z" fill="white"/>
</g>
<path d="M219.55 641.06C221.31 633.83 224.46 626.95 227.42 620.12C227.64 619.86 228.44 619.52 228.42 619.12C228.34 617.88 229.38 617.08 229.75 616.04L228.41 629.98C227.95 634.78 229.76 639.97 226.17 644.29C223.59 643.69 221.59 642.04 219.54 641.06H219.55Z" fill="#10100F"/>
<path d="M225.42 671.11H224.42C224.54 670.37 224.01 669.74 224.42 671.11C224.4 672.01 223.7 672.56 223.22 673.22C222.01 672.41 220.1 671.68 219.11 672.33C217.78 673.21 217.51 676.03 219.16 675.93C220.17 675.87 220.96 673.94 221.43 674.99C220.09 677.28 216.59 679.95 213.95 678.85L211.79 673.9C208.27 665.83 216.28 648.78 218.42 642.1C220.4 643.05 219.23 645.9 219.2 648.47C220.73 649.59 222.65 649.08 224.48 649.83C227.63 656.15 222.54 660.82 229.51 662.61L225.42 671.1V671.11Z" fill="#10100F"/>
<path d="M222.42 703.11C215.47 707.39 211.13 718.66 204.78 722.04C203.99 720.36 204.42 718.1 205.44 716.07L213.81 699.52C214.79 697.59 215.93 695.88 217.56 695.03C220.1 696.33 220.6 698.97 220.69 701.87C222.24 701.63 222.91 701.03 223.9 701.12C224.72 701.19 224.17 702.29 223.72 702.84C223.46 703.16 222.7 702.93 222.41 703.11H222.42Z" fill="#10100F"/>
<path d="M549.19 201.87C548.77 201.82 548.32 201.91 548.11 201.68C547.71 201.23 547.5 200.04 547.79 199.26L550.15 192.84C550.35 192.3 549.87 191.93 549.42 192.12L563.22 170.9C564.31 169.23 563.97 166.49 566.66 166.19L554.27 192.96C552.71 196.32 551.2 199.2 549.2 201.88L549.19 201.87Z" fill="#1D1D1B"/>
<path d="M267.42 667.11C264.64 668.19 263.91 671.83 260.31 672.33C262.75 667.23 266.14 663.3 267.89 658.65C270.03 659.05 272.82 658.65 274.7 659.52C275.19 660.66 274.39 663.26 273.48 663.87C272.57 664.48 270.48 663.37 269.27 663.57C267.93 663.79 268.06 666.23 267.43 667.11H267.42Z" fill="#10100F"/>
<path d="M581.1 71.0999C580.98 71.6199 580.8 72.7099 580.91 73.2299C579.93 72.8499 579.81 73.5299 579.6 73.9799C579.36 74.4999 579.61 76.5599 578.96 76.8099C575.96 77.9699 576.06 75.2299 576.85 73.0099C577.43 71.3799 579.15 70.5999 581.08 71.0999H581.1Z" fill="#1D1D1B"/>
<path d="M585.33 101.12L581.64 111.2C583.06 118.4 580.8 123.99 577.66 130.24L567.58 150.31C560.12 165.16 556.34 174.23 546.68 188.31C548.89 194.27 530.38 212.24 539.58 208.12L542.97 213.84C544.01 210.65 545.81 211.89 544.92 214.08C545.1 214.95 545.82 214.64 544.89 216.61C548.23 211.95 548.79 210.5 549.29 207.43C549.99 203.18 558.09 192.32 558.59 190.96C563.09 190.4 557.05 200.38 565.6 203.05C566.04 205.76 561.9 212.76 564.43 212.13C561.45 219.71 558.65 227.67 554.2 235.04C552.35 238.11 550.7 240.68 549.21 244.1C546.47 250.38 542.56 255.95 539.13 262.03L523.32 290.03L517.03 298.91C516.21 300.07 496.55 334.41 495.43 336.12C494.43 335.8 492.92 334.07 491.39 334.64C484.68 337.12 485.91 344.3 480.02 346.76C479.56 351.28 476.76 355.15 474.35 358.95C471.94 362.75 470.64 366.27 466.29 368.11C464 369.08 464.01 370.75 463.6 372.74C463.25 374.45 460.89 375.72 462.22 378.16C454.89 384.93 461.56 386.88 460.3 390.2C459.84 391.43 458.36 392.06 457.75 393.4L452.4 405.06C452.15 405.61 451.42 405.98 451.42 406.58C451.42 406.93 451.97 407.26 452.43 407.12C448.17 415.48 440.86 428.72 435.25 436.9C436.41 435.2 425.31 454.24 425.07 454.67L421.43 461.08L393.7 509.24L384.86 524.69C383.62 526.86 382.67 528.88 381.26 531.04L374.54 541.32C363.12 558.79 362.62 565.39 345.3 587.03C339.59 594.17 338.62 597.2 333.81 604.55L317.6 629.27C315.07 633.13 312.97 637.25 310.08 640.73C308.11 643.11 306.31 644.94 304.78 647.64C302.81 651.12 299.69 653.96 297.26 657.06C291.42 664.54 282.75 673.14 274.36 677.18C271.36 678.62 265.44 686.96 261.95 686.12C258.79 685.37 268.54 669.99 267.41 667.1C268.04 666.22 267.91 663.78 269.25 663.56C270.46 663.36 272.51 664.5 273.46 663.86C274.41 663.22 275.18 660.65 274.68 659.51C272.8 658.64 270.01 659.04 267.87 658.64C269.86 653.34 273.34 648.68 274.19 643.04C267.06 652 262.25 661.36 256.4 670.1C254.64 669.92 253.4 671.62 253.4 673.1V674.1C252.73 673.97 251.82 673.97 251.56 674.68C251.39 675.14 251.35 675.69 251.4 676.1C251.84 679.76 248.26 681.96 246.19 684.86C241.52 691.38 236.4 696.86 230.94 702.66C228.47 705.28 226.64 708.73 222.76 710.36C221.15 707.58 222.52 705.36 222.4 703.11C222.68 702.93 223.45 703.16 223.71 702.84C224.16 702.28 224.71 701.19 223.89 701.12C222.9 701.03 222.23 701.63 220.68 701.87C220.59 698.96 220.09 696.33 217.55 695.03C216.37 693.65 229.23 669.65 225.4 671.11L229.49 662.62C222.52 660.83 227.62 656.17 224.46 649.84C222.63 649.09 220.71 649.6 219.18 648.48C219.21 645.9 220.38 643.06 218.4 642.11L219.53 641.05C221.57 642.03 223.57 643.68 226.16 644.28C229.75 639.97 227.93 634.78 228.4 629.97L229.74 616.03C232.42 608.49 236.97 601.95 240.4 593.73C229.78 600.4 227.46 611.9 216.9 621.69C215.01 619.63 217.54 617.25 218.11 614.77C221.77 598.95 228.35 584.96 234.15 570.05C237.76 560.76 240.46 551.82 245.18 542.89L259.35 516.07C264.61 506.11 264.89 498.86 274.29 483.01L280.59 472.39L305.05 428.79L317.14 408.83L334.91 379.73L358.46 341.11L373.58 314.1C383.28 296.77 393.91 280.54 403.28 263C405.07 259.65 406.7 256.28 408.46 253.09L415.2 240.83C422.48 227.59 430.51 215.46 437.28 202C442.74 191.13 449.05 181.49 455.66 171.06C456.84 171.69 456.63 172.95 458 174.24L465.63 160.32L476.81 141.45C479.28 137.28 481.04 132.33 484.75 129.45L492.64 123.33C497.74 119.38 500.65 113.14 504.96 108.58C505.55 110.19 504.11 111.74 503.87 113.63L502.96 120.79C502.57 123.88 501.68 127.51 501 130.27C500.91 130.65 499.2 130.94 498.9 130.77C498.49 130.54 497.3 131.9 498.28 132.35C501.42 133.79 505.29 133.18 508.26 135.58C509.81 136.84 506.54 138.47 508.36 140.82C508.69 137.86 512.87 137.33 513.62 135.47C519.61 120.76 519.38 131.65 519.43 119.1C526.85 108.54 527.25 106.52 536.52 96.1999C539.81 92.5399 541.81 87.5499 546.05 84.7399C548.1 83.3899 548.46 81.0099 550.43 80.1099C552.82 80.4999 552.84 77.3799 554.36 76.0699C556.25 74.4499 556.51 79.4499 557.69 79.9699C574.47 81.4299 563.35 88.4299 577.89 91.5599C579.17 93.8999 577.65 97.1099 579.28 99.1999C580.71 101.03 583.79 99.9199 585.33 101.12ZM226.55 700.11C226.55 699.76 226.27 699.48 225.92 699.48C225.57 699.48 225.29 699.76 225.29 700.11C225.29 700.46 225.57 700.74 225.92 700.74C226.27 700.74 226.55 700.46 226.55 700.11Z" fill="#10100F"/>
<path d="M564.42 213.11C561.89 213.74 566.04 206.75 565.59 204.03C557.04 201.36 563.07 191.38 558.58 191.94C561.66 183.41 567.93 176.52 572.51 168.38C580.62 153.98 589.05 140.51 597.99 126.74C601.37 121.53 603.1 115.69 608.13 111.21C608.14 117.33 598.03 129.52 601.15 133.44C601.86 135.25 590.39 152.41 590.47 151.56C590.41 152.2 592.98 153.28 593.1 154.03C590 165.09 575.32 183.17 572.72 192.31C572.12 194.43 569.95 195.7 569.07 196.93C567.97 202.28 566.37 208.1 564.41 213.1L564.42 213.11Z" fill="#10100F"/>
<path d="M519.42 120.11C519.37 132.66 519.6 121.77 513.61 136.48C512.85 138.33 508.68 138.87 508.35 141.83C506.53 139.48 509.8 137.84 508.25 136.59C505.28 134.19 501.41 134.79 498.27 133.36C497.28 132.91 498.48 131.55 498.89 131.78C499.19 131.95 500.9 131.66 500.99 131.28C501.67 128.52 502.56 124.89 502.95 121.8L503.86 114.64C504.1 112.75 505.53 111.2 504.95 109.59C506.82 107.61 507.98 104.56 510.54 102.15C516.67 96.3799 519.67 82.7899 530.38 78.8399L523.83 102.14C523.01 105.07 525.27 108.09 523.23 110.89C521.34 113.48 519.42 117.29 519.41 120.12L519.42 120.11ZM516.42 126.61C516.42 126.33 516.2 126.11 515.92 126.11C515.64 126.11 515.42 126.33 515.42 126.61C515.42 126.89 515.64 127.11 515.92 127.11C516.2 127.11 516.42 126.89 516.42 126.61Z" fill="#10100F"/>
<path d="M581.1 72.0999C579.16 71.5999 577.45 72.3799 576.87 74.0099C576.07 76.2299 575.97 78.9699 578.98 77.8099C579.63 77.5599 579.38 75.4999 579.62 74.9799C579.83 74.5299 579.94 73.8499 580.93 74.2299C582.1 75.3699 576.99 87.8099 576.55 89.1199C580.32 89.4199 582.57 87.7999 585.04 88.2499C589.27 92.5599 586.91 97.8399 585.34 102.12C583.8 100.93 580.72 102.03 579.29 100.2C577.66 98.1099 579.17 94.9099 577.9 92.5599C563.36 89.4299 574.48 82.4299 557.7 80.9699C556.52 80.4399 556.25 75.4499 554.37 77.0699C552.84 78.3799 552.83 81.5099 550.44 81.1099C550.65 78.3599 552.94 76.6499 554.84 74.4699C560.38 68.0999 557.55 67.9499 569.88 58.4799C571 62.0899 569.37 65.2099 567.43 67.8599C569.26 68.5299 570.47 67.6399 571.65 67.1399C570.83 67.7399 569.76 71.1699 571.72 70.9199C574 70.6399 575.2 66.9399 576.86 65.3999C574.27 64.2199 574.51 66.8499 572.63 66.3599C575.87 60.6399 580.39 55.7799 585.06 50.6699C586.66 48.9199 587.21 45.8299 590.84 47.3399C589.11 52.1899 586.64 56.6599 584.88 61.5699L581.12 72.0699L581.1 72.0999Z" fill="#10100F"/>
<path d="M495.42 337.11L487.89 348.67C485.1 352.96 483.13 357.5 480.36 362.1L473.99 372.67C471.37 377.01 469.61 382.3 465.43 385.11L465.46 382.85C465.48 381.41 464.33 381.03 463.38 381.63C462.59 382.12 461.48 382.88 461.47 383.67C461.45 385.26 462.99 385.26 465.44 385.12C463.46 392.58 455.76 401.61 452.44 408.12C451.98 408.26 451.43 407.93 451.43 407.58C451.43 406.97 452.15 406.61 452.41 406.06L457.76 394.4C458.37 393.06 459.85 392.43 460.31 391.2C461.56 387.88 454.9 385.92 462.23 379.16C460.9 376.72 463.25 375.45 463.61 373.74C464.02 371.75 464.01 370.08 466.3 369.11C470.65 367.27 472.06 363.57 474.36 359.95C476.78 356.14 479.57 352.27 480.03 347.76C485.91 345.3 484.69 338.12 491.4 335.64C492.93 335.07 494.44 336.8 495.44 337.12L495.42 337.11Z" fill="#10100F"/>
<path d="M549.19 202.87C547.96 204.51 548.29 207.25 546.25 208.8C547.94 209.61 548.47 208.71 549.28 208.43C548.77 211.5 548.22 212.95 544.88 217.61C545.81 215.64 545.09 215.95 544.91 215.08C545.81 212.89 544 211.65 542.96 214.84L539.57 209.12C540.79 205.29 543.77 202.37 546.01 198.7L549.42 193.12C549.87 192.93 550.35 193.3 550.15 193.84L547.79 200.26C547.5 201.04 547.71 202.23 548.11 202.68C548.32 202.92 548.76 202.82 549.19 202.87ZM548.05 210.61C548.05 210.26 547.77 209.98 547.42 209.98C547.07 209.98 546.79 210.26 546.79 210.61C546.79 210.96 547.07 211.24 547.42 211.24C547.77 211.24 548.05 210.96 548.05 210.61ZM545.42 211.61C545.42 211.33 545.2 211.11 544.92 211.11C544.64 211.11 544.42 211.33 544.42 211.61C544.42 211.89 544.64 212.11 544.92 212.11C545.2 212.11 545.42 211.89 545.42 211.61Z" fill="#10100F"/>
<path d="M571.62 67.1699C572.13 66.7999 572.41 66.5799 572.6 66.3999C574.48 66.8999 574.24 64.2599 576.83 65.4399C575.17 66.9699 573.97 70.6699 571.69 70.9599C569.73 71.2099 570.79 67.7799 571.62 67.1799V67.1699Z" fill="#10100F"/>
<path d="M223.21 673.22C222.93 673.6 223.23 674.5 222.57 674.68C222.16 674.79 221.81 674.98 221.42 674.99C220.95 673.94 220.16 675.87 219.15 675.93C217.5 676.03 217.78 673.2 219.1 672.33C220.08 671.68 221.99 672.41 223.21 673.22Z" fill="#1D1D1B"/>
<path d="M256.42 670.11C255.61 671.31 254.91 672.61 253.42 673.11C253.42 671.63 254.66 669.93 256.42 670.11Z" fill="#10100F"/>
<path d="M253.404 673.937C253.404 674.887 252.344 675.607 251.404 675.937C251.354 675.517 251.384 674.976 251.564 674.516C251.834 673.806 252.734 673.817 253.404 673.937Z" fill="#10100F"/>
<path d="M227.42 620.11C227.6 619.69 228.13 619.44 228.42 619.11C228.44 619.51 227.64 619.85 227.42 620.11Z" fill="#1D1D1B"/>
<path d="M225.92 700.74C226.268 700.74 226.55 700.458 226.55 700.11C226.55 699.762 226.268 699.48 225.92 699.48C225.572 699.48 225.29 699.762 225.29 700.11C225.29 700.458 225.572 700.74 225.92 700.74Z" fill="#10100F"/>
<path d="M515.92 126.11C516.196 126.11 516.42 125.886 516.42 125.61C516.42 125.334 516.196 125.11 515.92 125.11C515.644 125.11 515.42 125.334 515.42 125.61C515.42 125.886 515.644 126.11 515.92 126.11Z" fill="#1D1D1B"/>
<path d="M535.97 417.695C533.53 417.835 531.99 417.835 532 416.245C532 415.455 533.12 414.695 533.91 414.205C534.87 413.615 536.01 413.985 535.99 415.425L535.96 417.685L535.97 417.695Z" fill="#1D1D1B"/>
<path d="M224.42 671.11C224.22 670.43 224.25 670.24 224.31 670.32C224.37 670.4 224.48 670.74 224.42 671.11Z" fill="#1D1D1B"/>
<path d="M547.42 210.24C547.768 210.24 548.05 209.958 548.05 209.61C548.05 209.262 547.768 208.98 547.42 208.98C547.072 208.98 546.79 209.262 546.79 209.61C546.79 209.958 547.072 210.24 547.42 210.24Z" fill="#1D1D1B"/>
<path d="M544.92 211.11C545.196 211.11 545.42 210.886 545.42 210.61C545.42 210.334 545.196 210.11 544.92 210.11C544.644 210.11 544.42 210.334 544.42 210.61C544.42 210.886 544.644 211.11 544.92 211.11Z" fill="#1D1D1B"/>
<path d="M769.42 58.1099C768.06 61.7999 765.9 65.4599 765.09 69.8299C763.91 76.2099 761.99 81.9599 758.89 87.8599C762.62 87.7799 766.65 85.8799 768.91 88.5899C774.47 95.2599 765.11 105.62 765.57 111.92C765.99 117.7 764.2 121.31 762.16 126.05C753.15 146.99 742.66 166.79 730.97 186.6C729.43 189.2 729.58 192.24 727.26 194.94C725.52 196.97 718.03 207.51 718.87 208.1C719.36 208.44 719.82 209.27 720.38 208.83C720.62 208.64 721.04 208.17 721.42 208.18C723.41 208.25 727.62 207.39 728.14 210.34C727.35 212.09 723.39 214.77 723.88 216.86C726.35 218.08 727.49 216.3 728.19 214.98L732.33 207.13C734.73 202.59 738.19 198.81 739.42 194.1C739.9 192.25 740.49 190.35 741.75 188.38L758.16 162.76C763.89 153.81 768.76 144.82 774.52 136.28C776.34 136.05 777.27 133.29 779.43 133.34C781.03 133.5 781.53 136 782.53 136.73C781.73 140.21 777.27 143.5 776.9 147.24C776.4 152.23 775.01 155.54 773.08 159.77C764.33 178.89 760.09 174.95 750.48 205.11C747.76 213.65 744.09 221.29 740.69 229.52C738.95 233.73 735.05 237.14 734.2 241.69C733.62 244.81 730.77 245.9 729.69 248.16C726.61 254.57 723.91 260.69 720.02 266.64C717.3 270.81 715.22 275.18 712.63 279.48L691.65 314.4C689.11 318.62 686.99 322.97 684.25 327.04C678.83 335.1 674.88 343.43 669.85 351.62L648.21 386.86L638.53 404.32L609.03 454.67L592.57 482.29C585.1 494.81 578.7 507.44 571.21 519.97L561.11 536.87L538.63 573.31L504.83 623.32C497.52 634.13 491.9 645.32 482.72 654.6L464.47 673.04C461.86 675.68 460.3 676.17 457.35 677.27C454.4 678.37 446.39 690.04 444.49 685.61C443.36 682.99 449.8 672.44 449.43 669.12C448.2 657.86 460.98 646.05 455.03 647.1C454.63 647.17 454.4 647.59 454.43 648.12C451.03 650.9 448.71 655.06 446.72 659.32C445.31 662.35 442.91 664.36 441.29 667.07C433.3 680.4 424.47 692.71 413.43 703.13C410.47 703.88 407.73 701.82 404.74 701.56C402.18 701.34 399.77 708.61 397.36 706.74C394.45 704.49 400.2 695.51 400.43 695.25C402.23 693.25 408.23 679.44 408.76 677.2C410.01 671.91 413.83 668.11 414.54 662.47C411.7 663.51 407.82 662.74 406.19 660.06C404.37 657.08 405.33 652.2 403.66 648.97C401.99 645.74 402.43 644.36 403.6 641.39C405.37 636.93 406.53 631.58 410.82 628.4C412.37 627.26 415.59 626.3 414.06 623.62C413.3 622.29 411.08 620.13 412.98 618.69C414.6 617.47 416.85 617.69 418.64 616.06C416.17 612.86 417.77 610.47 418.64 607.68C420.29 602.45 421.59 597.32 425.47 593.64C424.29 592.52 423.84 591.67 422.98 592.1C420.77 593.21 418.99 595.35 418.41 597.12C417.32 600.47 414.5 602.79 412.09 605.31L408.85 608.7C407.95 609.64 406.18 609.28 405.44 608.7C403.57 607.22 408.26 598.69 409.75 590.59C410.76 585.11 414.5 586.14 417.13 577.08L421.49 562.1C422.15 559.85 423.92 560.1 424.29 557.09C426.01 543.04 434.88 544.75 435.92 533.34C435.78 534.83 443.36 516.1 443.22 518.5C443.41 515.08 446.54 514.64 447.3 512.44L451.69 499.62C454.11 492.54 458.03 485.86 464.08 480.65C467.41 477.78 467.06 471.36 468.65 467.33C470.64 462.3 474.69 458.88 477.82 454.72C478.77 453.45 478.45 451.31 479.42 450.17C487.14 441.03 485.85 434.23 494.24 425.08C497.76 421.24 501.83 418.51 500.19 412.15C505.87 408.82 506.82 402.95 508.94 397.51C511.94 389.81 519.78 384.18 522.3 376.58C523.73 372.28 524.6 370.54 528.34 367.57C531.02 365.44 534.61 359.4 535.6 356.07C536.91 351.65 537.4 349.78 540.84 346.34C547.03 340.14 548.52 331.97 552.71 328.47C557.41 324.55 556.56 316.81 559.59 312.38L567.38 300.99C568.95 298.7 570.24 296.6 571.41 293.73C566.1 306.78 588.64 261.99 580.09 275.73L588.64 261.98C590.68 258.7 590.41 257.29 593.17 254.88C598.6 250.14 597.56 240.28 604.65 235.08C609.24 231.71 612.01 225.12 612.8 219.33C617.02 214.66 620.27 209.36 620.61 202.64C625.26 199.39 625.69 193.6 628.84 189.58C630.83 187.04 632.79 185.95 633.39 181.91C633.95 179.49 639.12 178.6 639.96 175.96C639.94 176.03 653.23 153.62 654.09 152.85C656.11 151.04 657.39 148.44 657.39 146.14C657.39 143.62 665.27 132.06 668.56 129.27C679.82 119.68 689.69 103.63 699.39 94.2399C700.38 93.2799 706.21 88.2799 707.48 91.4399C708.03 92.7999 706.64 95.8199 708.39 96.1499C707 99.7599 705.87 102.59 706.96 106.94C707.34 109.62 703.22 111.86 704.81 115.31C705.84 112.3 715.38 100.75 716.37 99.2199C720.79 92.4299 726.45 87.3799 731.45 81.2699C738.03 73.2199 742.59 63.7799 752.06 58.7499C753.1 61.1799 751.81 63.7299 751.87 66.6199C756.79 63.3799 759.42 59.7799 762.31 56.2699C763.72 55.7999 766.8 52.8299 767.55 54.3699L769.39 58.1599L769.42 58.1099Z" fill="#02673A"/>
<path d="M412.1 605.3C409.71 611.55 405.36 617.71 399.08 621.91C402.5 603.84 409.72 588.67 415.84 572.58C419.27 563.55 421.88 554.85 426.43 546.15L435.35 529.06C438.46 523.11 442.05 517.52 444.5 511.23C447.42 503.74 449.07 495.97 453.47 488.97C466.45 468.33 477.71 447.45 489.4 426.1C496.09 413.87 503.27 402.96 510.51 391.1L546.45 332.18C551.08 324.58 554.37 317.03 558.86 309.47L573.69 284.45L583.33 266.98C588.58 257.47 593.13 248.02 599.14 238.83C603.64 231.95 607.41 225.2 611.28 217.87C620 201.36 628.79 185.39 639.08 170.36C639.55 171.31 640.29 172.08 640.93 172.1C640.76 172.1 654.92 148.14 657.42 146.09C657.42 148.38 656.14 150.99 654.12 152.8C653.26 153.57 639.97 175.98 639.99 175.91C639.15 178.55 633.99 179.44 633.42 181.86C632.82 185.9 630.86 186.99 628.87 189.53C625.72 193.54 625.3 199.33 620.64 202.59C620.3 209.31 617.05 214.62 612.83 219.28C612.04 225.07 609.27 231.67 604.68 235.03C597.58 240.23 598.62 250.09 593.2 254.83C590.44 257.24 590.71 258.65 588.67 261.93L580.12 275.68C588.67 261.93 566.13 306.73 571.44 293.68C570.27 296.55 568.98 298.65 567.41 300.94L559.62 312.33C556.59 316.75 557.44 324.5 552.74 328.42C548.54 331.92 547.05 340.09 540.87 346.29C537.43 349.73 536.94 351.6 535.63 356.02C534.64 359.35 531.05 365.39 528.37 367.52C524.63 370.49 523.76 372.23 522.33 376.53C519.8 384.13 511.97 389.76 508.97 397.46C506.85 402.9 505.9 408.77 500.22 412.1C501.86 418.47 497.79 421.19 494.27 425.03C485.88 434.18 487.16 440.98 479.45 450.12C478.48 451.27 478.81 453.4 477.85 454.67C474.72 458.83 470.67 462.25 468.68 467.28C467.08 471.31 467.44 477.73 464.11 480.6C458.06 485.82 454.14 492.5 451.72 499.57L447.33 512.39C446.58 514.59 443.45 515.03 443.25 518.45C443.38 516.04 435.81 534.77 435.95 533.29C434.91 544.7 426.05 542.99 424.32 557.04C423.95 560.05 422.17 559.8 421.52 562.05L417.16 577.03C414.52 586.08 410.79 585.06 409.78 590.54C408.29 598.64 403.61 607.18 405.47 608.65C406.21 609.24 407.98 609.6 408.88 608.65L412.12 605.26L412.1 605.3Z" fill="#0C5A35"/>
<path d="M413.42 703.11C410.78 705.6 409.43 709.99 404.42 710.09C404.25 708.58 404.78 707.18 404.14 705.15C396.81 710.06 395.18 717.5 387.47 722.11C387.07 717.86 388.83 714.17 390.85 710.47C397.52 698.27 403.65 686.49 408.3 672.46C402.3 675.34 402.31 680.76 397.24 680.07C395.33 679.81 395.91 677.61 395.24 676.41C390.61 668.15 397.7 651.68 400.83 643.63C405.22 632.34 409.17 621.43 415.06 610.77C417.51 606.34 418.31 601.38 421.96 596.84C420.29 595.62 419.62 597.33 418.41 597.1C418.99 595.32 420.77 593.19 422.98 592.08C423.84 591.65 424.29 592.5 425.47 593.62C421.58 597.3 420.29 602.44 418.64 607.66C417.76 610.45 416.17 612.83 418.64 616.04C416.85 617.67 414.6 617.45 412.98 618.67C411.08 620.1 413.3 622.27 414.06 623.6C415.59 626.28 412.36 627.23 410.82 628.38C406.53 631.56 405.36 636.91 403.6 641.37C402.42 644.34 402.07 645.89 403.66 648.95C405.34 652.18 404.37 657.06 406.19 660.04C407.82 662.71 411.7 663.48 414.54 662.45C413.83 668.09 410.01 671.89 408.76 677.18C408.23 679.42 402.22 693.24 400.43 695.23C400.2 695.49 394.45 704.47 397.36 706.72C399.77 708.59 402.18 701.32 404.74 701.54C407.73 701.8 410.47 703.86 413.43 703.11H413.42Z" fill="#0C5A35"/>
<path d="M739.42 194.11C738.19 198.82 734.73 202.6 732.33 207.14L728.19 214.99C727.49 216.32 726.35 218.1 723.88 216.87C723.4 214.79 727.35 212.1 728.14 210.35C727.62 207.4 723.41 208.26 721.42 208.19L735.9 185.46L753.28 157.62C751.75 166.48 746.62 173.05 742.83 180.58C742.37 181.49 737.49 195.06 737.34 194.35C737.72 196.13 738.02 194.44 739.42 194.11Z" fill="#0C5A35"/>
<path d="M782.53 136.74C781.52 136.01 781.03 133.5 779.43 133.35C777.27 133.3 776.35 136.06 774.52 136.29C780.17 127.92 784.5 118.78 791.05 110.21C791.36 116.3 786.27 120.39 785.03 125.82L782.54 136.74H782.53Z" fill="#0C5A35"/>
<path d="M708.42 96.1099C706.66 95.7899 708.06 92.7599 707.51 91.3999C706.24 88.2399 700.41 93.2399 699.42 94.1999C702.37 87.8999 706.38 81.1399 713.81 77.4899C712.52 84.4199 710.61 90.4099 708.42 96.1099Z" fill="#0C5A35"/>
<path d="M769.42 58.1099L767.58 54.3199C766.83 52.7899 763.76 55.7499 762.34 56.2199L769.65 47.3599C770.37 46.4799 770.85 45.7699 771.92 46.0699C772.56 46.2499 773.62 46.6499 773.2 47.7999L769.42 58.1099Z" fill="#0C5A35"/>
<path d="M449.42 669.11C447.54 668.74 446.63 670.78 445.76 672.24C444.31 672.34 442.71 671.91 444.09 671.11L451.43 656.14C452.79 653.37 454.01 650.83 454.42 648.12C454.38 647.58 454.61 647.17 455.02 647.1C460.97 646.05 448.19 657.87 449.42 669.12V669.11Z" fill="#0C5A35"/>
<path d="M47.4201 603C50.7901 601.76 32.3301 628.47 31.9301 621.78L41.6201 593.28C45.3901 582.2 50.3101 575.43 52.8001 564.28C53.8301 559.66 59.7501 547.63 62.2701 542.76L76.8301 514.65C80.8601 506.87 81.8301 498.6 89.3001 486.05L98.6301 470.38C102.78 463.41 111.87 447.45 115.67 440.41L122.03 428.61L155.95 372.7C158.79 368.03 161.97 364.34 164.4 360.11C164.81 361.48 164.28 360.85 164.4 360.11L168.85 352.38C169.87 350.61 169.9 347.73 172.25 347.44C168.2 355.55 173.82 352.21 168.87 358.46C167.29 360.46 166.13 362.27 163.29 362.97C157.42 373.61 164.99 368.03 157.38 375.46C152.46 380.26 153.09 381.51 149.65 388.55C149.24 389.38 150.14 395.97 142.54 403.38L136.89 408.89C140.54 412.3 128.27 425.01 125.73 428.94C127.29 426.54 119.06 446.15 116.67 441.23C116.42 442.07 117.4 442.72 117.51 444.09C111.24 449.89 114.99 454.29 108.61 456.17C109.67 459.57 108.82 461.05 106.79 463.73C99.0701 473.94 102.96 477.81 93.4401 487.94C91.0501 490.49 90.2501 494.25 88.4201 497.02C87.9101 497.79 85.9001 497.99 85.1801 498.33C83.8501 498.96 85.1801 501 84.5801 502.04C83.5901 503.8 81.2601 504.91 82.7101 507.49C83.6901 509.24 81.4601 511 81.5501 512.22C82.0501 518.91 78.1201 522.77 74.8201 527.5C71.5201 532.23 64.1601 550.52 59.6201 556.4C57.9701 558.54 56.1001 559.34 55.5901 562.57C55.3701 563.96 52.5301 565.11 54.3901 567.14C54.7201 567.5 54.6201 568.24 54.8501 568.6C55.4301 569.51 53.5801 569.48 53.2901 570.17C48.9901 580.54 45.0401 585.41 42.5701 597.15C42.0401 599.68 45.5101 602.56 47.3801 603.02L47.4201 603Z" fill="#AD1624"/>
<path d="M40.42 673.11C37.94 675.6 36.29 678.7 31.85 680.53C27.46 672.81 27.16 663.58 30.44 655.02L39.88 630.38L45.62 618.19C49.03 610.95 53.06 604.35 55.53 596.4C53.62 595.37 53.18 597.25 52.35 598.05C53.05 595.27 55.77 591.26 58.47 590.51C62.4 593.37 57.44 597.25 57.02 599.45C56.05 604.55 55.86 609.65 52.36 614C50 616.93 51.52 623.43 47.73 624.78C46.93 625.06 46.17 623.94 45.15 623.53C43.59 625.14 45.96 627.01 45.03 628.91C43.34 632.35 42.38 636.79 39.89 639.61C33.89 646.4 34.87 647.91 35.2 655.12C35.35 658.49 33.29 661.64 35.34 665.25C36.61 667.48 36.25 670.27 35.37 672.81C37.49 673.45 38.93 673.07 40.43 673.13L40.42 673.11Z" fill="#AD1624"/>
<path d="M399.42 67.1098C400.13 57.6898 405.33 55.0498 402.9 53.2798C400.47 51.5098 390.46 67.6298 387.17 67.8598L378.84 68.4398C378.37 69.3598 379.79 71.2998 379.2 72.2698C378.54 73.3698 376.83 73.5298 375.78 74.4298L368.47 80.6798C369.8 81.6898 371.12 81.0098 373.08 81.7898C371.37 83.0498 371.94 86.1098 370.46 87.0598C367.93 88.6798 365.99 91.6198 363.59 92.9098C359.22 95.2798 358 98.4298 356.38 102.42C355.55 104.47 352.58 107.55 352.03 109.88C348.49 111.78 342.82 111.05 340.31 115.32C340.14 116.41 340.44 117.38 340.48 118.18C334.84 117.88 337.88 130.82 328.39 137.19C327.59 135.24 338.81 121.64 330.51 123.75C333.93 122.41 333.53 118.45 335.07 115.84C337.72 111.32 337.81 107.41 338.41 102.62C338.87 98.9698 342.46 96.1498 341.73 91.5898C341.54 90.3998 344.88 88.5398 342.23 86.9298C341.16 88.0698 341.82 89.4198 341.13 90.9998C335.76 90.8598 331.47 95.8498 332.48 100.93C333.32 105.16 329.3 103.98 327.72 105.49C325 108.1 321.63 110.79 319.04 113.62L305.08 128.8C301.99 132.16 299.86 136.65 296.99 140.29C295.94 141.63 298.45 145.14 295.54 146.27C291.91 147.67 290.44 151.16 291.38 155.1L284.7 160.44L280.54 167.91C277.18 173.94 275.48 179.4 269.13 182.32C264.25 184.57 263.01 192.45 259.78 196.32C257.35 199.23 242.63 227.16 247.57 220.12L240.79 229.76L233.62 241.59C232.22 243.91 224.63 257.06 224.98 257.17C225.59 257.37 226.86 256.89 227.46 257.35C229.41 258.85 227.83 263.14 225.69 263.65C224.96 263.82 224.17 262.45 223.66 262.42C219.39 262.16 221.64 267.72 215.83 271.9C211.55 276.65 226.23 250.74 223.48 255.05C231.84 241.96 239.62 229.13 247.05 215.47L261.03 189.76C262.35 187.34 272.07 172.8 272.28 172.71C272.9 172.43 274.1 172.91 275.46 172.91C278.11 167.67 280.99 162.21 284.48 157.17C291.19 147.47 295.37 135.99 303.85 127.72C308.85 122.85 314.11 118.63 317.95 112.57C321.41 107.11 325.96 102.69 329.84 97.6598C332.17 94.6398 342.04 76.5598 346.43 79.5298C348.11 80.6598 343.21 94.2998 342.07 97.8898C341.01 101.21 341.14 104.44 340.63 107.63C340.23 110.12 337.24 112.15 338.64 115.28C341.01 115.25 340.37 112.31 341.43 110.96L361.87 84.8298C363.5 82.7398 365.74 81.0798 367.2 78.8098C372.15 71.1298 377.79 64.3398 385.4 58.3298C387.72 61.1198 386 63.3198 385.44 67.0098C386.72 65.7998 388.66 65.1398 389.92 63.7098L405.01 46.4998C406.76 46.4198 407.41 48.0198 407.48 48.8498C407.59 50.0598 406.37 51.5098 405.91 52.5398L399.44 67.1298L399.42 67.1098Z" fill="#AD1624"/>
<path d="M374.42 190.11L371.93 193.52C365.87 201.83 371.93 200.92 366.51 209.12C361.79 216.27 363.22 213.43 358.79 217.27C357.4 214.39 359.39 213.68 361.53 212.67C359.78 211.64 357.83 211 356.71 209.16C358.59 204.63 361.35 201.06 363.42 197.1C365.49 193.14 368.41 189.9 370.67 186.19L371.76 188.01C375.87 184.36 376.16 180.12 377.47 176.11C378.96 171.57 381.63 166.75 385.88 162.87C384.06 170.89 376.84 180.08 374.41 190.11H374.42Z" fill="#AD1624"/>
<path d="M99.42 671.11C99.95 675.52 94.42 674.66 92.04 676.57C87.79 679.98 85.24 685.46 79.03 687.53C75.75 683.32 83.8 673.58 83.2 669.13C81.01 670.6 80.84 673.36 77.78 672.12C81.79 664.76 84.35 657.5 88.41 651.12C88.82 656.81 86.4 653.73 85.5 661.7C85.35 663.07 87.23 663.88 88.82 665.19C85.6 669.96 82.98 674.8 85.04 680.51C96.22 670.92 93.14 677.36 99.41 671.13L99.42 671.11ZM82.53 682.11C82.53 681.5 82.03 681 81.42 681C80.81 681 80.31 681.5 80.31 682.11C80.31 682.72 80.81 683.22 81.42 683.22C82.03 683.22 82.53 682.72 82.53 682.11Z" fill="#AD1624"/>
<path d="M411.42 144.11C411.46 142.92 412.58 141.72 412.98 139.67C407.93 134.93 398.36 155.39 397.63 156.59L386.87 174.28C384.89 177.53 383.44 178.7 381.57 181.07C384.25 173.32 392.14 163.97 395.91 156.64C398.95 150.73 402.72 145.68 406.2 140.06L414.62 126.44C417.27 122.16 418.85 117.7 422.84 113.54C423.54 118.35 421.17 122.13 418.86 125.44C417.02 128.08 418.1 130.4 417.94 133.11C417.85 134.63 413.07 145.8 411.42 144.12V144.11Z" fill="#AD1624"/>
<path d="M30.61 711.48C31.6 713.17 21.32 726.13 21 720.29C21.74 713.34 26.66 708.09 30 702.56C30.67 706.3 25.84 710.99 30.61 711.48Z" fill="#AD1624"/>
<path d="M356.4 261.15C356.66 263.25 355.46 264.98 354.27 266.98L337.82 294.6L316.59 329.33L300.79 356.58L287.54 378.31C282.76 386.15 279.42 394.69 273.31 400.93C269.51 401.35 275.76 391.55 269.28 392.06C267.87 392.17 268.91 395.71 266.33 394.75C269.55 389.94 272.02 385.23 273.9 379.84C275.04 376.57 277.34 374.47 279.04 371.87L290.18 354.84L293.86 347.7C295.8 343.94 297.44 340.97 301.25 339.51C292.3 365.53 311.71 331.02 311.82 330.75C313.93 325.7 316.65 322.5 320.83 319.38C322.5 318.14 321.17 313.06 324.25 311.68C327.13 310.39 326.77 306.83 328.12 304.5C340.59 282.99 334.19 297.23 340.64 286.87C343.72 281.92 347.05 277.78 348.09 271.44C347.93 272.4 354.41 258.03 356.43 261.14L356.4 261.15ZM298.27 352.51C298.62 350.64 296.8 350.17 295.96 350.62C296.54 350.31 290.56 354.64 293.85 358.27C295.53 357.06 297.69 355.6 298.27 352.5V352.51ZM293.57 361.4C295.19 360.31 293.82 358.51 292.64 359.95C289.46 362.48 286.35 365.32 286.86 369.49C291.23 367.94 290.58 363.99 293.57 361.39V361.4ZM274.48 389.46C281 386.74 281.39 381.12 283.72 376.4C284.11 375.61 286.03 374.74 285.29 373.68C282.7 369.97 282.03 380.77 275.6 381.73C274.89 383.97 272.5 387.11 274.48 389.46Z" fill="#AD1624"/>
<path d="M35.39 705.11C35.97 703.53 36.88 701.87 38.11 701.33C40.34 700.35 41.65 702.42 43.07 703.99C48.17 704.55 63.46 682.8 66.44 678.2L80.55 656.44C82.51 653.42 83.6 649.87 86.54 647.98C86.42 650.28 84.41 651.74 83.23 653.92L78.66 662.35C75.21 668.72 70.44 674.12 66.87 680.49C64.2 685.24 60.77 688.98 57.49 693.14C54.62 696.77 52.7 700.86 47.98 702.75C46.2 705.54 44.04 709.47 40.22 709.88C38.15 710.1 37.98 705.57 39.51 704.47C37.61 703.59 36.46 704.47 35.4 705.12L35.39 705.11Z" fill="#AD1624"/>
<path d="M370.67 186.2C372.77 182.76 373.71 178 377.47 176.11C376.15 180.12 375.87 184.37 371.76 188.01L370.67 186.19V186.2Z" fill="#C21127"/>
<path d="M361.7 252.06C360.83 254.42 360.51 257.79 357.76 259.24C356.66 257.83 356.35 256.03 357.57 254.69C358.69 253.46 360.14 252.52 361.7 252.06Z" fill="#AD1624"/>
<path d="M340.07 254.64C332.66 262.25 338.41 261.23 330.62 264.93C334.63 255.87 340.43 248.12 345.91 239.01C345.59 242.45 343.17 244.84 341.15 248.17C342.14 248.84 343.31 248.24 343.43 248.91C343.64 250.04 342.96 251.95 341.66 252.35C341.02 252.55 340.4 252.42 339.86 252.4C338.98 252.37 340.5 254.19 340.07 254.63V254.64Z" fill="#AD1624"/>
<path d="M349.13 240.07C347.92 238.02 346.89 238.03 346.61 237.48C346.21 236.71 346.68 235.97 346.98 234.91C349.53 232.92 350.85 230.71 352.19 228.08C351.69 230.82 352.77 233.19 351.79 235.05L349.14 240.07H349.13Z" fill="#AD1624"/>
<path d="M348.61 116.82C347.76 119.08 345.41 121.6 343.88 119.48C342.93 118.16 347.31 112.34 349.22 114.71C349.55 115.12 349.02 115.73 348.61 116.82Z" fill="#AD1624"/>
<path d="M354.55 223.77C355.62 222.55 355.43 220.88 357.29 220.11C356.6 221.47 356.59 223.15 354.55 223.77Z" fill="#AD1624"/>
<path d="M302.92 337.11C303.196 337.11 303.42 336.886 303.42 336.61C303.42 336.334 303.196 336.11 302.92 336.11C302.644 336.11 302.42 336.334 302.42 336.61C302.42 336.886 302.644 337.11 302.92 337.11Z" fill="#AD1624"/>
<path d="M354.92 210.11C355.196 210.11 355.42 209.886 355.42 209.61C355.42 209.334 355.196 209.11 354.92 209.11C354.644 209.11 354.42 209.334 354.42 209.61C354.42 209.886 354.644 210.11 354.92 210.11Z" fill="#AD1624"/>
<path d="M357.92 219.11C358.196 219.11 358.42 218.886 358.42 218.61C358.42 218.334 358.196 218.11 357.92 218.11C357.644 218.11 357.42 218.334 357.42 218.61C357.42 218.886 357.644 219.11 357.92 219.11Z" fill="#AD1624"/>
<path d="M399.42 67.1099C399.04 72.1699 397.92 77.6999 395.84 82.7199C394.92 84.9599 391.7 86.6299 393.91 88.9799C396.31 88.1299 399.74 86.5399 401.91 87.6299C405.35 89.3499 404.82 94.0099 403.92 96.9399L399.58 111.13C397.66 117.4 403.58 113.94 389.02 142.91C382.21 156.47 375.42 169.56 367.92 182.74C365.94 186.22 363.39 188.99 364 193.66C364.06 194.14 362.57 195.16 362.55 195.87C362.54 196.33 362.24 197.18 363.42 197.09C361.36 201.05 358.59 204.62 356.71 209.15C357.84 210.99 359.78 211.62 361.53 212.66C359.4 213.68 357.4 214.38 358.79 217.26C363.21 213.42 361.78 216.26 366.51 209.11C371.93 200.9 365.87 201.82 371.93 193.51L374.42 190.1L381.57 181.05C383.44 178.68 384.89 177.52 386.87 174.26L397.63 156.57C398.36 155.37 407.93 134.91 412.98 139.65C412.58 141.7 411.46 142.9 411.42 144.09C411.14 153.15 407.76 161.36 402.46 169.08C381.99 198.89 386.51 211.93 366.41 245.13C364.84 247.72 363.83 250.3 361.7 252.03C360.13 252.49 358.69 253.42 357.57 254.66C356.35 256 356.66 257.8 357.76 259.21C357.18 259.52 357.15 260.86 356.4 261.12C354.38 258.01 347.9 272.38 348.06 271.42C347.03 277.76 343.7 281.89 340.61 286.85C334.16 297.21 340.56 282.97 328.09 304.48C326.74 306.81 327.09 310.37 324.22 311.66C321.14 313.04 322.47 318.12 320.8 319.36C316.62 322.47 313.9 325.68 311.79 330.73C311.68 330.99 292.27 365.51 301.22 339.49C297.42 340.95 295.77 343.92 293.83 347.68L290.15 354.82L279.01 371.85C277.31 374.45 275.01 376.55 273.87 379.82C271.99 385.21 269.52 389.93 266.3 394.73C268.88 395.69 267.84 392.15 269.25 392.04C275.73 391.53 269.48 401.33 273.28 400.91C272.86 404.16 270.68 407.28 268.83 410.37L250 441.78L236 465.81L214.69 503.55L206.74 516.59L191.83 541.66C190.22 544.37 188.58 546.97 186.89 549.88L179.62 562.34C177.88 565.32 175.88 567.97 173.98 570.51L169.17 576.92L149.27 607.08C137.18 625.4 125.98 643.75 112.16 660.65C112.11 660.71 99.6599 672.69 99.3899 671.1C93.1099 677.33 96.1899 670.89 85.0199 680.48C82.9599 674.77 85.5899 669.94 88.7999 665.16C87.2099 663.86 85.3199 663.05 85.4799 661.67C86.3799 653.7 88.7999 656.78 88.3899 651.09C89.5499 649.27 90.2399 646.65 90.3099 643.95C88.3099 645.39 88.0699 646.96 86.4999 647.96C83.5599 649.85 82.4699 653.4 80.5099 656.42L66.3999 678.18C63.4199 682.77 48.1299 704.52 43.0299 703.97C41.6099 702.4 40.2999 700.33 38.0699 701.31C36.8399 701.85 35.9299 703.52 35.3499 705.09C34.4399 707.57 32.3599 709.79 30.5699 711.45C25.7999 710.97 30.6299 706.27 29.9599 702.53C32.7999 697.84 41.9699 676.67 43.3199 670.1C41.1299 670.12 41.2999 672.16 40.3799 673.09C38.8899 673.02 37.4399 673.41 35.3199 672.77C36.1999 670.24 36.5499 667.45 35.2899 665.21C33.2399 661.6 35.2999 658.46 35.1499 655.08C34.8199 647.87 33.8399 646.36 39.8399 639.57C42.3299 636.76 43.2799 632.31 44.9799 628.87C45.9099 626.97 43.5399 625.1 45.0999 623.49C46.1099 623.9 46.8799 625.03 47.6799 624.74C51.4699 623.39 49.9599 616.89 52.3099 613.96C55.8099 609.6 55.9999 604.51 56.9699 599.41C57.3899 597.2 62.3399 593.33 58.4199 590.47C55.7199 591.22 52.9999 595.23 52.2999 598.01C51.7699 600.13 48.8099 601.63 47.3799 602.98C45.5099 602.52 42.0299 599.64 42.5699 597.11C45.0399 585.38 48.9899 580.5 53.2899 570.13C53.5799 569.44 55.4299 569.47 54.8499 568.56C54.6199 568.21 54.7199 567.46 54.3899 567.1C52.5299 565.06 55.3699 563.91 55.5899 562.53C56.0999 559.3 57.9699 558.5 59.6199 556.36C64.1599 550.48 71.4699 532.26 74.8199 527.46C78.1699 522.66 82.0499 518.87 81.5499 512.18C81.4599 510.95 83.6899 509.2 82.7099 507.45C81.2599 504.87 83.5899 503.76 84.5799 502C85.1699 500.96 83.8499 498.92 85.1799 498.29C85.8899 497.95 87.8999 497.76 88.4199 496.98C90.2499 494.21 91.0499 490.45 93.4399 487.9C102.95 477.77 99.0599 473.9 106.79 463.69C108.82 461 109.68 459.53 108.61 456.13C114.99 454.25 111.24 449.84 117.51 444.05C117.4 442.68 116.42 442.04 116.67 441.19C119.05 446.11 127.28 426.49 125.73 428.9C128.27 424.98 140.54 412.26 136.89 408.85L142.54 403.34C150.13 395.93 149.24 389.34 149.65 388.51C153.09 381.47 152.46 380.23 157.38 375.42C164.99 368 157.42 373.58 163.29 362.93C166.13 362.24 167.28 360.42 168.87 358.42C173.82 352.18 168.2 355.51 172.25 347.4C178.43 335.05 191.85 311.56 198.68 299.57C204.24 289.81 208.68 284.29 212.68 275.28C213.42 273.62 214.55 272.73 215.8 271.84C221.62 267.66 219.36 262.11 223.63 262.36C224.14 262.39 224.93 263.76 225.66 263.59C227.8 263.08 229.38 258.79 227.43 257.29C226.83 256.83 225.55 257.31 224.95 257.11C224.6 257 232.19 243.85 233.59 241.53L240.76 229.7L247.54 220.06C242.59 227.09 257.32 199.17 259.75 196.26C262.97 192.4 264.22 184.51 269.1 182.26C275.46 179.33 277.16 173.87 280.51 167.85L284.67 160.38L291.35 155.04C290.42 151.1 291.88 147.62 295.51 146.21C298.42 145.09 295.91 141.57 296.96 140.23C299.83 136.59 301.97 132.1 305.05 128.74L319.01 113.56C321.61 110.74 324.97 108.04 327.69 105.43C329.27 103.91 333.29 105.1 332.45 100.87C331.45 95.7899 335.74 90.7999 341.1 90.9399C341.78 89.3599 341.12 88.0099 342.2 86.8699C344.85 88.4699 341.51 90.3399 341.7 91.5299C342.43 96.0899 338.84 98.9199 338.38 102.56C337.78 107.35 337.69 111.26 335.04 115.78C333.51 118.39 333.9 122.35 330.48 123.69C338.78 121.58 327.56 135.18 328.36 137.13C337.85 130.76 334.81 117.82 340.45 118.12C340.41 117.32 340.11 116.35 340.28 115.26C342.79 110.99 348.46 111.72 352 109.82C352.56 107.49 355.52 104.41 356.35 102.36C357.97 98.3699 359.19 95.2199 363.56 92.8499C365.96 91.5499 367.9 88.6199 370.43 86.9999C371.91 86.0499 371.34 82.9899 373.05 81.7299C371.09 80.9599 369.78 81.6399 368.44 80.6199L375.75 74.3699C376.81 73.4699 378.51 73.3099 379.17 72.2099C379.75 71.2399 378.34 69.2899 378.81 68.3799L387.14 67.7999C390.43 67.5699 400.45 51.4699 402.87 53.2199C405.29 54.9699 400.11 57.6299 399.39 67.0499L399.42 67.1099ZM348.61 116.82C349.02 115.72 349.55 115.12 349.22 114.71C347.31 112.34 342.93 118.16 343.88 119.48C345.41 121.61 347.75 119.09 348.61 116.82ZM355.42 209.61C355.42 209.33 355.2 209.11 354.92 209.11C354.64 209.11 354.42 209.33 354.42 209.61C354.42 209.89 354.64 210.11 354.92 210.11C355.2 210.11 355.42 209.89 355.42 209.61ZM358.42 218.61C358.42 218.33 358.2 218.11 357.92 218.11C357.64 218.11 357.42 218.33 357.42 218.61C357.42 218.89 357.64 219.11 357.92 219.11C358.2 219.11 358.42 218.89 358.42 218.61ZM354.55 223.77C356.58 223.16 356.6 221.47 357.29 220.11C355.43 220.87 355.63 222.55 354.55 223.77ZM349.13 240.07L351.78 235.05C352.76 233.19 351.68 230.82 352.18 228.08C350.85 230.71 349.52 232.92 346.97 234.91C346.67 235.97 346.2 236.72 346.6 237.48C346.89 238.03 347.91 238.02 349.12 240.07H349.13ZM340.07 254.64C340.5 254.2 338.98 252.38 339.86 252.41C340.4 252.43 341.02 252.55 341.66 252.36C342.96 251.96 343.64 250.05 343.43 248.92C343.31 248.25 342.13 248.85 341.15 248.18C343.16 244.85 345.58 242.46 345.91 239.02C340.44 248.13 334.63 255.88 330.62 264.94C338.41 261.24 332.66 262.26 340.07 254.65V254.64ZM303.42 336.61C303.42 336.33 303.2 336.11 302.92 336.11C302.64 336.11 302.42 336.33 302.42 336.61C302.42 336.89 302.64 337.11 302.92 337.11C303.2 337.11 303.42 336.89 303.42 336.61Z" fill="#C21127"/>
<path d="M274.48 389.46C272.5 387.1 274.89 383.96 275.6 381.73C282.04 380.77 282.7 369.97 285.29 373.68C286.03 374.74 284.11 375.61 283.72 376.4C281.39 381.12 281 386.74 274.48 389.46Z" fill="#C21127"/>
<path d="M293.57 361.4C290.58 363.99 291.23 367.95 286.86 369.5C286.35 365.33 289.46 362.49 292.64 359.96C293.82 358.52 295.19 360.31 293.57 361.41V361.4Z" fill="#C21127"/>
<path d="M298.27 352.51C297.68 355.6 295.53 357.06 293.85 358.28C290.56 354.65 296.54 350.32 295.96 350.63C296.8 350.18 298.63 350.64 298.27 352.52V352.51Z" fill="#C21127"/>
<path d="M81.4201 683.22C82.0331 683.22 82.5301 682.723 82.5301 682.11C82.5301 681.497 82.0331 681 81.4201 681C80.807 681 80.3101 681.497 80.3101 682.11C80.3101 682.723 80.807 683.22 81.4201 683.22Z" fill="#C21127"/>
<path d="M164.42 360.11C164.62 360.79 164.59 360.98 164.53 360.9C164.47 360.82 164.36 360.48 164.42 360.11Z" fill="#C21127"/>
<path d="M219.55 641.06C221.31 633.83 224.46 626.95 227.42 620.12C227.64 619.86 228.44 619.52 228.42 619.12C228.34 617.88 229.38 617.08 229.75 616.04L228.41 629.98C227.95 634.78 229.76 639.97 226.17 644.29C223.59 643.69 221.59 642.04 219.54 641.06H219.55Z" fill="#10100F"/>
<path d="M225.42 671.11H224.42C224.54 670.37 224.01 669.74 224.42 671.11C224.4 672.01 223.7 672.56 223.22 673.22C222.01 672.41 220.1 671.68 219.11 672.33C217.78 673.21 217.51 676.03 219.16 675.93C220.17 675.87 220.96 673.94 221.43 674.99C220.09 677.28 216.59 679.95 213.95 678.85L211.79 673.9C208.27 665.83 216.28 648.78 218.42 642.1C220.4 643.05 219.23 645.9 219.2 648.47C220.73 649.59 222.65 649.08 224.48 649.83C227.63 656.15 222.54 660.82 229.51 662.61L225.42 671.1V671.11Z" fill="#10100F"/>
<path d="M222.42 703.11C215.47 707.39 211.13 718.66 204.78 722.04C203.99 720.36 204.42 718.1 205.44 716.07L213.81 699.52C214.79 697.59 215.93 695.88 217.56 695.03C220.1 696.33 220.6 698.97 220.69 701.87C222.24 701.63 222.91 701.03 223.9 701.12C224.72 701.19 224.17 702.29 223.72 702.84C223.46 703.16 222.7 702.93 222.41 703.11H222.42Z" fill="#10100F"/>
<path d="M549.19 201.87C548.77 201.82 548.32 201.91 548.11 201.68C547.71 201.23 547.5 200.04 547.79 199.26L550.15 192.84C550.35 192.3 549.87 191.93 549.42 192.12L563.22 170.9C564.31 169.23 563.97 166.49 566.66 166.19L554.27 192.96C552.71 196.32 551.2 199.2 549.2 201.88L549.19 201.87Z" fill="#1D1D1B"/>
<path d="M267.42 667.11C264.64 668.19 263.91 671.83 260.31 672.33C262.75 667.23 266.14 663.3 267.89 658.65C270.03 659.05 272.82 658.65 274.7 659.52C275.19 660.66 274.39 663.26 273.48 663.87C272.57 664.48 270.48 663.37 269.27 663.57C267.93 663.79 268.06 666.23 267.43 667.11H267.42Z" fill="#10100F"/>
<path d="M581.1 71.0999C580.98 71.6199 580.8 72.7099 580.91 73.2299C579.93 72.8499 579.81 73.5299 579.6 73.9799C579.36 74.4999 579.61 76.5599 578.96 76.8099C575.96 77.9699 576.06 75.2299 576.85 73.0099C577.43 71.3799 579.15 70.5999 581.08 71.0999H581.1Z" fill="#1D1D1B"/>
<path d="M585.33 101.12L581.64 111.2C583.06 118.4 580.8 123.99 577.66 130.24L567.58 150.31C560.12 165.16 556.34 174.23 546.68 188.31C548.89 194.27 530.38 212.24 539.58 208.12L542.97 213.84C544.01 210.65 545.81 211.89 544.92 214.08C545.1 214.95 545.82 214.64 544.89 216.61C548.23 211.95 548.79 210.5 549.29 207.43C549.99 203.18 558.09 192.32 558.59 190.96C563.09 190.4 557.05 200.38 565.6 203.05C566.04 205.76 561.9 212.76 564.43 212.13C561.45 219.71 558.65 227.67 554.2 235.04C552.35 238.11 550.7 240.68 549.21 244.1C546.47 250.38 542.56 255.95 539.13 262.03L523.32 290.03L517.03 298.91C516.21 300.07 496.55 334.41 495.43 336.12C494.43 335.8 492.92 334.07 491.39 334.64C484.68 337.12 485.91 344.3 480.02 346.76C479.56 351.28 476.76 355.15 474.35 358.95C471.94 362.75 470.64 366.27 466.29 368.11C464 369.08 464.01 370.75 463.6 372.74C463.25 374.45 460.89 375.72 462.22 378.16C454.89 384.93 461.56 386.88 460.3 390.2C459.84 391.43 458.36 392.06 457.75 393.4L452.4 405.06C452.15 405.61 451.42 405.98 451.42 406.58C451.42 406.93 451.97 407.26 452.43 407.12C448.17 415.48 440.86 428.72 435.25 436.9C436.41 435.2 425.31 454.24 425.07 454.67L421.43 461.08L393.7 509.24L384.86 524.69C383.62 526.86 382.67 528.88 381.26 531.04L374.54 541.32C363.12 558.79 362.62 565.39 345.3 587.03C339.59 594.17 338.62 597.2 333.81 604.55L317.6 629.27C315.07 633.13 312.97 637.25 310.08 640.73C308.11 643.11 306.31 644.94 304.78 647.64C302.81 651.12 299.69 653.96 297.26 657.06C291.42 664.54 282.75 673.14 274.36 677.18C271.36 678.62 265.44 686.96 261.95 686.12C258.79 685.37 268.54 669.99 267.41 667.1C268.04 666.22 267.91 663.78 269.25 663.56C270.46 663.36 272.51 664.5 273.46 663.86C274.41 663.22 275.18 660.65 274.68 659.51C272.8 658.64 270.01 659.04 267.87 658.64C269.86 653.34 273.34 648.68 274.19 643.04C267.06 652 262.25 661.36 256.4 670.1C254.64 669.92 253.4 671.62 253.4 673.1V674.1C252.73 673.97 251.82 673.97 251.56 674.68C251.39 675.14 251.35 675.69 251.4 676.1C251.84 679.76 248.26 681.96 246.19 684.86C241.52 691.38 236.4 696.86 230.94 702.66C228.47 705.28 226.64 708.73 222.76 710.36C221.15 707.58 222.52 705.36 222.4 703.11C222.68 702.93 223.45 703.16 223.71 702.84C224.16 702.28 224.71 701.19 223.89 701.12C222.9 701.03 222.23 701.63 220.68 701.87C220.59 698.96 220.09 696.33 217.55 695.03C216.37 693.65 229.23 669.65 225.4 671.11L229.49 662.62C222.52 660.83 227.62 656.17 224.46 649.84C222.63 649.09 220.71 649.6 219.18 648.48C219.21 645.9 220.38 643.06 218.4 642.11L219.53 641.05C221.57 642.03 223.57 643.68 226.16 644.28C229.75 639.97 227.93 634.78 228.4 629.97L229.74 616.03C232.42 608.49 236.97 601.95 240.4 593.73C229.78 600.4 227.46 611.9 216.9 621.69C215.01 619.63 217.54 617.25 218.11 614.77C221.77 598.95 228.35 584.96 234.15 570.05C237.76 560.76 240.46 551.82 245.18 542.89L259.35 516.07C264.61 506.11 264.89 498.86 274.29 483.01L280.59 472.39L305.05 428.79L317.14 408.83L334.91 379.73L358.46 341.11L373.58 314.1C383.28 296.77 393.91 280.54 403.28 263C405.07 259.65 406.7 256.28 408.46 253.09L415.2 240.83C422.48 227.59 430.51 215.46 437.28 202C442.74 191.13 449.05 181.49 455.66 171.06C456.84 171.69 456.63 172.95 458 174.24L465.63 160.32L476.81 141.45C479.28 137.28 481.04 132.33 484.75 129.45L492.64 123.33C497.74 119.38 500.65 113.14 504.96 108.58C505.55 110.19 504.11 111.74 503.87 113.63L502.96 120.79C502.57 123.88 501.68 127.51 501 130.27C500.91 130.65 499.2 130.94 498.9 130.77C498.49 130.54 497.3 131.9 498.28 132.35C501.42 133.79 505.29 133.18 508.26 135.58C509.81 136.84 506.54 138.47 508.36 140.82C508.69 137.86 512.87 137.33 513.62 135.47C519.61 120.76 519.38 131.65 519.43 119.1C526.85 108.54 527.25 106.52 536.52 96.1999C539.81 92.5399 541.81 87.5499 546.05 84.7399C548.1 83.3899 548.46 81.0099 550.43 80.1099C552.82 80.4999 552.84 77.3799 554.36 76.0699C556.25 74.4499 556.51 79.4499 557.69 79.9699C574.47 81.4299 563.35 88.4299 577.89 91.5599C579.17 93.8999 577.65 97.1099 579.28 99.1999C580.71 101.03 583.79 99.9199 585.33 101.12ZM226.55 700.11C226.55 699.76 226.27 699.48 225.92 699.48C225.57 699.48 225.29 699.76 225.29 700.11C225.29 700.46 225.57 700.74 225.92 700.74C226.27 700.74 226.55 700.46 226.55 700.11Z" fill="#10100F"/>
<path d="M564.42 213.11C561.89 213.74 566.04 206.75 565.59 204.03C557.04 201.36 563.07 191.38 558.58 191.94C561.66 183.41 567.93 176.52 572.51 168.38C580.62 153.98 589.05 140.51 597.99 126.74C601.37 121.53 603.1 115.69 608.13 111.21C608.14 117.33 598.03 129.52 601.15 133.44C601.86 135.25 590.39 152.41 590.47 151.56C590.41 152.2 592.98 153.28 593.1 154.03C590 165.09 575.32 183.17 572.72 192.31C572.12 194.43 569.95 195.7 569.07 196.93C567.97 202.28 566.37 208.1 564.41 213.1L564.42 213.11Z" fill="#10100F"/>
<path d="M519.42 120.11C519.37 132.66 519.6 121.77 513.61 136.48C512.85 138.33 508.68 138.87 508.35 141.83C506.53 139.48 509.8 137.84 508.25 136.59C505.28 134.19 501.41 134.79 498.27 133.36C497.28 132.91 498.48 131.55 498.89 131.78C499.19 131.95 500.9 131.66 500.99 131.28C501.67 128.52 502.56 124.89 502.95 121.8L503.86 114.64C504.1 112.75 505.53 111.2 504.95 109.59C506.82 107.61 507.98 104.56 510.54 102.15C516.67 96.3799 519.67 82.7899 530.38 78.8399L523.83 102.14C523.01 105.07 525.27 108.09 523.23 110.89C521.34 113.48 519.42 117.29 519.41 120.12L519.42 120.11ZM516.42 126.61C516.42 126.33 516.2 126.11 515.92 126.11C515.64 126.11 515.42 126.33 515.42 126.61C515.42 126.89 515.64 127.11 515.92 127.11C516.2 127.11 516.42 126.89 516.42 126.61Z" fill="#10100F"/>
<path d="M581.1 72.0999C579.16 71.5999 577.45 72.3799 576.87 74.0099C576.07 76.2299 575.97 78.9699 578.98 77.8099C579.63 77.5599 579.38 75.4999 579.62 74.9799C579.83 74.5299 579.94 73.8499 580.93 74.2299C582.1 75.3699 576.99 87.8099 576.55 89.1199C580.32 89.4199 582.57 87.7999 585.04 88.2499C589.27 92.5599 586.91 97.8399 585.34 102.12C583.8 100.93 580.72 102.03 579.29 100.2C577.66 98.1099 579.17 94.9099 577.9 92.5599C563.36 89.4299 574.48 82.4299 557.7 80.9699C556.52 80.4399 556.25 75.4499 554.37 77.0699C552.84 78.3799 552.83 81.5099 550.44 81.1099C550.65 78.3599 552.94 76.6499 554.84 74.4699C560.38 68.0999 557.55 67.9499 569.88 58.4799C571 62.0899 569.37 65.2099 567.43 67.8599C569.26 68.5299 570.47 67.6399 571.65 67.1399C570.83 67.7399 569.76 71.1699 571.72 70.9199C574 70.6399 575.2 66.9399 576.86 65.3999C574.27 64.2199 574.51 66.8499 572.63 66.3599C575.87 60.6399 580.39 55.7799 585.06 50.6699C586.66 48.9199 587.21 45.8299 590.84 47.3399C589.11 52.1899 586.64 56.6599 584.88 61.5699L581.12 72.0699L581.1 72.0999Z" fill="#10100F"/>
<path d="M495.42 337.11L487.89 348.67C485.1 352.96 483.13 357.5 480.36 362.1L473.99 372.67C471.37 377.01 469.61 382.3 465.43 385.11L465.46 382.85C465.48 381.41 464.33 381.03 463.38 381.63C462.59 382.12 461.48 382.88 461.47 383.67C461.45 385.26 462.99 385.26 465.44 385.12C463.46 392.58 455.76 401.61 452.44 408.12C451.98 408.26 451.43 407.93 451.43 407.58C451.43 406.97 452.15 406.61 452.41 406.06L457.76 394.4C458.37 393.06 459.85 392.43 460.31 391.2C461.56 387.88 454.9 385.92 462.23 379.16C460.9 376.72 463.25 375.45 463.61 373.74C464.02 371.75 464.01 370.08 466.3 369.11C470.65 367.27 472.06 363.57 474.36 359.95C476.78 356.14 479.57 352.27 480.03 347.76C485.91 345.3 484.69 338.12 491.4 335.64C492.93 335.07 494.44 336.8 495.44 337.12L495.42 337.11Z" fill="#10100F"/>
<path d="M549.19 202.87C547.96 204.51 548.29 207.25 546.25 208.8C547.94 209.61 548.47 208.71 549.28 208.43C548.77 211.5 548.22 212.95 544.88 217.61C545.81 215.64 545.09 215.95 544.91 215.08C545.81 212.89 544 211.65 542.96 214.84L539.57 209.12C540.79 205.29 543.77 202.37 546.01 198.7L549.42 193.12C549.87 192.93 550.35 193.3 550.15 193.84L547.79 200.26C547.5 201.04 547.71 202.23 548.11 202.68C548.32 202.92 548.76 202.82 549.19 202.87ZM548.05 210.61C548.05 210.26 547.77 209.98 547.42 209.98C547.07 209.98 546.79 210.26 546.79 210.61C546.79 210.96 547.07 211.24 547.42 211.24C547.77 211.24 548.05 210.96 548.05 210.61ZM545.42 211.61C545.42 211.33 545.2 211.11 544.92 211.11C544.64 211.11 544.42 211.33 544.42 211.61C544.42 211.89 544.64 212.11 544.92 212.11C545.2 212.11 545.42 211.89 545.42 211.61Z" fill="#10100F"/>
<path d="M571.62 67.1699C572.13 66.7999 572.41 66.5799 572.6 66.3999C574.48 66.8999 574.24 64.2599 576.83 65.4399C575.17 66.9699 573.97 70.6699 571.69 70.9599C569.73 71.2099 570.79 67.7799 571.62 67.1799V67.1699Z" fill="#10100F"/>
<path d="M223.21 673.22C222.93 673.6 223.23 674.5 222.57 674.68C222.16 674.79 221.81 674.98 221.42 674.99C220.95 673.94 220.16 675.87 219.15 675.93C217.5 676.03 217.78 673.2 219.1 672.33C220.08 671.68 221.99 672.41 223.21 673.22Z" fill="#1D1D1B"/>
<path d="M256.42 670.11C255.61 671.31 254.91 672.61 253.42 673.11C253.42 671.63 254.66 669.93 256.42 670.11Z" fill="#10100F"/>
<path d="M253.404 673.937C253.404 674.887 252.344 675.607 251.404 675.937C251.354 675.517 251.384 674.976 251.564 674.516C251.834 673.806 252.734 673.817 253.404 673.937Z" fill="#10100F"/>
<path d="M227.42 620.11C227.6 619.69 228.13 619.44 228.42 619.11C228.44 619.51 227.64 619.85 227.42 620.11Z" fill="#1D1D1B"/>
<path d="M225.92 700.74C226.268 700.74 226.55 700.458 226.55 700.11C226.55 699.762 226.268 699.48 225.92 699.48C225.572 699.48 225.29 699.762 225.29 700.11C225.29 700.458 225.572 700.74 225.92 700.74Z" fill="#10100F"/>
<path d="M515.92 126.11C516.196 126.11 516.42 125.886 516.42 125.61C516.42 125.334 516.196 125.11 515.92 125.11C515.644 125.11 515.42 125.334 515.42 125.61C515.42 125.886 515.644 126.11 515.92 126.11Z" fill="#1D1D1B"/>
<path d="M535.97 417.695C533.53 417.835 531.99 417.835 532 416.245C532 415.455 533.12 414.695 533.91 414.205C534.87 413.615 536.01 413.985 535.99 415.425L535.96 417.685L535.97 417.695Z" fill="#1D1D1B"/>
<path d="M224.42 671.11C224.22 670.43 224.25 670.24 224.31 670.32C224.37 670.4 224.48 670.74 224.42 671.11Z" fill="#1D1D1B"/>
<path d="M547.42 210.24C547.768 210.24 548.05 209.958 548.05 209.61C548.05 209.262 547.768 208.98 547.42 208.98C547.072 208.98 546.79 209.262 546.79 209.61C546.79 209.958 547.072 210.24 547.42 210.24Z" fill="#1D1D1B"/>
<path d="M544.92 211.11C545.196 211.11 545.42 210.886 545.42 210.61C545.42 210.334 545.196 210.11 544.92 210.11C544.644 210.11 544.42 210.334 544.42 210.61C544.42 210.886 544.644 211.11 544.92 211.11Z" fill="#1D1D1B"/>
<path d="M769.42 58.1099C768.06 61.7999 765.9 65.4599 765.09 69.8299C763.91 76.2099 761.99 81.9599 758.89 87.8599C762.62 87.7799 766.65 85.8799 768.91 88.5899C774.47 95.2599 765.11 105.62 765.57 111.92C765.99 117.7 764.2 121.31 762.16 126.05C753.15 146.99 742.66 166.79 730.97 186.6C729.43 189.2 729.58 192.24 727.26 194.94C725.52 196.97 718.03 207.51 718.87 208.1C719.36 208.44 719.82 209.27 720.38 208.83C720.62 208.64 721.04 208.17 721.42 208.18C723.41 208.25 727.62 207.39 728.14 210.34C727.35 212.09 723.39 214.77 723.88 216.86C726.35 218.08 727.49 216.3 728.19 214.98L732.33 207.13C734.73 202.59 738.19 198.81 739.42 194.1C739.9 192.25 740.49 190.35 741.75 188.38L758.16 162.76C763.89 153.81 768.76 144.82 774.52 136.28C776.34 136.05 777.27 133.29 779.43 133.34C781.03 133.5 781.53 136 782.53 136.73C781.73 140.21 777.27 143.5 776.9 147.24C776.4 152.23 775.01 155.54 773.08 159.77C764.33 178.89 760.09 174.95 750.48 205.11C747.76 213.65 744.09 221.29 740.69 229.52C738.95 233.73 735.05 237.14 734.2 241.69C733.62 244.81 730.77 245.9 729.69 248.16C726.61 254.57 723.91 260.69 720.02 266.64C717.3 270.81 715.22 275.18 712.63 279.48L691.65 314.4C689.11 318.62 686.99 322.97 684.25 327.04C678.83 335.1 674.88 343.43 669.85 351.62L648.21 386.86L638.53 404.32L609.03 454.67L592.57 482.29C585.1 494.81 578.7 507.44 571.21 519.97L561.11 536.87L538.63 573.31L504.83 623.32C497.52 634.13 491.9 645.32 482.72 654.6L464.47 673.04C461.86 675.68 460.3 676.17 457.35 677.27C454.4 678.37 446.39 690.04 444.49 685.61C443.36 682.99 449.8 672.44 449.43 669.12C448.2 657.86 460.98 646.05 455.03 647.1C454.63 647.17 454.4 647.59 454.43 648.12C451.03 650.9 448.71 655.06 446.72 659.32C445.31 662.35 442.91 664.36 441.29 667.07C433.3 680.4 424.47 692.71 413.43 703.13C410.47 703.88 407.73 701.82 404.74 701.56C402.18 701.34 399.77 708.61 397.36 706.74C394.45 704.49 400.2 695.51 400.43 695.25C402.23 693.25 408.23 679.44 408.76 677.2C410.01 671.91 413.83 668.11 414.54 662.47C411.7 663.51 407.82 662.74 406.19 660.06C404.37 657.08 405.33 652.2 403.66 648.97C401.99 645.74 402.43 644.36 403.6 641.39C405.37 636.93 406.53 631.58 410.82 628.4C412.37 627.26 415.59 626.3 414.06 623.62C413.3 622.29 411.08 620.13 412.98 618.69C414.6 617.47 416.85 617.69 418.64 616.06C416.17 612.86 417.77 610.47 418.64 607.68C420.29 602.45 421.59 597.32 425.47 593.64C424.29 592.52 423.84 591.67 422.98 592.1C420.77 593.21 418.99 595.35 418.41 597.12C417.32 600.47 414.5 602.79 412.09 605.31L408.85 608.7C407.95 609.64 406.18 609.28 405.44 608.7C403.57 607.22 408.26 598.69 409.75 590.59C410.76 585.11 414.5 586.14 417.13 577.08L421.49 562.1C422.15 559.85 423.92 560.1 424.29 557.09C426.01 543.04 434.88 544.75 435.92 533.34C435.78 534.83 443.36 516.1 443.22 518.5C443.41 515.08 446.54 514.64 447.3 512.44L451.69 499.62C454.11 492.54 458.03 485.86 464.08 480.65C467.41 477.78 467.06 471.36 468.65 467.33C470.64 462.3 474.69 458.88 477.82 454.72C478.77 453.45 478.45 451.31 479.42 450.17C487.14 441.03 485.85 434.23 494.24 425.08C497.76 421.24 501.83 418.51 500.19 412.15C505.87 408.82 506.82 402.95 508.94 397.51C511.94 389.81 519.78 384.18 522.3 376.58C523.73 372.28 524.6 370.54 528.34 367.57C531.02 365.44 534.61 359.4 535.6 356.07C536.91 351.65 537.4 349.78 540.84 346.34C547.03 340.14 548.52 331.97 552.71 328.47C557.41 324.55 556.56 316.81 559.59 312.38L567.38 300.99C568.95 298.7 570.24 296.6 571.41 293.73C566.1 306.78 588.64 261.99 580.09 275.73L588.64 261.98C590.68 258.7 590.41 257.29 593.17 254.88C598.6 250.14 597.56 240.28 604.65 235.08C609.24 231.71 612.01 225.12 612.8 219.33C617.02 214.66 620.27 209.36 620.61 202.64C625.26 199.39 625.69 193.6 628.84 189.58C630.83 187.04 632.79 185.95 633.39 181.91C633.95 179.49 639.12 178.6 639.96 175.96C639.94 176.03 653.23 153.62 654.09 152.85C656.11 151.04 657.39 148.44 657.39 146.14C657.39 143.62 665.27 132.06 668.56 129.27C679.82 119.68 689.69 103.63 699.39 94.2399C700.38 93.2799 706.21 88.2799 707.48 91.4399C708.03 92.7999 706.64 95.8199 708.39 96.1499C707 99.7599 705.87 102.59 706.96 106.94C707.34 109.62 703.22 111.86 704.81 115.31C705.84 112.3 715.38 100.75 716.37 99.2199C720.79 92.4299 726.45 87.3799 731.45 81.2699C738.03 73.2199 742.59 63.7799 752.06 58.7499C753.1 61.1799 751.81 63.7299 751.87 66.6199C756.79 63.3799 759.42 59.7799 762.31 56.2699C763.72 55.7999 766.8 52.8299 767.55 54.3699L769.39 58.1599L769.42 58.1099Z" fill="#02673A"/>
<path d="M412.1 605.3C409.71 611.55 405.36 617.71 399.08 621.91C402.5 603.84 409.72 588.67 415.84 572.58C419.27 563.55 421.88 554.85 426.43 546.15L435.35 529.06C438.46 523.11 442.05 517.52 444.5 511.23C447.42 503.74 449.07 495.97 453.47 488.97C466.45 468.33 477.71 447.45 489.4 426.1C496.09 413.87 503.27 402.96 510.51 391.1L546.45 332.18C551.08 324.58 554.37 317.03 558.86 309.47L573.69 284.45L583.33 266.98C588.58 257.47 593.13 248.02 599.14 238.83C603.64 231.95 607.41 225.2 611.28 217.87C620 201.36 628.79 185.39 639.08 170.36C639.55 171.31 640.29 172.08 640.93 172.1C640.76 172.1 654.92 148.14 657.42 146.09C657.42 148.38 656.14 150.99 654.12 152.8C653.26 153.57 639.97 175.98 639.99 175.91C639.15 178.55 633.99 179.44 633.42 181.86C632.82 185.9 630.86 186.99 628.87 189.53C625.72 193.54 625.3 199.33 620.64 202.59C620.3 209.31 617.05 214.62 612.83 219.28C612.04 225.07 609.27 231.67 604.68 235.03C597.58 240.23 598.62 250.09 593.2 254.83C590.44 257.24 590.71 258.65 588.67 261.93L580.12 275.68C588.67 261.93 566.13 306.73 571.44 293.68C570.27 296.55 568.98 298.65 567.41 300.94L559.62 312.33C556.59 316.75 557.44 324.5 552.74 328.42C548.54 331.92 547.05 340.09 540.87 346.29C537.43 349.73 536.94 351.6 535.63 356.02C534.64 359.35 531.05 365.39 528.37 367.52C524.63 370.49 523.76 372.23 522.33 376.53C519.8 384.13 511.97 389.76 508.97 397.46C506.85 402.9 505.9 408.77 500.22 412.1C501.86 418.47 497.79 421.19 494.27 425.03C485.88 434.18 487.16 440.98 479.45 450.12C478.48 451.27 478.81 453.4 477.85 454.67C474.72 458.83 470.67 462.25 468.68 467.28C467.08 471.31 467.44 477.73 464.11 480.6C458.06 485.82 454.14 492.5 451.72 499.57L447.33 512.39C446.58 514.59 443.45 515.03 443.25 518.45C443.38 516.04 435.81 534.77 435.95 533.29C434.91 544.7 426.05 542.99 424.32 557.04C423.95 560.05 422.17 559.8 421.52 562.05L417.16 577.03C414.52 586.08 410.79 585.06 409.78 590.54C408.29 598.64 403.61 607.18 405.47 608.65C406.21 609.24 407.98 609.6 408.88 608.65L412.12 605.26L412.1 605.3Z" fill="#0C5A35"/>
<path d="M413.42 703.11C410.78 705.6 409.43 709.99 404.42 710.09C404.25 708.58 404.78 707.18 404.14 705.15C396.81 710.06 395.18 717.5 387.47 722.11C387.07 717.86 388.83 714.17 390.85 710.47C397.52 698.27 403.65 686.49 408.3 672.46C402.3 675.34 402.31 680.76 397.24 680.07C395.33 679.81 395.91 677.61 395.24 676.41C390.61 668.15 397.7 651.68 400.83 643.63C405.22 632.34 409.17 621.43 415.06 610.77C417.51 606.34 418.31 601.38 421.96 596.84C420.29 595.62 419.62 597.33 418.41 597.1C418.99 595.32 420.77 593.19 422.98 592.08C423.84 591.65 424.29 592.5 425.47 593.62C421.58 597.3 420.29 602.44 418.64 607.66C417.76 610.45 416.17 612.83 418.64 616.04C416.85 617.67 414.6 617.45 412.98 618.67C411.08 620.1 413.3 622.27 414.06 623.6C415.59 626.28 412.36 627.23 410.82 628.38C406.53 631.56 405.36 636.91 403.6 641.37C402.42 644.34 402.07 645.89 403.66 648.95C405.34 652.18 404.37 657.06 406.19 660.04C407.82 662.71 411.7 663.48 414.54 662.45C413.83 668.09 410.01 671.89 408.76 677.18C408.23 679.42 402.22 693.24 400.43 695.23C400.2 695.49 394.45 704.47 397.36 706.72C399.77 708.59 402.18 701.32 404.74 701.54C407.73 701.8 410.47 703.86 413.43 703.11H413.42Z" fill="#0C5A35"/>
<path d="M739.42 194.11C738.19 198.82 734.73 202.6 732.33 207.14L728.19 214.99C727.49 216.32 726.35 218.1 723.88 216.87C723.4 214.79 727.35 212.1 728.14 210.35C727.62 207.4 723.41 208.26 721.42 208.19L735.9 185.46L753.28 157.62C751.75 166.48 746.62 173.05 742.83 180.58C742.37 181.49 737.49 195.06 737.34 194.35C737.72 196.13 738.02 194.44 739.42 194.11Z" fill="#0C5A35"/>
<path d="M782.53 136.74C781.52 136.01 781.03 133.5 779.43 133.35C777.27 133.3 776.35 136.06 774.52 136.29C780.17 127.92 784.5 118.78 791.05 110.21C791.36 116.3 786.27 120.39 785.03 125.82L782.54 136.74H782.53Z" fill="#0C5A35"/>
<path d="M708.42 96.1099C706.66 95.7899 708.06 92.7599 707.51 91.3999C706.24 88.2399 700.41 93.2399 699.42 94.1999C702.37 87.8999 706.38 81.1399 713.81 77.4899C712.52 84.4199 710.61 90.4099 708.42 96.1099Z" fill="#0C5A35"/>
<path d="M769.42 58.1099L767.58 54.3199C766.83 52.7899 763.76 55.7499 762.34 56.2199L769.65 47.3599C770.37 46.4799 770.85 45.7699 771.92 46.0699C772.56 46.2499 773.62 46.6499 773.2 47.7999L769.42 58.1099Z" fill="#0C5A35"/>
<path d="M449.42 669.11C447.54 668.74 446.63 670.78 445.76 672.24C444.31 672.34 442.71 671.91 444.09 671.11L451.43 656.14C452.79 653.37 454.01 650.83 454.42 648.12C454.38 647.58 454.61 647.17 455.02 647.1C460.97 646.05 448.19 657.87 449.42 669.12V669.11Z" fill="#0C5A35"/>
<path d="M47.4201 603C50.7901 601.76 32.3301 628.47 31.9301 621.78L41.6201 593.28C45.3901 582.2 50.3101 575.43 52.8001 564.28C53.8301 559.66 59.7501 547.63 62.2701 542.76L76.8301 514.65C80.8601 506.87 81.8301 498.6 89.3001 486.05L98.6301 470.38C102.78 463.41 111.87 447.45 115.67 440.41L122.03 428.61L155.95 372.7C158.79 368.03 161.97 364.34 164.4 360.11C164.81 361.48 164.28 360.85 164.4 360.11L168.85 352.38C169.87 350.61 169.9 347.73 172.25 347.44C168.2 355.55 173.82 352.21 168.87 358.46C167.29 360.46 166.13 362.27 163.29 362.97C157.42 373.61 164.99 368.03 157.38 375.46C152.46 380.26 153.09 381.51 149.65 388.55C149.24 389.38 150.14 395.97 142.54 403.38L136.89 408.89C140.54 412.3 128.27 425.01 125.73 428.94C127.29 426.54 119.06 446.15 116.67 441.23C116.42 442.07 117.4 442.72 117.51 444.09C111.24 449.89 114.99 454.29 108.61 456.17C109.67 459.57 108.82 461.05 106.79 463.73C99.0701 473.94 102.96 477.81 93.4401 487.94C91.0501 490.49 90.2501 494.25 88.4201 497.02C87.9101 497.79 85.9001 497.99 85.1801 498.33C83.8501 498.96 85.1801 501 84.5801 502.04C83.5901 503.8 81.2601 504.91 82.7101 507.49C83.6901 509.24 81.4601 511 81.5501 512.22C82.0501 518.91 78.1201 522.77 74.8201 527.5C71.5201 532.23 64.1601 550.52 59.6201 556.4C57.9701 558.54 56.1001 559.34 55.5901 562.57C55.3701 563.96 52.5301 565.11 54.3901 567.14C54.7201 567.5 54.6201 568.24 54.8501 568.6C55.4301 569.51 53.5801 569.48 53.2901 570.17C48.9901 580.54 45.0401 585.41 42.5701 597.15C42.0401 599.68 45.5101 602.56 47.3801 603.02L47.4201 603Z" fill="#AD1624"/>
<path d="M40.42 673.11C37.94 675.6 36.29 678.7 31.85 680.53C27.46 672.81 27.16 663.58 30.44 655.02L39.88 630.38L45.62 618.19C49.03 610.95 53.06 604.35 55.53 596.4C53.62 595.37 53.18 597.25 52.35 598.05C53.05 595.27 55.77 591.26 58.47 590.51C62.4 593.37 57.44 597.25 57.02 599.45C56.05 604.55 55.86 609.65 52.36 614C50 616.93 51.52 623.43 47.73 624.78C46.93 625.06 46.17 623.94 45.15 623.53C43.59 625.14 45.96 627.01 45.03 628.91C43.34 632.35 42.38 636.79 39.89 639.61C33.89 646.4 34.87 647.91 35.2 655.12C35.35 658.49 33.29 661.64 35.34 665.25C36.61 667.48 36.25 670.27 35.37 672.81C37.49 673.45 38.93 673.07 40.43 673.13L40.42 673.11Z" fill="#AD1624"/>
<path d="M399.42 67.1098C400.13 57.6898 405.33 55.0498 402.9 53.2798C400.47 51.5098 390.46 67.6298 387.17 67.8598L378.84 68.4398C378.37 69.3598 379.79 71.2998 379.2 72.2698C378.54 73.3698 376.83 73.5298 375.78 74.4298L368.47 80.6798C369.8 81.6898 371.12 81.0098 373.08 81.7898C371.37 83.0498 371.94 86.1098 370.46 87.0598C367.93 88.6798 365.99 91.6198 363.59 92.9098C359.22 95.2798 358 98.4298 356.38 102.42C355.55 104.47 352.58 107.55 352.03 109.88C348.49 111.78 342.82 111.05 340.31 115.32C340.14 116.41 340.44 117.38 340.48 118.18C334.84 117.88 337.88 130.82 328.39 137.19C327.59 135.24 338.81 121.64 330.51 123.75C333.93 122.41 333.53 118.45 335.07 115.84C337.72 111.32 337.81 107.41 338.41 102.62C338.87 98.9698 342.46 96.1498 341.73 91.5898C341.54 90.3998 344.88 88.5398 342.23 86.9298C341.16 88.0698 341.82 89.4198 341.13 90.9998C335.76 90.8598 331.47 95.8498 332.48 100.93C333.32 105.16 329.3 103.98 327.72 105.49C325 108.1 321.63 110.79 319.04 113.62L305.08 128.8C301.99 132.16 299.86 136.65 296.99 140.29C295.94 141.63 298.45 145.14 295.54 146.27C291.91 147.67 290.44 151.16 291.38 155.1L284.7 160.44L280.54 167.91C277.18 173.94 275.48 179.4 269.13 182.32C264.25 184.57 263.01 192.45 259.78 196.32C257.35 199.23 242.63 227.16 247.57 220.12L240.79 229.76L233.62 241.59C232.22 243.91 224.63 257.06 224.98 257.17C225.59 257.37 226.86 256.89 227.46 257.35C229.41 258.85 227.83 263.14 225.69 263.65C224.96 263.82 224.17 262.45 223.66 262.42C219.39 262.16 221.64 267.72 215.83 271.9C211.55 276.65 226.23 250.74 223.48 255.05C231.84 241.96 239.62 229.13 247.05 215.47L261.03 189.76C262.35 187.34 272.07 172.8 272.28 172.71C272.9 172.43 274.1 172.91 275.46 172.91C278.11 167.67 280.99 162.21 284.48 157.17C291.19 147.47 295.37 135.99 303.85 127.72C308.85 122.85 314.11 118.63 317.95 112.57C321.41 107.11 325.96 102.69 329.84 97.6598C332.17 94.6398 342.04 76.5598 346.43 79.5298C348.11 80.6598 343.21 94.2998 342.07 97.8898C341.01 101.21 341.14 104.44 340.63 107.63C340.23 110.12 337.24 112.15 338.64 115.28C341.01 115.25 340.37 112.31 341.43 110.96L361.87 84.8298C363.5 82.7398 365.74 81.0798 367.2 78.8098C372.15 71.1298 377.79 64.3398 385.4 58.3298C387.72 61.1198 386 63.3198 385.44 67.0098C386.72 65.7998 388.66 65.1398 389.92 63.7098L405.01 46.4998C406.76 46.4198 407.41 48.0198 407.48 48.8498C407.59 50.0598 406.37 51.5098 405.91 52.5398L399.44 67.1298L399.42 67.1098Z" fill="#AD1624"/>
<path d="M374.42 190.11L371.93 193.52C365.87 201.83 371.93 200.92 366.51 209.12C361.79 216.27 363.22 213.43 358.79 217.27C357.4 214.39 359.39 213.68 361.53 212.67C359.78 211.64 357.83 211 356.71 209.16C358.59 204.63 361.35 201.06 363.42 197.1C365.49 193.14 368.41 189.9 370.67 186.19L371.76 188.01C375.87 184.36 376.16 180.12 377.47 176.11C378.96 171.57 381.63 166.75 385.88 162.87C384.06 170.89 376.84 180.08 374.41 190.11H374.42Z" fill="#AD1624"/>
<path d="M99.42 671.11C99.95 675.52 94.42 674.66 92.04 676.57C87.79 679.98 85.24 685.46 79.03 687.53C75.75 683.32 83.8 673.58 83.2 669.13C81.01 670.6 80.84 673.36 77.78 672.12C81.79 664.76 84.35 657.5 88.41 651.12C88.82 656.81 86.4 653.73 85.5 661.7C85.35 663.07 87.23 663.88 88.82 665.19C85.6 669.96 82.98 674.8 85.04 680.51C96.22 670.92 93.14 677.36 99.41 671.13L99.42 671.11ZM82.53 682.11C82.53 681.5 82.03 681 81.42 681C80.81 681 80.31 681.5 80.31 682.11C80.31 682.72 80.81 683.22 81.42 683.22C82.03 683.22 82.53 682.72 82.53 682.11Z" fill="#AD1624"/>
<path d="M411.42 144.11C411.46 142.92 412.58 141.72 412.98 139.67C407.93 134.93 398.36 155.39 397.63 156.59L386.87 174.28C384.89 177.53 383.44 178.7 381.57 181.07C384.25 173.32 392.14 163.97 395.91 156.64C398.95 150.73 402.72 145.68 406.2 140.06L414.62 126.44C417.27 122.16 418.85 117.7 422.84 113.54C423.54 118.35 421.17 122.13 418.86 125.44C417.02 128.08 418.1 130.4 417.94 133.11C417.85 134.63 413.07 145.8 411.42 144.12V144.11Z" fill="#AD1624"/>
<path d="M30.61 711.48C31.6 713.17 21.32 726.13 21 720.29C21.74 713.34 26.66 708.09 30 702.56C30.67 706.3 25.84 710.99 30.61 711.48Z" fill="#AD1624"/>
<path d="M356.4 261.15C356.66 263.25 355.46 264.98 354.27 266.98L337.82 294.6L316.59 329.33L300.79 356.58L287.54 378.31C282.76 386.15 279.42 394.69 273.31 400.93C269.51 401.35 275.76 391.55 269.28 392.06C267.87 392.17 268.91 395.71 266.33 394.75C269.55 389.94 272.02 385.23 273.9 379.84C275.04 376.57 277.34 374.47 279.04 371.87L290.18 354.84L293.86 347.7C295.8 343.94 297.44 340.97 301.25 339.51C292.3 365.53 311.71 331.02 311.82 330.75C313.93 325.7 316.65 322.5 320.83 319.38C322.5 318.14 321.17 313.06 324.25 311.68C327.13 310.39 326.77 306.83 328.12 304.5C340.59 282.99 334.19 297.23 340.64 286.87C343.72 281.92 347.05 277.78 348.09 271.44C347.93 272.4 354.41 258.03 356.43 261.14L356.4 261.15ZM298.27 352.51C298.62 350.64 296.8 350.17 295.96 350.62C296.54 350.31 290.56 354.64 293.85 358.27C295.53 357.06 297.69 355.6 298.27 352.5V352.51ZM293.57 361.4C295.19 360.31 293.82 358.51 292.64 359.95C289.46 362.48 286.35 365.32 286.86 369.49C291.23 367.94 290.58 363.99 293.57 361.39V361.4ZM274.48 389.46C281 386.74 281.39 381.12 283.72 376.4C284.11 375.61 286.03 374.74 285.29 373.68C282.7 369.97 282.03 380.77 275.6 381.73C274.89 383.97 272.5 387.11 274.48 389.46Z" fill="#AD1624"/>
<path d="M35.39 705.11C35.97 703.53 36.88 701.87 38.11 701.33C40.34 700.35 41.65 702.42 43.07 703.99C48.17 704.55 63.46 682.8 66.44 678.2L80.55 656.44C82.51 653.42 83.6 649.87 86.54 647.98C86.42 650.28 84.41 651.74 83.23 653.92L78.66 662.35C75.21 668.72 70.44 674.12 66.87 680.49C64.2 685.24 60.77 688.98 57.49 693.14C54.62 696.77 52.7 700.86 47.98 702.75C46.2 705.54 44.04 709.47 40.22 709.88C38.15 710.1 37.98 705.57 39.51 704.47C37.61 703.59 36.46 704.47 35.4 705.12L35.39 705.11Z" fill="#AD1624"/>
<path d="M370.67 186.2C372.77 182.76 373.71 178 377.47 176.11C376.15 180.12 375.87 184.37 371.76 188.01L370.67 186.19V186.2Z" fill="#C21127"/>
<path d="M361.7 252.06C360.83 254.42 360.51 257.79 357.76 259.24C356.66 257.83 356.35 256.03 357.57 254.69C358.69 253.46 360.14 252.52 361.7 252.06Z" fill="#AD1624"/>
<path d="M340.07 254.64C332.66 262.25 338.41 261.23 330.62 264.93C334.63 255.87 340.43 248.12 345.91 239.01C345.59 242.45 343.17 244.84 341.15 248.17C342.14 248.84 343.31 248.24 343.43 248.91C343.64 250.04 342.96 251.95 341.66 252.35C341.02 252.55 340.4 252.42 339.86 252.4C338.98 252.37 340.5 254.19 340.07 254.63V254.64Z" fill="#AD1624"/>
<path d="M349.13 240.07C347.92 238.02 346.89 238.03 346.61 237.48C346.21 236.71 346.68 235.97 346.98 234.91C349.53 232.92 350.85 230.71 352.19 228.08C351.69 230.82 352.77 233.19 351.79 235.05L349.14 240.07H349.13Z" fill="#AD1624"/>
<path d="M348.61 116.82C347.76 119.08 345.41 121.6 343.88 119.48C342.93 118.16 347.31 112.34 349.22 114.71C349.55 115.12 349.02 115.73 348.61 116.82Z" fill="#AD1624"/>
<path d="M354.55 223.77C355.62 222.55 355.43 220.88 357.29 220.11C356.6 221.47 356.59 223.15 354.55 223.77Z" fill="#AD1624"/>
<path d="M302.92 337.11C303.196 337.11 303.42 336.886 303.42 336.61C303.42 336.334 303.196 336.11 302.92 336.11C302.644 336.11 302.42 336.334 302.42 336.61C302.42 336.886 302.644 337.11 302.92 337.11Z" fill="#AD1624"/>
<path d="M354.92 210.11C355.196 210.11 355.42 209.886 355.42 209.61C355.42 209.334 355.196 209.11 354.92 209.11C354.644 209.11 354.42 209.334 354.42 209.61C354.42 209.886 354.644 210.11 354.92 210.11Z" fill="#AD1624"/>
<path d="M357.92 219.11C358.196 219.11 358.42 218.886 358.42 218.61C358.42 218.334 358.196 218.11 357.92 218.11C357.644 218.11 357.42 218.334 357.42 218.61C357.42 218.886 357.644 219.11 357.92 219.11Z" fill="#AD1624"/>
<path d="M399.42 67.1099C399.04 72.1699 397.92 77.6999 395.84 82.7199C394.92 84.9599 391.7 86.6299 393.91 88.9799C396.31 88.1299 399.74 86.5399 401.91 87.6299C405.35 89.3499 404.82 94.0099 403.92 96.9399L399.58 111.13C397.66 117.4 403.58 113.94 389.02 142.91C382.21 156.47 375.42 169.56 367.92 182.74C365.94 186.22 363.39 188.99 364 193.66C364.06 194.14 362.57 195.16 362.55 195.87C362.54 196.33 362.24 197.18 363.42 197.09C361.36 201.05 358.59 204.62 356.71 209.15C357.84 210.99 359.78 211.62 361.53 212.66C359.4 213.68 357.4 214.38 358.79 217.26C363.21 213.42 361.78 216.26 366.51 209.11C371.93 200.9 365.87 201.82 371.93 193.51L374.42 190.1L381.57 181.05C383.44 178.68 384.89 177.52 386.87 174.26L397.63 156.57C398.36 155.37 407.93 134.91 412.98 139.65C412.58 141.7 411.46 142.9 411.42 144.09C411.14 153.15 407.76 161.36 402.46 169.08C381.99 198.89 386.51 211.93 366.41 245.13C364.84 247.72 363.83 250.3 361.7 252.03C360.13 252.49 358.69 253.42 357.57 254.66C356.35 256 356.66 257.8 357.76 259.21C357.18 259.52 357.15 260.86 356.4 261.12C354.38 258.01 347.9 272.38 348.06 271.42C347.03 277.76 343.7 281.89 340.61 286.85C334.16 297.21 340.56 282.97 328.09 304.48C326.74 306.81 327.09 310.37 324.22 311.66C321.14 313.04 322.47 318.12 320.8 319.36C316.62 322.47 313.9 325.68 311.79 330.73C311.68 330.99 292.27 365.51 301.22 339.49C297.42 340.95 295.77 343.92 293.83 347.68L290.15 354.82L279.01 371.85C277.31 374.45 275.01 376.55 273.87 379.82C271.99 385.21 269.52 389.93 266.3 394.73C268.88 395.69 267.84 392.15 269.25 392.04C275.73 391.53 269.48 401.33 273.28 400.91C272.86 404.16 270.68 407.28 268.83 410.37L250 441.78L236 465.81L214.69 503.55L206.74 516.59L191.83 541.66C190.22 544.37 188.58 546.97 186.89 549.88L179.62 562.34C177.88 565.32 175.88 567.97 173.98 570.51L169.17 576.92L149.27 607.08C137.18 625.4 125.98 643.75 112.16 660.65C112.11 660.71 99.6599 672.69 99.3899 671.1C93.1099 677.33 96.1899 670.89 85.0199 680.48C82.9599 674.77 85.5899 669.94 88.7999 665.16C87.2099 663.86 85.3199 663.05 85.4799 661.67C86.3799 653.7 88.7999 656.78 88.3899 651.09C89.5499 649.27 90.2399 646.65 90.3099 643.95C88.3099 645.39 88.0699 646.96 86.4999 647.96C83.5599 649.85 82.4699 653.4 80.5099 656.42L66.3999 678.18C63.4199 682.77 48.1299 704.52 43.0299 703.97C41.6099 702.4 40.2999 700.33 38.0699 701.31C36.8399 701.85 35.9299 703.52 35.3499 705.09C34.4399 707.57 32.3599 709.79 30.5699 711.45C25.7999 710.97 30.6299 706.27 29.9599 702.53C32.7999 697.84 41.9699 676.67 43.3199 670.1C41.1299 670.12 41.2999 672.16 40.3799 673.09C38.8899 673.02 37.4399 673.41 35.3199 672.77C36.1999 670.24 36.5499 667.45 35.2899 665.21C33.2399 661.6 35.2999 658.46 35.1499 655.08C34.8199 647.87 33.8399 646.36 39.8399 639.57C42.3299 636.76 43.2799 632.31 44.9799 628.87C45.9099 626.97 43.5399 625.1 45.0999 623.49C46.1099 623.9 46.8799 625.03 47.6799 624.74C51.4699 623.39 49.9599 616.89 52.3099 613.96C55.8099 609.6 55.9999 604.51 56.9699 599.41C57.3899 597.2 62.3399 593.33 58.4199 590.47C55.7199 591.22 52.9999 595.23 52.2999 598.01C51.7699 600.13 48.8099 601.63 47.3799 602.98C45.5099 602.52 42.0299 599.64 42.5699 597.11C45.0399 585.38 48.9899 580.5 53.2899 570.13C53.5799 569.44 55.4299 569.47 54.8499 568.56C54.6199 568.21 54.7199 567.46 54.3899 567.1C52.5299 565.06 55.3699 563.91 55.5899 562.53C56.0999 559.3 57.9699 558.5 59.6199 556.36C64.1599 550.48 71.4699 532.26 74.8199 527.46C78.1699 522.66 82.0499 518.87 81.5499 512.18C81.4599 510.95 83.6899 509.2 82.7099 507.45C81.2599 504.87 83.5899 503.76 84.5799 502C85.1699 500.96 83.8499 498.92 85.1799 498.29C85.8899 497.95 87.8999 497.76 88.4199 496.98C90.2499 494.21 91.0499 490.45 93.4399 487.9C102.95 477.77 99.0599 473.9 106.79 463.69C108.82 461 109.68 459.53 108.61 456.13C114.99 454.25 111.24 449.84 117.51 444.05C117.4 442.68 116.42 442.04 116.67 441.19C119.05 446.11 127.28 426.49 125.73 428.9C128.27 424.98 140.54 412.26 136.89 408.85L142.54 403.34C150.13 395.93 149.24 389.34 149.65 388.51C153.09 381.47 152.46 380.23 157.38 375.42C164.99 368 157.42 373.58 163.29 362.93C166.13 362.24 167.28 360.42 168.87 358.42C173.82 352.18 168.2 355.51 172.25 347.4C178.43 335.05 191.85 311.56 198.68 299.57C204.24 289.81 208.68 284.29 212.68 275.28C213.42 273.62 214.55 272.73 215.8 271.84C221.62 267.66 219.36 262.11 223.63 262.36C224.14 262.39 224.93 263.76 225.66 263.59C227.8 263.08 229.38 258.79 227.43 257.29C226.83 256.83 225.55 257.31 224.95 257.11C224.6 257 232.19 243.85 233.59 241.53L240.76 229.7L247.54 220.06C242.59 227.09 257.32 199.17 259.75 196.26C262.97 192.4 264.22 184.51 269.1 182.26C275.46 179.33 277.16 173.87 280.51 167.85L284.67 160.38L291.35 155.04C290.42 151.1 291.88 147.62 295.51 146.21C298.42 145.09 295.91 141.57 296.96 140.23C299.83 136.59 301.97 132.1 305.05 128.74L319.01 113.56C321.61 110.74 324.97 108.04 327.69 105.43C329.27 103.91 333.29 105.1 332.45 100.87C331.45 95.7899 335.74 90.7999 341.1 90.9399C341.78 89.3599 341.12 88.0099 342.2 86.8699C344.85 88.4699 341.51 90.3399 341.7 91.5299C342.43 96.0899 338.84 98.9199 338.38 102.56C337.78 107.35 337.69 111.26 335.04 115.78C333.51 118.39 333.9 122.35 330.48 123.69C338.78 121.58 327.56 135.18 328.36 137.13C337.85 130.76 334.81 117.82 340.45 118.12C340.41 117.32 340.11 116.35 340.28 115.26C342.79 110.99 348.46 111.72 352 109.82C352.56 107.49 355.52 104.41 356.35 102.36C357.97 98.3699 359.19 95.2199 363.56 92.8499C365.96 91.5499 367.9 88.6199 370.43 86.9999C371.91 86.0499 371.34 82.9899 373.05 81.7299C371.09 80.9599 369.78 81.6399 368.44 80.6199L375.75 74.3699C376.81 73.4699 378.51 73.3099 379.17 72.2099C379.75 71.2399 378.34 69.2899 378.81 68.3799L387.14 67.7999C390.43 67.5699 400.45 51.4699 402.87 53.2199C405.29 54.9699 400.11 57.6299 399.39 67.0499L399.42 67.1099ZM348.61 116.82C349.02 115.72 349.55 115.12 349.22 114.71C347.31 112.34 342.93 118.16 343.88 119.48C345.41 121.61 347.75 119.09 348.61 116.82ZM355.42 209.61C355.42 209.33 355.2 209.11 354.92 209.11C354.64 209.11 354.42 209.33 354.42 209.61C354.42 209.89 354.64 210.11 354.92 210.11C355.2 210.11 355.42 209.89 355.42 209.61ZM358.42 218.61C358.42 218.33 358.2 218.11 357.92 218.11C357.64 218.11 357.42 218.33 357.42 218.61C357.42 218.89 357.64 219.11 357.92 219.11C358.2 219.11 358.42 218.89 358.42 218.61ZM354.55 223.77C356.58 223.16 356.6 221.47 357.29 220.11C355.43 220.87 355.63 222.55 354.55 223.77ZM349.13 240.07L351.78 235.05C352.76 233.19 351.68 230.82 352.18 228.08C350.85 230.71 349.52 232.92 346.97 234.91C346.67 235.97 346.2 236.72 346.6 237.48C346.89 238.03 347.91 238.02 349.12 240.07H349.13ZM340.07 254.64C340.5 254.2 338.98 252.38 339.86 252.41C340.4 252.43 341.02 252.55 341.66 252.36C342.96 251.96 343.64 250.05 343.43 248.92C343.31 248.25 342.13 248.85 341.15 248.18C343.16 244.85 345.58 242.46 345.91 239.02C340.44 248.13 334.63 255.88 330.62 264.94C338.41 261.24 332.66 262.26 340.07 254.65V254.64ZM303.42 336.61C303.42 336.33 303.2 336.11 302.92 336.11C302.64 336.11 302.42 336.33 302.42 336.61C302.42 336.89 302.64 337.11 302.92 337.11C303.2 337.11 303.42 336.89 303.42 336.61Z" fill="#C21127"/>
<path d="M274.48 389.46C272.5 387.1 274.89 383.96 275.6 381.73C282.04 380.77 282.7 369.97 285.29 373.68C286.03 374.74 284.11 375.61 283.72 376.4C281.39 381.12 281 386.74 274.48 389.46Z" fill="#C21127"/>
<path d="M293.57 361.4C290.58 363.99 291.23 367.95 286.86 369.5C286.35 365.33 289.46 362.49 292.64 359.96C293.82 358.52 295.19 360.31 293.57 361.41V361.4Z" fill="#C21127"/>
<path d="M298.27 352.51C297.68 355.6 295.53 357.06 293.85 358.28C290.56 354.65 296.54 350.32 295.96 350.63C296.8 350.18 298.63 350.64 298.27 352.52V352.51Z" fill="#C21127"/>
<path d="M81.4201 683.22C82.0331 683.22 82.5301 682.723 82.5301 682.11C82.5301 681.497 82.0331 681 81.4201 681C80.807 681 80.3101 681.497 80.3101 682.11C80.3101 682.723 80.807 683.22 81.4201 683.22Z" fill="#C21127"/>
<path d="M164.42 360.11C164.62 360.79 164.59 360.98 164.53 360.9C164.47 360.82 164.36 360.48 164.42 360.11Z" fill="#C21127"/>
</g>
<defs>
<filter id="filter0_d_2_4" x="884.949" y="43.0276" width="1757.22" height="721.864" filterUnits="userSpaceOnUse" color-interpolation-filters="sRGB">
<feFlood flood-opacity="0" result="BackgroundImageFix"/>
<feColorMatrix in="SourceAlpha" type="matrix" values="0 0 0 0 0 0 0 0 0 0 0 0 0 0 0 0 0 0 127 0" result="hardAlpha"/>
<feOffset dy="4"/>
<feGaussianBlur stdDeviation="2"/>
<feComposite in2="hardAlpha" operator="out"/>
<feColorMatrix type="matrix" values="0 0 0 0 0 0 0 0 0 0 0 0 0 0 0 0 0 0 0.11 0"/>
<feBlend mode="normal" in2="BackgroundImageFix" result="effect1_dropShadow_2_4"/>
<feBlend mode="normal" in="SourceGraphic" in2="effect1_dropShadow_2_4" result="shape"/>
</filter>
<clipPath id="clip0_2_4">
<rect width="2681" height="783" fill="white"/>
</clipPath>
</defs>
</svg>
