<svg width="783" height="783" viewBox="0 0 783 783" fill="none" xmlns="http://www.w3.org/2000/svg">
<path d="M211.088 625.693C212.791 618.698 215.838 612.042 218.702 605.434C218.915 605.183 219.688 604.854 219.669 604.467C219.592 603.267 220.598 602.493 220.956 601.487L219.659 614.973C219.214 619.617 220.966 624.638 217.492 628.817C214.996 628.237 213.061 626.641 211.078 625.693H211.088Z" fill="#10100F"/>
<path d="M216.767 654.764H215.799C215.403 653.439 215.915 654.049 215.799 654.764C215.78 655.635 215.103 656.167 214.638 656.806C213.468 656.022 211.62 655.316 210.662 655.945C209.375 656.796 209.114 659.524 210.71 659.428C211.688 659.37 212.452 657.502 212.907 658.518C211.61 660.734 208.224 663.317 205.67 662.253L203.58 657.464C200.175 649.656 207.924 633.161 209.995 626.699C211.91 627.618 210.778 630.375 210.749 632.861C212.229 633.945 214.087 633.451 215.857 634.177C218.905 640.291 213.98 644.809 220.724 646.541L216.767 654.755V654.764Z" fill="#10100F"/>
<path d="M213.864 685.723C207.14 689.864 202.942 700.767 196.798 704.037C196.034 702.412 196.45 700.225 197.437 698.261L205.534 682.25C206.483 680.383 207.585 678.728 209.162 677.906C211.62 679.164 212.103 681.718 212.191 684.523C213.69 684.291 214.338 683.711 215.296 683.798C216.089 683.866 215.557 684.93 215.122 685.462C214.87 685.771 214.135 685.549 213.855 685.723H213.864Z" fill="#10100F"/>
<path d="M529.999 200.797C529.592 200.748 529.157 200.836 528.954 200.613C528.567 200.178 528.364 199.026 528.644 198.272L530.927 192.061C531.121 191.538 530.657 191.18 530.221 191.364L543.572 170.835C544.627 169.219 544.298 166.568 546.9 166.278L534.913 192.177C533.404 195.428 531.943 198.214 530.008 200.807L529.999 200.797Z" fill="#1D1D1B"/>
<path d="M257.4 650.895C254.71 651.94 254.004 655.461 250.521 655.945C252.882 651.011 256.161 647.209 257.854 642.71C259.925 643.097 262.624 642.71 264.443 643.552C264.917 644.655 264.143 647.17 263.262 647.76C262.382 648.35 260.36 647.276 259.189 647.47C257.893 647.683 258.019 650.043 257.409 650.895H257.4Z" fill="#10100F"/>
<path d="M560.87 74.283C560.754 74.7861 560.58 75.8406 560.686 76.3437C559.738 75.976 559.622 76.6339 559.419 77.0692C559.187 77.5723 559.429 79.5653 558.8 79.8071C555.898 80.9294 555.994 78.2786 556.759 76.1308C557.32 74.5539 558.984 73.7993 560.851 74.283H560.87Z" fill="#1D1D1B"/>
<path d="M564.963 103.326L561.393 113.078C562.767 120.044 560.58 125.452 557.542 131.498L547.791 150.915C540.573 165.282 536.916 174.056 527.571 187.678C529.709 193.444 511.801 210.829 520.702 206.843L523.982 212.377C524.988 209.291 526.729 210.491 525.868 212.609C526.042 213.451 526.739 213.151 525.839 215.057C529.07 210.549 529.612 209.146 530.096 206.176C530.773 202.064 538.609 191.558 539.093 190.242C543.447 189.7 537.603 199.355 545.875 201.938C546.301 204.56 542.295 211.332 544.743 210.723C541.86 218.056 539.151 225.757 534.846 232.887C533.056 235.857 531.46 238.344 530.018 241.652C527.368 247.728 523.585 253.117 520.267 258.999L504.971 286.088L498.886 294.678C498.092 295.801 479.072 329.023 477.989 330.677C477.021 330.368 475.561 328.694 474.08 329.246C467.589 331.645 468.779 338.591 463.08 340.971C462.635 345.344 459.926 349.088 457.595 352.764C455.263 356.441 454.006 359.846 449.797 361.626C447.582 362.565 447.591 364.18 447.195 366.106C446.856 367.76 444.573 368.989 445.86 371.349C438.768 377.899 445.221 379.785 444.002 382.997C443.557 384.187 442.125 384.797 441.535 386.093L436.359 397.374C436.117 397.906 435.411 398.264 435.411 398.844C435.411 399.183 435.943 399.502 436.388 399.367C432.267 407.455 425.195 420.264 419.767 428.177C420.89 426.533 410.151 444.953 409.919 445.369L406.397 451.57L379.57 498.163L371.018 513.11C369.818 515.209 368.899 517.164 367.535 519.253L361.033 529.199C349.985 546.1 349.501 552.485 332.745 573.421C327.221 580.329 326.282 583.26 321.629 590.371L305.947 614.286C303.499 618.021 301.467 622.007 298.671 625.373C296.765 627.676 295.024 629.446 293.544 632.058C291.638 635.425 288.62 638.173 286.269 641.172C280.619 648.408 272.231 656.728 264.114 660.637C261.212 662.03 255.484 670.099 252.108 669.286C249.051 668.56 258.483 653.681 257.39 650.885C258 650.034 257.874 647.673 259.17 647.46C260.341 647.267 262.324 648.37 263.243 647.751C264.162 647.131 264.907 644.645 264.424 643.542C262.605 642.7 259.906 643.087 257.835 642.7C259.76 637.573 263.127 633.065 263.949 627.608C257.052 636.277 252.398 645.332 246.738 653.787C245.036 653.613 243.836 655.258 243.836 656.69V657.657C243.188 657.531 242.308 657.531 242.056 658.218C241.892 658.663 241.853 659.195 241.901 659.592C242.327 663.133 238.863 665.261 236.861 668.067C232.343 674.375 227.389 679.676 222.107 685.288C219.718 687.822 217.947 691.16 214.193 692.737C212.636 690.048 213.961 687.9 213.845 685.723C214.116 685.549 214.861 685.771 215.112 685.462C215.548 684.92 216.08 683.866 215.287 683.798C214.329 683.711 213.681 684.291 212.181 684.523C212.094 681.708 211.61 679.164 209.153 677.906C208.011 676.571 220.453 653.352 216.747 654.765L220.704 646.551C213.961 644.819 218.895 640.311 215.838 634.187C214.068 633.461 212.21 633.955 210.73 632.871C210.759 630.375 211.891 627.628 209.975 626.708L211.068 625.683C213.042 626.631 214.977 628.227 217.483 628.808C220.956 624.638 219.195 619.617 219.65 614.964L220.946 601.477C223.539 594.183 227.941 587.855 231.259 579.903C220.985 586.356 218.74 597.482 208.524 606.953C206.696 604.96 209.143 602.658 209.695 600.258C213.236 584.953 219.601 571.419 225.213 556.994C228.705 548.006 231.317 539.357 235.884 530.718L249.592 504.771C254.681 495.135 254.952 488.121 264.046 472.787L270.141 462.512L293.805 420.331L305.502 401.021L322.693 372.868L345.477 335.505L360.105 309.374C369.489 292.608 379.773 276.906 388.838 259.937C390.57 256.696 392.147 253.436 393.849 250.35L400.37 238.489C407.413 225.68 415.182 213.945 421.731 200.923C427.014 190.406 433.118 181.08 439.513 170.99C440.655 171.599 440.452 172.818 441.777 174.066L449.159 160.599L459.975 142.343C462.364 138.309 464.067 133.52 467.656 130.734L475.29 124.813C480.224 120.992 483.039 114.955 487.209 110.543C487.779 112.101 486.386 113.6 486.154 115.429L485.274 122.356C484.896 125.345 484.035 128.857 483.378 131.527C483.29 131.895 481.636 132.175 481.346 132.011C480.949 131.788 479.798 133.104 480.746 133.539C483.784 134.933 487.528 134.342 490.401 136.664C491.901 137.883 488.737 139.46 490.498 141.734C490.817 138.87 494.861 138.357 495.587 136.558C501.382 122.327 501.159 132.862 501.208 120.721C508.386 110.504 508.773 108.55 517.741 98.5661C520.924 95.0252 522.859 90.1976 526.961 87.4791C528.945 86.173 529.293 83.8704 531.199 82.9997C533.511 83.377 533.53 80.3586 535.001 79.0912C536.829 77.524 537.081 82.3612 538.222 82.8643C554.456 84.2768 543.698 91.049 557.765 94.0771C559.003 96.3409 557.533 99.4464 559.11 101.468C560.493 103.239 563.473 102.165 564.963 103.326ZM217.86 682.821C217.86 682.482 217.589 682.211 217.251 682.211C216.912 682.211 216.641 682.482 216.641 682.821C216.641 683.159 216.912 683.43 217.251 683.43C217.589 683.43 217.86 683.159 217.86 682.821Z" fill="#10100F"/>
<path d="M544.733 211.671C542.286 212.281 546.301 205.518 545.865 202.887C537.594 200.303 543.427 190.648 539.083 191.19C542.063 182.938 548.129 176.272 552.56 168.397C560.406 154.466 568.562 141.434 577.211 128.112C580.481 123.072 582.154 117.422 587.021 113.088C587.03 119.008 577.25 130.802 580.268 134.594C580.955 136.345 569.858 152.947 569.936 152.124C569.877 152.743 572.364 153.788 572.48 154.514C569.481 165.214 555.279 182.705 552.763 191.548C552.183 193.599 550.083 194.828 549.232 196.018C548.168 201.194 546.62 206.824 544.724 211.661L544.733 211.671Z" fill="#10100F"/>
<path d="M501.198 121.698C501.149 133.839 501.372 123.304 495.577 137.535C494.842 139.325 490.807 139.847 490.488 142.711C488.727 140.437 491.891 138.851 490.391 137.641C487.518 135.32 483.774 135.9 480.736 134.517C479.778 134.081 480.939 132.765 481.336 132.988C481.626 133.152 483.281 132.872 483.368 132.504C484.026 129.834 484.887 126.322 485.264 123.333L486.144 116.406C486.376 114.577 487.76 113.078 487.199 111.52C489.008 109.605 490.13 106.654 492.607 104.322C498.537 98.7401 501.44 85.5924 511.801 81.771L505.464 104.313C504.671 107.147 506.857 110.069 504.884 112.778C503.055 115.284 501.198 118.97 501.188 121.707L501.198 121.698ZM498.295 127.986C498.295 127.715 498.083 127.503 497.812 127.503C497.541 127.503 497.328 127.715 497.328 127.986C497.328 128.257 497.541 128.47 497.812 128.47C498.083 128.47 498.295 128.257 498.295 127.986Z" fill="#10100F"/>
<path d="M560.871 75.2504C558.994 74.7667 557.339 75.5213 556.778 77.0982C556.004 79.246 555.908 81.8968 558.82 80.7746C559.448 80.5327 559.207 78.5397 559.439 78.0367C559.642 77.6013 559.748 76.9434 560.706 77.3111C561.838 78.414 556.894 90.4491 556.469 91.7165C560.116 92.0067 562.293 90.4394 564.682 90.8748C568.775 95.0445 566.492 100.153 564.973 104.293C563.483 103.142 560.503 104.206 559.119 102.436C557.543 100.414 559.003 97.318 557.775 95.0445C543.708 92.0164 554.466 85.2442 538.232 83.8317C537.091 83.319 536.829 78.4914 535.011 80.0586C533.53 81.326 533.521 84.3541 531.208 83.9672C531.412 81.3067 533.627 79.6523 535.465 77.5433C540.825 71.3806 538.087 71.2355 550.016 62.0737C551.099 65.5662 549.522 68.5846 547.646 71.1484C549.416 71.7966 550.587 70.9356 551.728 70.4518C550.935 71.0323 549.9 74.3507 551.796 74.1088C554.002 73.8379 555.163 70.2583 556.769 68.7685C554.263 67.6269 554.495 70.1713 552.676 69.6972C555.811 64.1634 560.184 59.4616 564.702 54.5179C566.25 52.8248 566.782 49.8354 570.294 51.2963C568.62 55.9884 566.23 60.3129 564.528 65.0631L560.89 75.2214L560.871 75.2504Z" fill="#10100F"/>
<path d="M477.979 331.635L470.694 342.819C467.995 346.969 466.089 351.362 463.409 355.812L457.247 366.038C454.712 370.237 453.009 375.354 448.965 378.073L448.994 375.887C449.014 374.493 447.901 374.126 446.982 374.706C446.218 375.18 445.144 375.916 445.134 376.68C445.115 378.218 446.605 378.218 448.975 378.083C447.059 385.3 439.61 394.036 436.398 400.334C435.953 400.47 435.421 400.15 435.421 399.812C435.421 399.222 436.117 398.873 436.369 398.341L441.545 387.061C442.135 385.764 443.567 385.155 444.012 383.965C445.221 380.753 438.778 378.857 445.869 372.317C444.583 369.956 446.856 368.727 447.204 367.073C447.601 365.148 447.591 363.532 449.807 362.594C454.015 360.814 455.379 357.234 457.605 353.732C459.946 350.046 462.645 346.302 463.09 341.939C468.779 339.559 467.598 332.612 474.09 330.213C475.57 329.662 477.031 331.335 477.999 331.645L477.979 331.635Z" fill="#10100F"/>
<path d="M529.999 201.764C528.809 203.351 529.129 206.002 527.155 207.501C528.79 208.285 529.303 207.414 530.086 207.143C529.593 210.113 529.061 211.516 525.83 216.025C526.729 214.119 526.033 214.419 525.859 213.577C526.729 211.458 524.978 210.258 523.972 213.345L520.692 207.811C521.873 204.105 524.756 201.281 526.923 197.73L530.222 192.332C530.657 192.148 531.122 192.506 530.928 193.028L528.645 199.239C528.364 199.994 528.567 201.145 528.954 201.58C529.158 201.813 529.583 201.716 529.999 201.764ZM528.896 209.252C528.896 208.914 528.625 208.643 528.287 208.643C527.948 208.643 527.677 208.914 527.677 209.252C527.677 209.591 527.948 209.862 528.287 209.862C528.625 209.862 528.896 209.591 528.896 209.252ZM526.352 210.22C526.352 209.949 526.139 209.736 525.868 209.736C525.597 209.736 525.385 209.949 525.385 210.22C525.385 210.491 525.597 210.704 525.868 210.704C526.139 210.704 526.352 210.491 526.352 210.22Z" fill="#10100F"/>
<path d="M551.699 70.4809C552.193 70.1229 552.463 69.9101 552.647 69.736C554.466 70.2197 554.234 67.6656 556.74 68.8072C555.134 70.2874 553.973 73.867 551.767 74.1476C549.871 74.3894 550.896 71.071 551.699 70.4906V70.4809Z" fill="#10100F"/>
<path d="M214.629 656.806C214.358 657.174 214.648 658.044 214.01 658.218C213.613 658.325 213.274 658.509 212.897 658.518C212.442 657.502 211.678 659.37 210.701 659.428C209.105 659.524 209.376 656.787 210.653 655.945C211.601 655.316 213.449 656.022 214.629 656.806Z" fill="#1D1D1B"/>
<path d="M246.758 653.797C245.974 654.958 245.297 656.216 243.855 656.699C243.855 655.268 245.055 653.623 246.758 653.797Z" fill="#10100F"/>
<path d="M243.84 657.499C243.84 658.418 242.815 659.115 241.905 659.434C241.857 659.028 241.886 658.505 242.06 658.06C242.321 657.373 243.192 657.383 243.84 657.499Z" fill="#10100F"/>
<path d="M218.702 605.424C218.876 605.018 219.389 604.776 219.669 604.457C219.688 604.844 218.914 605.173 218.702 605.424Z" fill="#1D1D1B"/>
<path d="M217.25 683.43C217.587 683.43 217.86 683.157 217.86 682.821C217.86 682.484 217.587 682.211 217.25 682.211C216.914 682.211 216.641 682.484 216.641 682.821C216.641 683.157 216.914 683.43 217.25 683.43Z" fill="#10100F"/>
<path d="M497.812 127.503C498.079 127.503 498.296 127.286 498.296 127.019C498.296 126.752 498.079 126.535 497.812 126.535C497.545 126.535 497.328 126.752 497.328 127.019C497.328 127.286 497.545 127.503 497.812 127.503Z" fill="#1D1D1B"/>
<path d="M517.209 409.598C514.849 409.733 513.359 409.733 513.369 408.195C513.369 407.431 514.452 406.695 515.217 406.221C516.145 405.651 517.248 406.009 517.229 407.402L517.2 409.588L517.209 409.598Z" fill="#1D1D1B"/>
<path d="M215.799 654.765C215.606 654.107 215.635 653.923 215.693 654C215.751 654.078 215.857 654.407 215.799 654.765Z" fill="#1D1D1B"/>
<path d="M528.286 208.894C528.623 208.894 528.896 208.621 528.896 208.285C528.896 207.948 528.623 207.675 528.286 207.675C527.95 207.675 527.677 207.948 527.677 208.285C527.677 208.621 527.95 208.894 528.286 208.894Z" fill="#1D1D1B"/>
<path d="M525.868 209.736C526.135 209.736 526.352 209.519 526.352 209.252C526.352 208.985 526.135 208.769 525.868 208.769C525.601 208.769 525.384 208.985 525.384 209.252C525.384 209.519 525.601 209.736 525.868 209.736Z" fill="#1D1D1B"/>
<path d="M743.061 61.7157C741.745 65.2856 739.656 68.8265 738.872 73.0543C737.73 79.2266 735.873 84.7895 732.874 90.4975C736.482 90.4201 740.381 88.5819 742.568 91.2037C747.947 97.6566 738.891 107.679 739.336 113.774C739.743 119.366 738.011 122.859 736.037 127.444C727.321 147.703 717.172 166.859 705.863 186.024C704.373 188.539 704.518 191.48 702.273 194.092C700.59 196.056 693.344 206.253 694.156 206.824C694.63 207.153 695.075 207.956 695.617 207.53C695.849 207.346 696.256 206.892 696.623 206.901C698.549 206.969 702.622 206.137 703.125 208.991C702.36 210.684 698.529 213.277 699.003 215.299C701.393 216.479 702.496 214.757 703.173 213.48L707.178 205.886C709.5 201.493 712.848 197.836 714.038 193.28C714.502 191.49 715.073 189.652 716.292 187.746L732.168 162.96C737.711 154.301 742.423 145.604 747.995 137.342C749.756 137.119 750.656 134.449 752.745 134.497C754.293 134.652 754.777 137.071 755.744 137.777C754.97 141.144 750.656 144.327 750.298 147.945C749.814 152.772 748.469 155.975 746.602 160.067C738.137 178.565 734.035 174.753 724.738 203.931C722.106 212.193 718.556 219.585 715.266 227.547C713.583 231.62 709.81 234.919 708.987 239.321C708.426 242.339 705.669 243.394 704.624 245.58C701.644 251.782 699.032 257.702 695.269 263.459C692.637 267.493 690.625 271.721 688.119 275.881L667.822 309.664C665.365 313.747 663.314 317.955 660.663 321.893C655.42 329.691 651.598 337.749 646.732 345.673L625.796 379.766L616.431 396.658L587.891 445.369L571.967 472.09C564.74 484.203 558.548 496.421 551.302 508.544L541.531 524.894L519.783 560.148L487.083 608.53C480.011 618.988 474.574 629.814 465.692 638.792L448.036 656.632C445.511 659.186 444.002 659.66 441.148 660.724C438.294 661.788 430.545 673.078 428.707 668.793C427.613 666.258 433.844 656.051 433.486 652.839C432.296 641.946 444.66 630.52 438.904 631.536C438.517 631.604 438.294 632.01 438.323 632.523C435.034 635.212 432.789 639.237 430.864 643.358C429.5 646.29 427.178 648.234 425.611 650.856C417.881 663.752 409.338 675.661 398.657 685.742C395.794 686.468 393.143 684.475 390.25 684.223C387.774 684.011 385.442 691.044 383.11 689.235C380.295 687.058 385.858 678.37 386.081 678.119C387.822 676.184 393.627 662.823 394.139 660.656C395.349 655.538 399.044 651.862 399.731 646.406C396.984 647.412 393.23 646.667 391.653 644.074C389.892 641.191 390.821 636.47 389.205 633.345C387.59 630.22 388.015 628.885 389.147 626.012C390.86 621.697 391.982 616.521 396.132 613.445C397.632 612.342 400.747 611.413 399.267 608.82C398.532 607.533 396.384 605.444 398.222 604.051C399.789 602.87 401.966 603.083 403.698 601.506C401.308 598.41 402.856 596.098 403.698 593.399C405.294 588.339 406.552 583.376 410.306 579.816C409.164 578.732 408.729 577.91 407.897 578.326C405.759 579.4 404.036 581.47 403.475 583.183C402.421 586.424 399.693 588.668 397.361 591.106L394.227 594.386C393.356 595.295 391.643 594.947 390.927 594.386C389.118 592.954 393.656 584.702 395.097 576.865C396.074 571.564 399.693 572.56 402.237 563.795L406.455 549.302C407.094 547.126 408.806 547.367 409.164 544.455C410.828 530.863 419.409 532.517 420.415 521.478C420.28 522.92 427.613 504.8 427.478 507.121C427.662 503.813 430.69 503.387 431.425 501.259L435.672 488.856C438.013 482.006 441.806 475.544 447.659 470.503C450.881 467.727 450.542 461.516 452.08 457.617C454.005 452.751 457.924 449.442 460.952 445.417C461.871 444.189 461.561 442.118 462.5 441.015C469.968 432.173 468.72 425.594 476.837 416.742C480.243 413.027 484.18 410.386 482.594 404.233C488.089 401.011 489.008 395.332 491.059 390.069C493.961 382.62 501.546 377.173 503.984 369.82C505.368 365.66 506.209 363.977 509.827 361.104C512.42 359.043 515.893 353.2 516.851 349.978C518.119 345.702 518.593 343.893 521.921 340.565C527.909 334.567 529.351 326.662 533.404 323.276C537.951 319.484 537.129 311.996 540.06 307.71L547.597 296.691C549.116 294.475 550.364 292.444 551.496 289.667C546.359 302.292 568.165 258.96 559.893 272.253L568.165 258.95C570.139 255.777 569.877 254.413 572.547 252.081C577.801 247.496 576.795 237.957 583.654 232.926C588.094 229.666 590.774 223.29 591.539 217.689C595.621 213.171 598.765 208.043 599.094 201.542C603.593 198.397 604.009 192.796 607.057 188.907C608.982 186.449 610.878 185.395 611.458 181.486C612 179.145 617.002 178.284 617.815 175.73C617.795 175.798 630.653 154.117 631.485 153.372C633.439 151.621 634.677 149.106 634.677 146.881C634.677 144.443 642.301 133.259 645.484 130.56C656.377 121.282 665.926 105.754 675.31 96.6698C676.268 95.7411 681.908 90.9038 683.137 93.9609C683.669 95.2767 682.324 98.1984 684.017 98.5176C682.673 102.01 681.579 104.748 682.634 108.956C683.002 111.549 679.016 113.716 680.554 117.054C681.55 114.142 690.78 102.968 691.738 101.488C696.014 94.9187 701.49 90.0331 706.327 84.1219C712.693 76.3339 717.104 67.2012 726.266 62.3349C727.272 64.6858 726.024 67.1528 726.082 69.9487C730.842 66.8142 733.387 63.3314 736.183 59.9356C737.547 59.4809 740.526 56.6076 741.252 58.0974L743.032 61.7641L743.061 61.7157Z" fill="#02673A"/>
<path d="M397.371 591.096C395.058 597.143 390.85 603.102 384.774 607.166C388.083 589.684 395.068 575.008 400.989 559.441C404.307 550.705 406.832 542.288 411.234 533.872L419.864 517.338C422.873 511.581 426.346 506.173 428.716 500.088C431.541 492.842 433.137 485.325 437.394 478.553C449.952 458.584 460.845 438.384 472.155 417.729C478.627 405.897 485.573 395.342 492.578 383.868L527.348 326.866C531.827 319.513 535.01 312.209 539.354 304.895L553.701 280.689L563.028 263.788C568.107 254.587 572.509 245.445 578.323 236.554C582.677 229.898 586.324 223.367 590.068 216.276C598.504 200.303 607.008 184.853 616.963 170.312C617.418 171.231 618.134 171.976 618.753 171.996C618.589 171.996 632.288 148.815 634.706 146.832C634.706 149.048 633.468 151.573 631.514 153.324C630.682 154.069 617.824 175.749 617.844 175.682C617.031 178.236 612.039 179.097 611.487 181.438C610.907 185.347 609.011 186.401 607.085 188.858C604.038 192.738 603.632 198.339 599.123 201.493C598.794 207.995 595.65 213.132 591.568 217.64C590.803 223.242 588.123 229.627 583.683 232.877C576.814 237.908 577.82 247.447 572.576 252.033C569.906 254.365 570.167 255.729 568.194 258.902L559.922 272.204C568.194 258.902 546.387 302.244 551.525 289.619C550.393 292.395 549.145 294.427 547.626 296.642L540.089 307.662C537.158 311.938 537.98 319.436 533.433 323.228C529.37 326.614 527.928 334.518 521.95 340.516C518.622 343.844 518.148 345.654 516.88 349.93C515.922 353.151 512.449 358.995 509.856 361.055C506.238 363.929 505.396 365.612 504.013 369.772C501.565 377.125 493.99 382.572 491.088 390.021C489.037 395.284 488.118 400.963 482.623 404.184C484.209 410.347 480.272 412.979 476.866 416.694C468.749 425.546 469.988 432.124 462.529 440.967C461.59 442.08 461.909 444.14 460.981 445.369C457.953 449.394 454.034 452.702 452.109 457.569C450.561 461.467 450.91 467.678 447.688 470.455C441.835 475.505 438.042 481.968 435.701 488.808L431.454 501.21C430.728 503.339 427.7 503.764 427.507 507.073C427.633 504.742 420.309 522.862 420.444 521.43C419.438 532.469 410.867 530.814 409.193 544.407C408.835 547.319 407.113 547.077 406.484 549.254L402.266 563.746C399.712 572.502 396.103 571.515 395.126 576.817C393.685 584.653 389.157 592.915 390.956 594.337C391.672 594.908 393.385 595.256 394.255 594.337L397.39 591.058L397.371 591.096Z" fill="#0C5A35"/>
<path d="M398.648 685.723C396.093 688.132 394.787 692.379 389.94 692.476C389.776 691.015 390.289 689.661 389.67 687.697C382.578 692.447 381.001 699.645 373.542 704.105C373.155 699.993 374.858 696.423 376.812 692.843C383.265 681.041 389.195 669.644 393.694 656.071C387.889 658.857 387.899 664.1 382.994 663.433C381.146 663.181 381.707 661.053 381.059 659.892C376.58 651.901 383.439 635.967 386.467 628.179C390.714 617.256 394.536 606.701 400.234 596.388C402.604 592.103 403.378 587.304 406.91 582.912C405.294 581.731 404.646 583.386 403.475 583.163C404.036 581.441 405.758 579.381 407.896 578.307C408.728 577.891 409.164 578.713 410.305 579.797C406.542 583.357 405.294 588.33 403.698 593.38C402.846 596.079 401.308 598.381 403.698 601.487C401.966 603.064 399.789 602.851 398.222 604.031C396.384 605.415 398.531 607.514 399.267 608.801C400.747 611.394 397.622 612.313 396.132 613.425C391.982 616.502 390.85 621.678 389.147 625.992C388.006 628.866 387.667 630.365 389.205 633.326C390.831 636.451 389.892 641.172 391.653 644.055C393.23 646.638 396.984 647.383 399.731 646.386C399.044 651.843 395.349 655.519 394.139 660.637C393.626 662.804 387.812 676.174 386.08 678.1C385.858 678.351 380.295 687.039 383.11 689.216C385.442 691.025 387.773 683.991 390.25 684.204C393.143 684.456 395.794 686.449 398.657 685.723H398.648Z" fill="#0C5A35"/>
<path d="M714.037 193.289C712.847 197.846 709.5 201.503 707.178 205.895L703.173 213.49C702.496 214.777 701.393 216.499 699.003 215.309C698.539 213.296 702.36 210.694 703.124 209.001C702.621 206.147 698.548 206.979 696.623 206.911L710.632 184.921L727.446 157.987C725.966 166.559 721.003 172.915 717.336 180.2C716.891 181.08 712.17 194.208 712.025 193.522C712.393 195.244 712.683 193.609 714.037 193.289Z" fill="#0C5A35"/>
<path d="M755.744 137.787C754.767 137.08 754.293 134.652 752.745 134.507C750.655 134.458 749.765 137.129 747.995 137.351C753.461 129.254 757.65 120.411 763.987 112.12C764.287 118.012 759.362 121.969 758.163 127.222L755.754 137.787H755.744Z" fill="#0C5A35"/>
<path d="M684.046 98.4789C682.343 98.1694 683.698 95.238 683.166 93.9222C681.937 90.8651 676.297 95.7024 675.339 96.6311C678.193 90.5362 682.072 83.9962 689.261 80.465C688.013 87.1694 686.165 92.9645 684.046 98.4789Z" fill="#0C5A35"/>
<path d="M743.061 61.7157L741.281 58.0491C740.555 56.5689 737.585 59.4325 736.211 59.8872L743.284 51.3156C743.98 50.4643 744.444 49.7774 745.48 50.0676C746.099 50.2417 747.124 50.6287 746.718 51.7413L743.061 61.7157Z" fill="#0C5A35"/>
<path d="M433.476 652.83C431.657 652.472 430.776 654.445 429.935 655.858C428.532 655.955 426.984 655.538 428.319 654.765L435.42 640.282C436.736 637.602 437.916 635.145 438.313 632.523C438.274 632 438.497 631.604 438.893 631.536C444.65 630.52 432.286 641.955 433.476 652.839V652.83Z" fill="#0C5A35"/>
<path d="M44.5601 588.871C47.8204 587.672 29.9612 613.512 29.5742 607.04L38.9488 579.468C42.5961 568.748 47.356 562.199 49.765 551.412C50.7614 546.942 56.4888 535.303 58.9267 530.592L73.0129 503.397C76.9117 495.87 77.8501 487.869 85.077 475.728L94.1033 460.568C98.1183 453.825 106.912 438.384 110.589 431.573L116.742 420.157L149.558 366.067C152.305 361.549 155.382 357.979 157.733 353.887C157.617 354.603 158.129 355.212 157.733 353.887L162.038 346.408C163.025 344.696 163.054 341.91 165.327 341.629C161.409 349.475 166.846 346.244 162.057 352.29C160.529 354.225 159.406 355.976 156.659 356.654C150.98 366.947 158.304 361.549 150.941 368.737C146.181 373.381 146.791 374.59 143.463 381.401C143.066 382.204 143.937 388.579 136.584 395.748L131.118 401.079C134.649 404.378 122.779 416.674 120.321 420.476C121.831 418.155 113.868 437.126 111.556 432.366C111.314 433.179 112.262 433.808 112.369 435.133C106.303 440.745 109.931 445.001 103.759 446.82C104.784 450.11 103.962 451.541 101.998 454.134C94.529 464.012 98.2924 467.756 89.0823 477.556C86.7701 480.023 85.9961 483.661 84.2256 486.341C83.7322 487.086 81.7877 487.279 81.0911 487.608C79.8044 488.217 81.0911 490.191 80.5106 491.197C79.5529 492.9 77.2987 493.974 78.7015 496.47C79.6496 498.163 77.4922 499.866 77.5792 501.046C78.063 507.518 74.2609 511.253 71.0683 515.829C67.8757 520.405 60.7552 538.099 56.363 543.788C54.7667 545.858 52.9576 546.632 52.4642 549.757C52.2513 551.102 49.5038 552.214 51.3032 554.178C51.6225 554.527 51.5257 555.243 51.7482 555.591C52.3094 556.471 50.5196 556.442 50.239 557.11C46.079 567.142 42.2575 571.854 39.8679 583.212C39.3552 585.659 42.7122 588.446 44.5214 588.891L44.5601 588.871Z" fill="#AD1624"/>
<path d="M37.788 656.699C35.3887 659.108 33.7924 662.107 29.4969 663.878C25.2498 656.409 24.9596 647.48 28.1328 639.198L37.2656 615.36L42.8187 603.567C46.1178 596.562 50.0166 590.177 52.4062 582.486C50.5584 581.49 50.1327 583.308 49.3297 584.082C50.0069 581.393 52.6384 577.513 55.2505 576.788C59.0526 579.555 54.254 583.308 53.8477 585.437C52.9093 590.371 52.7255 595.305 49.3394 599.513C47.0562 602.348 48.5267 608.636 44.8601 609.942C44.0861 610.213 43.3508 609.13 42.364 608.733C40.8548 610.291 43.1477 612.1 42.2479 613.938C40.613 617.266 39.6842 621.561 37.2752 624.29C31.4705 630.859 32.4186 632.32 32.7379 639.295C32.883 642.555 30.89 645.603 32.8733 649.095C34.102 651.253 33.7537 653.952 32.9023 656.409C34.9533 657.028 36.3465 656.661 37.7977 656.719L37.788 656.699Z" fill="#AD1624"/>
<path d="M385.104 70.4228C385.79 61.3094 390.821 58.7554 388.47 57.043C386.119 55.3306 376.435 70.9259 373.252 71.1484L365.193 71.7096C364.739 72.5996 366.112 74.4765 365.542 75.4149C364.903 76.4791 363.249 76.6339 362.233 77.5046L355.161 83.5512C356.448 84.5283 357.725 83.8704 359.621 84.6251C357.967 85.844 358.518 88.8045 357.086 89.7235C354.638 91.2908 352.762 94.1351 350.44 95.3831C346.212 97.676 345.032 100.723 343.464 104.584C342.661 106.567 339.788 109.547 339.256 111.801C335.831 113.639 330.346 112.933 327.917 117.064C327.753 118.118 328.043 119.057 328.082 119.831C322.625 119.54 325.567 132.059 316.385 138.222C315.611 136.335 326.466 123.178 318.436 125.219C321.745 123.923 321.358 120.092 322.848 117.567C325.412 113.194 325.499 109.411 326.079 104.777C326.524 101.246 329.997 98.5177 329.291 94.1061C329.107 92.9548 332.339 91.1554 329.775 89.5978C328.74 90.7007 329.378 92.0067 328.711 93.5353C323.516 93.3999 319.365 98.2274 320.342 103.142C321.155 107.234 317.266 106.093 315.737 107.554C313.106 110.079 309.845 112.681 307.34 115.419L293.834 130.105C290.845 133.356 288.784 137.7 286.007 141.221C284.992 142.517 287.42 145.913 284.605 147.006C281.093 148.361 279.671 151.737 280.58 155.549L274.117 160.715L270.093 167.942C266.842 173.776 265.197 179.058 259.054 181.883C254.333 184.06 253.133 191.683 250.008 195.427C247.658 198.243 233.417 225.264 238.196 218.453L231.636 227.779L224.7 239.224C223.345 241.469 216.002 254.191 216.341 254.297C216.931 254.49 218.16 254.026 218.74 254.471C220.627 255.922 219.098 260.073 217.028 260.566C216.322 260.731 215.557 259.405 215.064 259.376C210.933 259.125 213.11 264.504 207.489 268.548C203.348 273.143 217.55 248.076 214.89 252.246C222.978 239.582 230.505 227.17 237.693 213.954L251.218 189.081C252.495 186.74 261.898 172.673 262.102 172.586C262.701 172.315 263.862 172.779 265.178 172.779C267.742 167.71 270.528 162.428 273.905 157.552C280.396 148.167 284.44 137.061 292.644 129.06C297.481 124.349 302.57 120.266 306.285 114.403C309.633 109.121 314.034 104.845 317.788 99.9785C320.042 97.0568 329.591 79.5653 333.838 82.4386C335.464 83.5318 330.723 96.7279 329.62 100.201C328.595 103.413 328.72 106.538 328.227 109.624C327.84 112.033 324.947 113.997 326.302 117.025C328.595 116.996 327.975 114.152 329.001 112.846L348.776 87.5661C350.353 85.5441 352.52 83.9382 353.932 81.742C358.721 74.312 364.178 67.743 371.54 61.9286C373.784 64.6278 372.12 66.7562 371.579 70.3261C372.817 69.1555 374.694 68.517 375.913 67.1335L390.512 50.4836C392.205 50.4062 392.834 51.9542 392.901 52.7571C393.008 53.9278 391.827 55.3306 391.382 56.327L385.123 70.4422L385.104 70.4228Z" fill="#AD1624"/>
<path d="M360.917 189.42L358.508 192.719C352.646 200.758 358.508 199.878 353.265 207.811C348.698 214.728 350.082 211.981 345.796 215.696C344.451 212.909 346.376 212.222 348.447 211.245C346.754 210.249 344.867 209.63 343.784 207.85C345.603 203.467 348.273 200.013 350.275 196.182C352.278 192.351 355.103 189.216 357.289 185.627L358.344 187.388C362.32 183.857 362.601 179.755 363.868 175.875C365.31 171.483 367.893 166.82 372.004 163.066C370.244 170.825 363.259 179.716 360.908 189.42H360.917Z" fill="#AD1624"/>
<path d="M94.8678 654.765C95.3806 659.031 90.0306 658.199 87.728 660.047C83.6163 663.346 81.1493 668.647 75.1414 670.65C71.9682 666.577 79.7562 657.154 79.1757 652.849C77.057 654.271 76.8925 656.941 73.9321 655.742C77.8116 648.621 80.2883 641.598 84.2162 635.425C84.6128 640.93 82.2716 637.95 81.4009 645.661C81.2558 646.986 83.0746 647.77 84.6128 649.037C81.4976 653.652 78.9629 658.334 80.9558 663.859C91.772 654.581 88.7922 660.811 94.8581 654.784L94.8678 654.765ZM78.5275 665.407C78.5275 664.816 78.0438 664.333 77.4537 664.333C76.8635 664.333 76.3798 664.816 76.3798 665.407C76.3798 665.997 76.8635 666.48 77.4537 666.48C78.0438 666.48 78.5275 665.997 78.5275 665.407Z" fill="#AD1624"/>
<path d="M396.713 144.917C396.752 143.765 397.835 142.604 398.222 140.621C393.337 136.035 384.078 155.83 383.372 156.99L372.962 174.105C371.046 177.249 369.644 178.381 367.834 180.674C370.427 173.176 378.06 164.13 381.708 157.039C384.649 151.321 388.296 146.436 391.663 140.998L399.809 127.822C402.373 123.681 403.901 119.366 407.761 115.342C408.438 119.995 406.146 123.652 403.911 126.854C402.131 129.408 403.176 131.653 403.021 134.275C402.934 135.745 398.309 146.552 396.713 144.926V144.917Z" fill="#AD1624"/>
<path d="M28.2972 693.821C29.255 695.456 19.3096 707.994 19 702.344C19.7159 695.62 24.4758 690.541 27.7071 685.191C28.3553 688.809 23.6825 693.347 28.2972 693.821Z" fill="#AD1624"/>
<path d="M343.484 258.147C343.735 260.179 342.574 261.853 341.423 263.788L325.508 290.509L304.969 324.108L289.684 350.471L276.865 371.494C272.24 379.079 269.009 387.341 263.098 393.378C259.422 393.784 265.468 384.303 259.199 384.797C257.835 384.903 258.841 388.328 256.345 387.399C259.46 382.746 261.85 378.189 263.669 372.974C264.772 369.811 266.997 367.779 268.642 365.264L279.419 348.788L282.979 341.881C284.856 338.243 286.443 335.37 290.129 333.957C281.47 359.13 300.248 325.743 300.355 325.482C302.396 320.597 305.027 317.501 309.071 314.482C310.687 313.283 309.4 308.368 312.38 307.033C315.166 305.785 314.818 302.341 316.124 300.087C328.188 279.277 321.997 293.053 328.237 283.03C331.216 278.241 334.438 274.236 335.444 268.103C335.289 269.031 341.558 255.129 343.513 258.138L343.484 258.147ZM287.246 346.534C287.584 344.725 285.824 344.27 285.011 344.705C285.572 344.406 279.787 348.595 282.97 352.106C284.595 350.936 286.685 349.523 287.246 346.524V346.534ZM282.699 355.135C284.266 354.08 282.941 352.339 281.799 353.732C278.722 356.179 275.714 358.927 276.207 362.961C280.435 361.462 279.806 357.64 282.699 355.125V355.135ZM264.23 382.281C270.538 379.65 270.915 374.213 273.169 369.646C273.547 368.882 275.404 368.04 274.688 367.015C272.182 363.426 271.534 373.874 265.314 374.803C264.627 376.97 262.314 380.008 264.23 382.281Z" fill="#AD1624"/>
<path d="M32.9216 687.658C33.4828 686.129 34.3631 684.523 35.5531 684.001C37.7105 683.053 38.9779 685.056 40.3517 686.574C45.2857 687.116 60.078 666.074 62.9611 661.624L76.6118 640.572C78.508 637.65 79.5625 634.216 82.4069 632.387C82.2908 634.613 80.3462 636.025 79.2046 638.134L74.7833 646.29C71.4456 652.452 66.8309 657.677 63.3771 663.839C60.794 668.435 57.4756 672.053 54.3023 676.078C51.5258 679.589 49.6682 683.546 45.1019 685.375C43.3798 688.074 41.2901 691.876 37.5944 692.273C35.5918 692.486 35.4273 688.103 36.9075 687.039C35.0694 686.187 33.9568 687.039 32.9313 687.668L32.9216 687.658Z" fill="#AD1624"/>
<path d="M357.289 185.637C359.321 182.309 360.23 177.704 363.868 175.875C362.591 179.755 362.32 183.866 358.344 187.388L357.289 185.627V185.637Z" fill="#C21127"/>
<path d="M348.611 249.353C347.769 251.636 347.46 254.897 344.799 256.3C343.735 254.935 343.435 253.194 344.615 251.898C345.699 250.708 347.102 249.798 348.611 249.353Z" fill="#AD1624"/>
<path d="M327.685 251.849C320.517 259.212 326.079 258.225 318.543 261.804C322.422 253.039 328.034 245.541 333.335 236.728C333.026 240.056 330.685 242.368 328.73 245.59C329.688 246.238 330.82 245.658 330.936 246.306C331.139 247.399 330.481 249.247 329.224 249.634C328.604 249.827 328.005 249.702 327.482 249.682C326.631 249.653 328.101 251.414 327.685 251.84V251.849Z" fill="#AD1624"/>
<path d="M336.451 237.754C335.28 235.77 334.283 235.78 334.013 235.248C333.626 234.503 334.08 233.787 334.37 232.761C336.837 230.836 338.115 228.698 339.411 226.154C338.927 228.805 339.972 231.097 339.024 232.897L336.46 237.754H336.451Z" fill="#AD1624"/>
<path d="M335.947 118.515C335.125 120.701 332.851 123.139 331.371 121.088C330.452 119.811 334.689 114.181 336.537 116.474C336.856 116.87 336.344 117.46 335.947 118.515Z" fill="#AD1624"/>
<path d="M341.694 221.984C342.729 220.804 342.545 219.188 344.345 218.443C343.677 219.759 343.667 221.384 341.694 221.984Z" fill="#AD1624"/>
<path d="M291.744 331.635C292.012 331.635 292.228 331.419 292.228 331.151C292.228 330.884 292.012 330.668 291.744 330.668C291.477 330.668 291.261 330.884 291.261 331.151C291.261 331.419 291.477 331.635 291.744 331.635Z" fill="#AD1624"/>
<path d="M342.052 208.769C342.319 208.769 342.536 208.552 342.536 208.285C342.536 208.018 342.319 207.801 342.052 207.801C341.785 207.801 341.568 208.018 341.568 208.285C341.568 208.552 341.785 208.769 342.052 208.769Z" fill="#AD1624"/>
<path d="M344.954 217.476C345.222 217.476 345.438 217.259 345.438 216.992C345.438 216.725 345.222 216.508 344.954 216.508C344.687 216.508 344.471 216.725 344.471 216.992C344.471 217.259 344.687 217.476 344.954 217.476Z" fill="#AD1624"/>
<path d="M385.104 70.4229C384.736 75.3182 383.652 80.6682 381.64 85.5248C380.75 87.6919 377.635 89.3076 379.773 91.5811C382.095 90.7587 385.413 89.2205 387.513 90.275C390.841 91.939 390.328 96.4474 389.457 99.282L385.258 113.01C383.401 119.076 389.128 115.729 375.042 143.756C368.454 156.874 361.885 169.538 354.629 182.289C352.713 185.656 350.246 188.336 350.836 192.854C350.895 193.318 349.453 194.305 349.434 194.992C349.424 195.437 349.134 196.26 350.275 196.172C348.282 200.004 345.603 203.457 343.784 207.84C344.877 209.62 346.754 210.23 348.447 211.236C346.386 212.222 344.451 212.9 345.796 215.686C350.072 211.971 348.689 214.719 353.265 207.801C358.508 199.858 352.646 200.748 358.508 192.709L360.917 189.41L367.835 180.654C369.644 178.362 371.047 177.239 372.962 174.085L383.372 156.971C384.078 155.81 393.337 136.016 398.222 140.602C397.835 142.585 396.752 143.746 396.713 144.897C396.442 153.663 393.172 161.605 388.045 169.074C368.241 197.914 372.614 210.529 353.168 242.649C351.649 245.155 350.672 247.651 348.611 249.324C347.092 249.769 345.699 250.669 344.616 251.869C343.435 253.165 343.735 254.907 344.8 256.271C344.238 256.571 344.209 257.867 343.484 258.118C341.53 255.11 335.26 269.012 335.415 268.083C334.419 274.217 331.197 278.212 328.208 283.011C321.968 293.034 328.159 279.257 316.095 300.067C314.789 302.321 315.128 305.766 312.351 307.014C309.371 308.349 310.658 313.263 309.042 314.463C304.999 317.472 302.367 320.577 300.326 325.463C300.219 325.714 281.441 359.111 290.1 333.938C286.423 335.35 284.827 338.224 282.95 341.861L279.39 348.769L268.613 365.245C266.968 367.76 264.743 369.792 263.64 372.955C261.821 378.17 259.432 382.736 256.316 387.38C258.812 388.309 257.806 384.884 259.17 384.777C265.439 384.284 259.393 393.765 263.069 393.359C262.663 396.503 260.554 399.521 258.764 402.511L240.547 432.899L227.002 456.146L206.386 492.658L198.695 505.274L184.27 529.528C182.712 532.15 181.126 534.665 179.491 537.48L172.457 549.535C170.774 552.418 168.839 554.981 167.001 557.439L162.348 563.64L143.095 592.819C131.399 610.542 120.563 628.295 107.193 644.645C107.145 644.703 95.0999 656.293 94.8387 654.755C88.7631 660.782 91.7428 654.552 80.9364 663.83C78.9434 658.305 81.4878 653.633 84.5934 649.008C83.0551 647.751 81.2266 646.967 81.3814 645.632C82.2521 637.921 84.5934 640.901 84.1967 635.396C85.319 633.635 85.9865 631.101 86.0542 628.489C84.1193 629.882 83.8871 631.401 82.3682 632.368C79.5239 634.197 78.4694 637.631 76.5732 640.553L62.9224 661.604C60.0394 666.045 45.247 687.087 40.313 686.555C38.9392 685.036 37.6719 683.034 35.5145 683.982C34.3245 684.504 33.4441 686.12 32.883 687.639C32.0026 690.038 29.9903 692.186 28.2586 693.792C23.6438 693.327 28.3166 688.78 27.6684 685.162C30.416 680.625 39.2875 660.144 40.5936 653.787C38.4749 653.807 38.6393 655.78 37.7493 656.68C36.3078 656.612 34.905 656.99 32.854 656.371C33.7053 653.923 34.0439 651.224 32.8249 649.057C30.8417 645.564 32.8346 642.526 32.6895 639.256C32.3702 632.281 31.4221 630.82 37.2269 624.251C39.6358 621.533 40.5549 617.227 42.1996 613.899C43.0993 612.061 40.8064 610.252 42.3157 608.694C43.2928 609.091 44.0377 610.184 44.8117 609.904C48.4783 608.598 47.0175 602.309 49.291 599.475C52.6771 595.257 52.8609 590.332 53.7993 585.398C54.2057 583.26 58.9946 579.516 55.2021 576.749C52.59 577.475 49.9585 581.354 49.2813 584.044C48.7686 586.095 45.9049 587.546 44.5215 588.852C42.7123 588.407 39.3456 585.621 39.868 583.173C42.2576 571.825 46.0791 567.104 50.2391 557.071C50.5197 556.404 52.3095 556.433 51.7483 555.552C51.5258 555.214 51.6226 554.488 51.3033 554.14C49.5038 552.166 52.2514 551.054 52.4642 549.719C52.9576 546.594 54.7668 545.82 56.3631 543.749C60.7553 538.061 67.8274 520.434 71.0684 515.79C74.3093 511.146 78.0631 507.48 77.5793 501.007C77.4923 499.817 79.6497 498.124 78.7016 496.431C77.2988 493.935 79.5529 492.861 80.5107 491.159C81.0815 490.152 79.8045 488.179 81.0912 487.569C81.7781 487.24 83.7227 487.057 84.2257 486.302C85.9962 483.622 86.7701 479.984 89.0824 477.518C98.2828 467.717 94.5194 463.973 101.998 454.095C103.962 451.493 104.794 450.071 103.759 446.782C109.931 444.963 106.303 440.696 112.369 435.095C112.263 433.769 111.314 433.15 111.556 432.328C113.859 437.088 121.821 418.106 120.321 420.438C122.779 416.645 134.649 404.339 131.118 401.04L136.584 395.71C143.927 388.541 143.066 382.165 143.463 381.362C146.791 374.551 146.181 373.352 150.941 368.698C158.304 361.52 150.98 366.918 156.659 356.615C159.407 355.947 160.519 354.187 162.057 352.252C166.846 346.215 161.409 349.436 165.327 341.59C171.306 329.642 184.289 306.917 190.897 295.317C196.276 285.875 200.572 280.534 204.441 271.818C205.157 270.212 206.251 269.351 207.46 268.49C213.09 264.446 210.904 259.076 215.035 259.318C215.528 259.347 216.293 260.673 216.999 260.508C219.069 260.015 220.598 255.864 218.711 254.413C218.131 253.968 216.893 254.432 216.312 254.239C215.973 254.133 223.316 241.411 224.671 239.166L231.608 227.721L238.167 218.395C233.378 225.196 247.629 198.185 249.979 195.369C253.095 191.635 254.304 184.002 259.025 181.825C265.178 178.99 266.823 173.708 270.064 167.884L274.088 160.657L280.551 155.491C279.651 151.679 281.064 148.313 284.576 146.948C287.391 145.865 284.963 142.459 285.978 141.163C288.755 137.642 290.825 133.298 293.805 130.047L307.311 115.361C309.826 112.633 313.077 110.021 315.708 107.496C317.237 106.025 321.126 107.176 320.313 103.084C319.346 98.1694 323.496 93.3418 328.682 93.4773C329.34 91.9487 328.701 90.6426 329.746 89.5397C332.31 91.0877 329.078 92.8968 329.262 94.0481C329.969 98.4597 326.495 101.198 326.05 104.719C325.47 109.353 325.383 113.136 322.819 117.509C321.339 120.034 321.716 123.865 318.407 125.161C326.437 123.12 315.582 136.277 316.356 138.164C325.538 132.001 322.597 119.482 328.053 119.773C328.014 118.999 327.724 118.06 327.888 117.006C330.317 112.875 335.802 113.581 339.227 111.743C339.769 109.489 342.632 106.509 343.435 104.526C345.003 100.665 346.183 97.618 350.411 95.3251C352.733 94.0674 354.61 91.2328 357.057 89.6655C358.489 88.7464 357.938 85.786 359.592 84.567C357.696 83.8221 356.428 84.48 355.132 83.4932L362.204 77.4466C363.23 76.5759 364.874 76.4211 365.513 75.3569C366.074 74.4185 364.71 72.5319 365.164 71.6515L373.223 71.0904C376.406 70.8679 386.1 55.2919 388.441 56.9849C390.783 58.678 385.771 61.2514 385.075 70.3648L385.104 70.4229ZM335.947 118.515C336.344 117.451 336.857 116.87 336.538 116.474C334.69 114.181 330.452 119.811 331.371 121.088C332.852 123.149 335.115 120.711 335.947 118.515ZM342.536 208.285C342.536 208.014 342.323 207.801 342.052 207.801C341.781 207.801 341.568 208.014 341.568 208.285C341.568 208.556 341.781 208.769 342.052 208.769C342.323 208.769 342.536 208.556 342.536 208.285ZM345.438 216.992C345.438 216.721 345.225 216.508 344.954 216.508C344.683 216.508 344.471 216.721 344.471 216.992C344.471 217.263 344.683 217.476 344.954 217.476C345.225 217.476 345.438 217.263 345.438 216.992ZM341.694 221.984C343.658 221.394 343.677 219.759 344.345 218.443C342.545 219.178 342.739 220.804 341.694 221.984ZM336.45 237.754L339.014 232.897C339.962 231.098 338.917 228.805 339.401 226.154C338.114 228.698 336.828 230.836 334.361 232.762C334.071 233.787 333.616 234.513 334.003 235.248C334.283 235.78 335.27 235.77 336.441 237.754H336.45ZM327.685 251.849C328.101 251.424 326.631 249.663 327.482 249.692C328.005 249.711 328.604 249.827 329.224 249.644C330.481 249.257 331.139 247.409 330.936 246.316C330.82 245.667 329.678 246.248 328.73 245.6C330.675 242.378 333.016 240.066 333.335 236.738C328.043 245.551 322.422 253.049 318.543 261.814C326.079 258.235 320.517 259.221 327.685 251.859V251.849ZM292.228 331.152C292.228 330.881 292.015 330.668 291.744 330.668C291.474 330.668 291.261 330.881 291.261 331.152C291.261 331.422 291.474 331.635 291.744 331.635C292.015 331.635 292.228 331.422 292.228 331.152Z" fill="#C21127"/>
<path d="M264.23 382.281C262.314 379.998 264.627 376.96 265.314 374.803C271.544 373.874 272.182 363.426 274.688 367.015C275.404 368.04 273.547 368.882 273.169 369.646C270.915 374.213 270.538 379.65 264.23 382.281Z" fill="#C21127"/>
<path d="M282.699 355.135C279.806 357.64 280.435 361.471 276.207 362.971C275.714 358.937 278.723 356.189 281.799 353.742C282.941 352.348 284.266 354.08 282.699 355.144V355.135Z" fill="#C21127"/>
<path d="M287.246 346.534C286.675 349.523 284.595 350.936 282.969 352.116C279.787 348.604 285.572 344.415 285.011 344.715C285.823 344.28 287.594 344.725 287.246 346.544V346.534Z" fill="#C21127"/>
<path d="M77.4538 666.48C78.0468 666.48 78.5276 666 78.5276 665.407C78.5276 664.813 78.0468 664.333 77.4538 664.333C76.8607 664.333 76.3799 664.813 76.3799 665.407C76.3799 666 76.8607 666.48 77.4538 666.48Z" fill="#C21127"/>
<path d="M157.752 353.887C157.946 354.544 157.917 354.728 157.859 354.651C157.801 354.573 157.694 354.245 157.752 353.887Z" fill="#C21127"/>
</svg>
